<?xml version="1.0" standalone="no"?>
<!DOCTYPE svg PUBLIC "-//W3C//DTD SVG 20010904//EN"
 "http://www.w3.org/TR/2001/REC-SVG-20010904/DTD/svg10.dtd">
<svg version="1.0" xmlns="http://www.w3.org/2000/svg"
 width="1024.000000pt" height="1024.000000pt" viewBox="0 0 1024.000000 1024.000000"
 preserveAspectRatio="xMidYMid meet">

<g transform="translate(0.000000,1024.000000) scale(0.100000,-0.100000)"
fill="#000000" stroke="none">
<path d="M0 5120 l0 -5120 5120 0 5120 0 0 5120 0 5120 -5120 0 -5120 0 0
-5120z m5298 3854 c4 -5 36 -10 72 -11 86 -3 110 -10 111 -31 1 -14 2 -15 6
-1 5 20 23 18 193 -17 69 -14 139 -27 155 -30 46 -7 170 -47 173 -56 2 -4 8
-6 13 -3 5 4 16 2 25 -3 14 -8 11 -10 -14 -14 -17 -2 -30 0 -29 4 1 5 -15 15
-35 22 -21 8 -38 11 -38 9 0 -3 -7 0 -15 7 -9 7 -18 10 -22 7 -3 -4 -12 -2
-19 4 -7 6 -18 8 -24 4 -13 -8 -13 -45 1 -45 6 0 9 7 5 15 -3 8 -1 15 4 15 6
0 11 -6 11 -12 1 -7 2 -20 3 -28 1 -11 13 -13 54 -11 34 2 52 -1 52 -9 0 -17
-26 -40 -36 -32 -5 4 -5 3 -1 -2 4 -6 15 -11 24 -12 20 -3 94 -36 90 -40 -1
-1 -43 9 -92 22 -50 14 -103 27 -120 30 -16 2 -41 8 -55 13 -14 5 -68 17 -122
27 -56 10 -95 22 -94 28 2 6 1 8 -1 4 -7 -13 -43 -9 -44 5 0 8 -2 8 -5 1 -4
-8 -24 -8 -77 2 -76 13 -167 23 -229 24 -21 0 -38 5 -38 11 0 6 10 8 23 5 12
-3 16 -3 10 0 -7 3 -13 14 -13 25 0 12 -7 19 -20 19 -13 0 -20 7 -20 18 0 11
-11 24 -25 30 -32 15 -145 16 -145 2 0 -5 -11 -10 -25 -10 -14 0 -25 5 -25 11
0 8 -19 9 -60 4 -44 -5 -60 -4 -60 5 0 15 467 10 478 -6z m-538 -4 c-25 -4
-35 -8 -22 -8 15 -2 22 -8 22 -22 0 -17 7 -20 40 -20 33 0 40 -3 40 -20 0 -19
7 -20 168 -22 l167 -2 -215 -6 c-118 -3 -216 -2 -218 3 -2 4 -8 7 -13 7 -6 0
-7 -4 -4 -10 4 -6 -8 -11 -27 -11 -18 -1 -42 -3 -53 -4 -11 -2 -45 -5 -75 -9
-94 -9 -302 -43 -375 -61 -38 -9 -81 -19 -95 -21 -14 -3 -45 -11 -70 -19 -231
-70 -297 -91 -374 -121 -50 -19 -96 -32 -103 -29 -8 2 -11 0 -8 -5 8 -13 -62
-43 -77 -34 -6 4 -8 3 -5 -3 4 -5 -22 -22 -56 -37 -34 -16 -98 -48 -142 -73
-44 -24 -88 -45 -97 -46 -9 -1 -15 -4 -13 -7 2 -3 -22 -21 -53 -40 -31 -18
-106 -67 -167 -108 -60 -41 -115 -75 -122 -75 -7 0 -10 -3 -8 -7 4 -7 -88 -81
-102 -82 -4 -1 -13 -8 -19 -16 -8 -11 -13 -12 -18 -4 -4 7 -2 12 3 12 17 0 13
47 -5 54 -13 5 -14 9 -4 21 7 8 19 15 26 15 8 0 13 6 12 13 -2 6 3 11 10 9 6
-1 12 5 12 14 0 8 -4 12 -10 9 -5 -3 -10 -2 -10 4 0 12 89 74 106 74 7 0 11 4
9 8 -7 11 44 41 57 33 6 -4 8 -3 5 3 -9 14 40 46 55 37 7 -4 8 -3 4 4 -4 6 4
17 16 25 152 90 131 82 152 62 13 -14 15 -13 13 4 0 11 -6 17 -14 14 -7 -3
-13 -3 -13 0 0 12 210 118 220 112 6 -4 9 -1 8 7 -2 9 7 12 32 11 24 -1 29 0
16 6 -26 10 136 85 167 76 15 -4 18 -3 9 3 -16 11 72 47 89 36 7 -4 9 -3 6 3
-4 6 35 25 91 45 133 49 162 58 162 51 0 -3 6 0 14 6 22 18 338 94 398 95 20
1 34 4 31 9 -2 4 2 7 9 7 7 0 42 5 78 10 36 5 101 13 145 16 44 4 82 8 84 10
2 2 38 3 80 2 68 -1 71 -2 31 -8z m1357 -172 c18 -7 33 -16 33 -20 0 -5 -12
-2 -27 5 -16 8 -35 17 -43 20 -8 3 -11 6 -6 6 5 1 25 -4 43 -11z m67 -25 c8
-8 13 -9 41 -12 8 0 15 -9 15 -18 0 -14 2 -15 9 -4 10 15 31 7 31 -12 0 -7 -4
-6 -10 3 -6 10 -10 11 -10 3 0 -9 -18 -13 -57 -13 l-58 0 25 -20 25 -20 -25 0
c-20 0 -22 -2 -10 -10 8 -5 11 -10 6 -10 -5 0 -18 8 -29 18 -11 9 -17 12 -14
5 5 -8 0 -9 -23 0 -16 6 -30 17 -30 23 0 7 -6 15 -12 17 -8 4 -7 6 3 6 9 1 23
-9 31 -21 11 -17 16 -19 23 -8 5 9 4 11 -3 6 -7 -4 -12 -3 -12 3 0 14 22 26
43 23 12 -2 17 4 17 22 0 26 10 33 24 19z m-66 -25 c-3 -7 -13 -13 -23 -13
-10 0 -20 6 -22 13 -3 7 5 12 22 12 17 0 25 -5 23 -12z m-633 -42 c221 -36
437 -91 634 -162 519 -187 927 -445 1329 -838 163 -159 388 -440 511 -636 87
-139 264 -494 320 -642 111 -295 183 -579 216 -853 8 -71 17 -148 20 -170 12
-92 15 -346 6 -420 -6 -44 -13 -116 -16 -160 -7 -103 -23 -211 -59 -390 -13
-66 -44 -172 -97 -332 l-61 -183 -64 0 c-70 0 -73 4 -53 57 6 15 34 111 64
213 44 155 65 239 100 411 23 113 35 238 45 462 7 181 6 260 -5 380 -8 84 -17
163 -19 177 -3 14 -12 68 -21 120 -17 109 -18 113 -39 201 -8 37 -17 79 -20
93 -12 67 -7 65 -104 40 -104 -27 -109 -24 -169 78 l-22 38 114 -6 c127 -7
124 -9 101 56 -13 35 -13 35 -87 40 l-74 5 -33 63 -33 62 80 0 c45 0 81 2 81
5 0 3 -6 21 -14 40 l-15 34 -82 3 -83 3 -17 48 -17 47 74 0 c80 0 83 3 59 50
-15 29 -18 30 -88 30 l-73 0 -19 53 c-10 28 -20 57 -22 64 -3 8 14 13 55 15
l60 3 -52 85 c-78 127 -194 299 -240 355 -350 430 -766 776 -1184 985 -187 93
-503 211 -723 269 -287 76 -756 111 -1095 81 -109 -10 -401 -59 -499 -85 -303
-78 -608 -205 -910 -378 -290 -166 -640 -470 -919 -797 -106 -124 -355 -498
-341 -512 2 -2 27 -3 55 -2 27 1 50 -1 50 -5 0 -4 -11 -34 -24 -67 l-24 -59
-71 -5 c-68 -5 -72 -7 -91 -37 l-20 -33 75 0 c41 0 75 -3 75 -7 0 -5 -8 -30
-19 -57 l-18 -49 -79 2 -80 2 -17 -36 c-9 -20 -17 -38 -17 -40 0 -3 34 -5 75
-5 45 0 75 -4 75 -10 0 -19 -39 -89 -62 -110 -17 -15 -35 -20 -79 -20 l-57 0
-16 -46 -15 -46 113 4 c130 3 124 12 60 -89 l-33 -52 -91 31 c-50 16 -93 28
-95 26 -4 -4 -50 -230 -59 -288 -3 -19 -15 -100 -26 -180 -18 -119 -22 -196
-23 -435 -3 -388 0 -419 73 -770 20 -94 80 -301 120 -412 l30 -83 -68 0 -68 0
-44 122 c-25 67 -46 127 -47 132 -125 456 -157 723 -134 1132 7 126 14 238 15
249 2 11 6 43 10 70 24 171 96 476 147 628 213 627 575 1172 1070 1608 218
192 536 403 779 517 377 176 699 274 1075 326 162 23 182 24 515 21 273 -3
322 -6 465 -29z m861 -1 c4 -8 10 -15 16 -15 5 0 6 4 3 10 -3 6 1 7 9 4 22 -8
20 -24 -1 -23 -25 1 -63 17 -43 18 13 1 13 2 0 11 -10 7 -11 10 -2 10 7 0 15
-7 18 -15z m329 -147 c93 -47 144 -78 103 -63 -10 4 -18 3 -18 -3 0 -5 10 -8
23 -8 12 1 31 -2 42 -8 19 -9 19 -10 -5 -16 -20 -5 -24 -11 -21 -31 6 -43 30
-79 48 -72 10 4 14 2 9 -5 -6 -9 28 -37 44 -36 3 0 16 -11 30 -24 l25 -26 -35
22 c-19 12 -90 55 -157 94 -77 46 -118 75 -110 80 9 6 9 8 -1 8 -10 0 -9 4 2
16 9 8 14 20 10 25 -3 5 -2 9 3 8 4 -1 17 0 28 1 15 1 16 3 5 7 -8 4 -21 12
-28 20 -19 19 -32 16 -32 -6 0 -15 -8 -21 -32 -23 -18 -2 -31 -7 -28 -13 3 -5
7 -9 10 -9 3 1 14 -7 25 -18 20 -19 20 -19 -8 -9 -16 6 -37 16 -48 22 -19 10
-19 12 -4 23 13 9 14 17 6 39 -6 15 -17 27 -26 27 -21 0 -19 18 3 23 11 3 -2
13 -40 31 -32 15 -60 32 -64 37 -6 10 51 -17 241 -113z m-441 92 c-7 -7 -19
-7 -35 -1 -23 9 -22 10 11 10 23 1 31 -2 24 -9z m92 -41 c23 -11 49 -17 58
-13 9 4 16 1 16 -6 0 -10 3 -10 15 0 8 7 16 10 16 6 1 -3 2 -9 3 -13 4 -20 18
-32 33 -26 10 4 14 2 10 -4 -4 -6 0 -13 8 -16 10 -4 12 -1 9 11 -5 15 -4 15 9
0 8 -10 25 -18 38 -18 22 -1 23 -1 5 -11 -14 -9 -29 -6 -67 12 -27 12 -49 25
-49 29 0 3 -8 6 -17 7 -18 2 -164 61 -173 70 -9 9 43 -8 86 -28z m34 11 c0 -5
-4 -10 -9 -10 -6 0 -13 5 -16 10 -3 6 1 10 9 10 9 0 16 -4 16 -10z m570 -204
c0 -2 -9 -2 -20 -1 -11 1 -27 11 -36 23 l-15 22 35 -21 c20 -12 36 -22 36 -23z
m90 -63 c0 -7 -61 31 -73 46 -7 8 7 2 31 -14 23 -15 42 -30 42 -32z m-1939 27
c63 -22 159 -85 159 -106 0 -17 -55 -20 -328 -14 l-243 5 38 36 c95 91 244
123 374 79z m537 -43 c17 -13 15 -44 -4 -51 -9 -3 -46 -6 -84 -6 -76 0 -99 14
-81 49 16 29 134 35 169 8z m-1210 -14 c5 -33 -33 -51 -97 -48 -32 2 -59 9
-69 19 -14 14 -14 17 3 36 16 18 29 20 89 18 64 -3 71 -5 74 -25z m2752 -66
c58 -44 104 -84 102 -89 -1 -5 2 -7 7 -4 5 3 15 -2 22 -11 10 -12 10 -14 2 -9
-13 7 -17 -3 -13 -39 2 -20 2 -20 -19 -1 -15 14 -21 29 -19 50 2 25 -1 31 -17
31 -11 0 -24 10 -30 23 -5 12 -13 22 -18 22 -4 0 -6 -4 -3 -8 2 -4 1 -14 -5
-22 -7 -12 -9 -10 -9 9 0 23 -47 78 -63 73 -5 -1 -6 2 -3 7 4 5 -3 12 -14 16
-11 3 -20 11 -20 16 0 5 -5 9 -11 9 -5 0 -7 -5 -3 -12 4 -7 3 -8 -4 -4 -7 4
-12 14 -12 22 0 19 1 18 130 -79z m-200 59 c0 -9 -7 -12 -21 -9 -16 4 -17 8
-7 14 19 13 28 11 28 -5z m30 -56 c-11 -7 -4 -12 28 -22 4 -1 18 -12 31 -24
13 -13 31 -20 42 -17 17 5 23 -4 21 -28 -1 -3 18 -12 41 -20 56 -18 107 -57
107 -82 0 -11 8 -29 18 -40 14 -17 11 -16 -15 3 -18 13 -29 28 -26 33 3 6 2 7
-4 4 -5 -3 -34 14 -64 39 -30 25 -89 70 -132 100 -42 31 -75 59 -72 64 3 5 13
6 21 3 11 -4 12 -8 4 -13z m-1682 -107 c40 -106 40 -192 -2 -286 l-22 -52
-321 0 -322 0 -14 25 c-45 76 -54 193 -23 290 17 51 7 50 361 50 l333 0 10
-27z m1887 17 c-3 -5 -13 -10 -21 -10 -8 0 -14 5 -14 10 0 6 9 10 21 10 11 0
17 -4 14 -10z m-3259 -40 c33 -16 71 -41 84 -55 l23 -24 34 29 c96 85 261 109
251 37 -3 -19 -11 -23 -61 -28 -61 -7 -104 -30 -169 -93 -44 -42 -54 -40 -121
21 -56 52 -102 73 -162 75 -56 1 -75 20 -50 48 28 31 98 27 171 -10z m3469
-71 c12 -14 4 -10 -18 9 -40 34 -63 41 -53 17 4 -11 -2 -15 -24 -15 -22 0 -28
4 -23 16 3 8 12 13 19 10 11 -4 13 1 10 20 l-5 25 37 -30 c20 -16 46 -39 57
-52z m-954 51 c22 -13 25 -43 5 -59 -20 -17 -805 -16 -841 1 -29 13 -33 42 -7
57 24 14 816 15 843 1z m-3818 -92 c-34 -36 -63 -53 -63 -38 0 6 12 15 27 21
22 8 25 12 13 21 -13 9 -13 9 0 5 17 -5 42 17 32 29 -4 4 -1 4 6 0 10 -6 7
-15 -15 -38z m4687 16 c0 -8 -19 -13 -24 -6 -3 5 1 9 9 9 8 0 15 -2 15 -3z
m141 -20 c13 -14 17 -23 9 -19 -13 5 -46 45 -37 45 2 0 14 -11 28 -26z m-141
-14 c0 -5 4 -9 9 -7 5 1 10 -2 11 -8 3 -16 22 -35 30 -30 4 3 13 -2 20 -10 20
-24 -20 -6 -58 27 -33 28 -39 38 -22 38 6 0 10 -4 10 -10z m-4760 -43 c0 -2
-10 -12 -22 -23 l-23 -19 19 23 c18 21 26 27 26 19z m-56 -52 c-4 -8 -11 -15
-16 -15 -6 0 -5 6 2 15 7 8 14 15 16 15 2 0 1 -7 -2 -15z m4906 4 c0 -6 7 -8
18 -4 14 5 15 4 4 -6 -10 -11 -15 -10 -29 4 -11 11 -13 17 -5 17 7 0 12 -5 12
-11z m165 -8 c3 -5 1 -12 -5 -16 -5 -3 -10 1 -10 9 0 18 6 21 15 7z m60 -69
c-3 -3 -12 3 -20 14 -14 18 -14 18 -15 -8 0 -32 0 -31 34 -18 29 11 33 5 11
-16 -12 -12 -15 -12 -15 -2 0 10 -3 9 -11 -2 -8 -11 -12 -12 -16 -2 -2 6 -11
12 -19 12 -8 0 -14 10 -14 25 0 14 5 25 10 25 6 0 10 7 10 16 0 10 7 7 25 -12
14 -15 23 -29 20 -32z m-5165 44 c0 -2 -8 -10 -17 -17 -16 -13 -17 -12 -4 4
13 16 21 21 21 13z m3464 -22 c21 -21 4 -54 -28 -54 -31 0 -51 42 -27 58 23
15 37 14 55 -4z m738 -12 c144 -64 222 -219 183 -365 -19 -75 -19 -75 9 -47
49 45 137 25 174 -41 l17 -29 191 0 c179 0 192 -1 209 -20 49 -54 128 -52
-1988 -50 -106 0 -129 3 -134 15 -3 9 3 25 12 35 17 19 32 20 267 20 l248 0 0
23 c0 34 64 105 107 116 69 19 137 -11 167 -73 26 -55 42 -66 97 -66 27 0 49
3 49 7 0 3 -11 20 -23 37 -80 105 -74 223 16 343 33 46 70 72 136 100 72 30
190 28 263 -5z m-3211 -24 c47 -24 72 -45 93 -77 33 -49 45 -122 28 -170 -6
-17 -10 -31 -8 -31 1 0 20 9 42 19 93 45 168 36 230 -29 49 -51 63 -90 53
-154 -9 -56 -40 -105 -90 -141 l-33 -25 47 0 c34 0 58 7 86 25 70 47 158 42
200 -11 19 -24 21 -24 184 -24 131 0 167 -3 176 -14 9 -10 9 -20 2 -33 -9 -18
-47 -19 -1055 -21 l-1046 -1 0 24 c0 14 8 29 19 35 12 6 109 10 246 10 l226 0
19 45 c34 80 114 106 195 65 22 -11 43 -20 47 -20 4 0 -11 28 -35 63 -78 114
-87 212 -28 331 52 106 146 163 272 165 56 1 76 -4 130 -31z m4039 7 c13 -14
21 -25 18 -25 -2 0 -15 11 -28 25 -13 14 -21 25 -18 25 2 0 15 -11 28 -25z
m-5240 -15 c0 -5 -5 -10 -11 -10 -5 0 -7 5 -4 10 3 6 8 10 11 10 2 0 4 -4 4
-10z m1707 -6 c26 -7 39 -39 24 -58 -16 -19 -81 -27 -124 -15 -31 8 -38 14
-35 32 5 37 73 58 135 41z m317 -23 c16 -17 16 -20 1 -35 -30 -30 -195 -18
-195 14 0 27 34 40 104 40 59 0 76 -4 90 -19z m3263 4 c0 -8 -4 -12 -9 -9 -5
3 -6 10 -3 15 9 13 12 11 12 -6z m153 -10 c11 -13 10 -14 -4 -9 -9 3 -16 10
-16 15 0 13 6 11 20 -6z m-5485 -11 c-11 -8 -19 -23 -18 -32 2 -10 0 -12 -3
-4 -7 16 -34 -3 -34 -24 0 -7 -4 -16 -10 -19 -5 -3 -10 -1 -10 6 0 13 74 89
86 89 5 0 0 -7 -11 -16z m5445 0 c0 -2 -7 -4 -15 -4 -8 0 -15 4 -15 10 0 5 7
7 15 4 8 -4 15 -8 15 -10z m-2430 -29 c0 -14 -103 -85 -130 -90 -3 0 -23 -7
-44 -14 -91 -31 -281 13 -344 81 l-22 24 270 3 c148 1 270 -1 270 -4z m2384
-21 c9 -8 16 -20 16 -25 0 -6 5 -7 11 -4 6 4 13 -2 16 -14 3 -11 10 -18 16
-14 5 3 7 1 3 -5 -3 -5 0 -12 6 -15 7 -2 10 -7 7 -11 -3 -3 -29 19 -56 49 -28
30 -47 55 -43 55 5 0 16 -7 24 -16z m147 -1 c12 -15 12 -16 -4 -10 -10 4 -23
7 -28 7 -5 0 -9 5 -9 10 0 16 26 12 41 -7z m-5468 -17 c-10 -13 -20 -22 -22
-20 -4 4 29 44 36 44 2 0 -4 -11 -14 -24z m5410 4 c4 -14 0 -20 -12 -20 -25 0
-33 11 -20 27 16 18 26 16 32 -7z m-3217 -26 c7 -26 -7 -48 -37 -65 -14 -7
-24 -4 -39 11 -19 19 -19 22 -5 49 23 46 70 49 81 5z m-2362 -9 c-4 -8 -11
-15 -16 -15 -6 0 -5 6 2 15 7 8 14 15 16 15 2 0 1 -7 -2 -15z m73 9 c-3 -3
-12 -4 -19 -1 -8 3 -5 6 6 6 11 1 17 -2 13 -5z m5538 -3 c3 -5 1 -12 -5 -16
-5 -3 -10 1 -10 9 0 18 6 21 15 7z m-5480 -10 c9 -16 -9 -20 -23 -5 -10 12
-10 14 2 14 8 0 17 -4 21 -9z m3229 -28 c17 -45 -52 -74 -75 -31 -10 18 -8 24
10 39 23 19 57 15 65 -8z m2249 -49 c-3 -8 -9 -11 -14 -8 -5 3 -7 10 -4 15 4
5 2 9 -2 9 -5 0 -9 9 -10 21 -2 21 -2 21 17 -1 10 -12 16 -28 13 -36z m-5635
21 c-3 -3 -9 2 -12 12 -6 14 -5 15 5 6 7 -7 10 -15 7 -18z m78 0 c1 -8 -2 -13
-7 -9 -5 3 -9 12 -9 21 0 19 13 9 16 -12z m48 10 c-4 -8 -7 -15 -9 -15 -2 0
-5 7 -9 15 -3 9 0 15 9 15 9 0 12 -6 9 -15z m-154 -20 c0 -8 -4 -15 -10 -15
-5 0 -7 7 -4 15 4 8 8 15 10 15 2 0 4 -7 4 -15z m5792 -5 c24 -28 7 -31 -19
-3 -13 13 -17 23 -10 23 7 0 20 -9 29 -20z m-5662 3 c0 -9 -55 -73 -63 -73 -3
0 -3 9 0 20 3 11 9 17 14 15 4 -3 16 6 26 19 19 27 23 30 23 19z m-157 -38
c-3 -9 -8 -14 -10 -11 -3 3 -2 9 2 15 9 16 15 13 8 -4z m5852 -4 c3 -5 2 -12
-3 -15 -5 -3 -9 1 -9 9 0 17 3 19 12 6z m-5905 -64 c0 -2 -12 -14 -27 -28
l-26 -24 19 27 c16 23 34 36 34 25z m5969 -19 c8 -13 21 -34 29 -48 l14 -25
-22 25 c-55 64 -60 70 -47 70 7 0 18 -10 26 -22z m-5849 8 c0 -2 -7 -9 -15
-16 -13 -11 -14 -10 -9 4 5 14 24 23 24 12z m-47 -51 c-3 -9 -8 -14 -10 -11
-3 3 -2 9 2 15 9 16 15 13 8 -4z m-129 -10 c-4 -8 -11 -15 -16 -15 -6 0 -5 6
2 15 7 8 14 15 16 15 2 0 1 -7 -2 -15z m106 -34 c-5 -11 -15 -23 -22 -27 -7
-4 -8 -3 -4 4 4 7 2 12 -3 12 -6 0 -11 5 -11 11 0 5 4 8 8 5 4 -2 14 -1 22 5
21 12 22 11 10 -10z m2440 -21 c24 -24 17 -48 -17 -56 -14 -4 -82 -3 -151 2
-104 8 -127 12 -136 27 -22 36 15 47 156 47 114 0 130 -2 148 -20z m3434 -6
c9 -24 2 -26 -12 -4 -7 11 -8 20 -3 20 5 0 12 -7 15 -16z m141 -23 c3 -5 2
-12 -3 -15 -5 -3 -9 1 -9 9 0 17 3 19 12 6z m-6084 -44 c-10 -9 -11 -8 -5 6 3
10 9 15 12 12 3 -3 0 -11 -7 -18z m5989 -2 c14 -19 14 -19 -2 -6 -10 7 -18 18
-18 24 0 6 1 8 3 6 1 -2 9 -13 17 -24z m105 6 c-3 -6 -11 -11 -16 -11 -5 0 -4
6 3 14 14 16 24 13 13 -3z m-6215 5 c0 -2 -8 -10 -17 -17 -16 -13 -17 -12 -4
4 13 16 21 21 21 13z m3098 -315 c-1 -176 -6 -314 -9 -309 -4 6 -13 -6 -20
-26 -7 -20 -17 -36 -21 -36 -4 0 -8 60 -8 132 l0 133 -38 -65 c-21 -36 -47
-79 -59 -95 -11 -17 -37 -55 -57 -85 -20 -30 -57 -77 -82 -105 -29 -32 -38
-38 -25 -18 12 18 26 35 31 38 10 6 112 215 151 306 12 30 25 59 29 64 4 6 10
19 13 30 7 19 6 18 -10 -2 -10 -12 -47 -61 -83 -110 -35 -48 -114 -151 -175
-228 -61 -77 -126 -162 -145 -190 -19 -27 -37 -52 -40 -55 -16 -15 -44 -66
-41 -75 1 -5 -1 -7 -5 -3 -4 4 -13 0 -21 -10 -35 -45 28 85 169 348 l30 55
-94 -96 c-51 -53 -131 -140 -178 -192 l-85 -95 -24 23 -23 23 51 73 c28 41 67
97 86 124 50 69 104 153 127 195 10 19 26 46 35 60 9 14 -72 -65 -180 -175
l-195 -200 -22 21 -22 22 99 143 c55 79 129 186 164 237 l64 92 92 -1 92 -2
208 186 c115 102 212 186 216 187 5 0 7 -144 5 -319z m-3114 271 c2 -4 -4 -8
-14 -8 -10 0 -16 4 -14 8 3 4 9 8 14 8 5 0 11 -4 14 -8z m6176 -34 c-1 -8 -6
-6 -15 6 -20 26 -19 42 0 22 8 -8 15 -21 15 -28z m-6220 -7 c-13 -26 -13 -34
2 -25 7 5 8 3 3 -5 -13 -22 -28 4 -16 28 7 12 14 21 17 21 2 0 0 -9 -6 -19z
m6345 0 c3 -5 2 -12 -3 -15 -5 -3 -9 1 -9 9 0 17 3 19 12 6z m-6230 -20 c-8
-14 -25 -14 -25 0 0 5 5 7 10 4 6 -3 10 -1 10 6 0 7 3 10 6 6 3 -3 3 -10 -1
-16z m6129 -7 c9 -24 2 -26 -12 -4 -7 11 -8 20 -3 20 5 0 12 -7 15 -16z m126
-14 c6 -11 8 -20 6 -20 -3 0 -10 9 -16 20 -6 11 -8 20 -6 20 3 0 10 -9 16 -20z
m-6414 -32 c-9 -12 -16 -19 -16 -15 0 11 24 47 28 42 2 -2 -3 -14 -12 -27z
m113 -20 c-5 -10 -12 -18 -14 -18 -2 0 -3 8 -2 18 0 10 7 19 13 19 9 0 10 -5
3 -19z m-141 -50 c0 -43 -7 -68 -19 -68 -6 0 -5 9 2 21 7 14 8 24 1 31 -7 7
-7 17 1 29 15 25 16 25 15 -13z m6372 12 c6 -11 8 -20 6 -20 -3 0 -10 9 -16
20 -6 11 -8 20 -6 20 3 0 10 -9 16 -20z m-6287 -12 c4 -10 8 -9 16 2 6 8 11
11 11 5 0 -5 -9 -23 -21 -40 -11 -16 -31 -52 -45 -78 -14 -26 -29 -45 -35 -41
-6 3 -10 0 -8 -7 3 -26 -1 -39 -12 -39 -5 0 -7 4 -4 10 3 5 0 7 -8 4 -11 -4
-14 4 -13 35 1 47 1 47 24 24 16 -16 17 -15 21 2 1 10 6 13 10 8 3 -6 16 9 28
34 16 33 18 43 7 39 -8 -3 -14 1 -14 10 0 8 5 12 10 9 6 -3 10 3 10 14 0 23
15 28 23 9z m6421 -4 c3 -8 2 -12 -4 -9 -6 3 -10 10 -10 16 0 14 7 11 14 -7z
m-6563 -84 c-17 -35 -28 -66 -26 -70 3 -4 -2 -10 -10 -14 -8 -3 -15 -3 -15 -1
0 10 74 154 78 151 1 -2 -11 -32 -27 -66z m6459 50 c6 -11 8 -20 6 -20 -3 0
-10 9 -16 20 -6 11 -8 20 -6 20 3 0 10 -9 16 -20z m-2801 -34 c-3 -3 -11 5
-18 17 -13 21 -12 21 5 5 10 -10 16 -20 13 -22z m947 18 c25 -12 34 -23 34
-40 0 -22 -4 -24 -54 -24 -30 0 -61 -3 -70 -6 -11 -4 -16 0 -16 12 1 28 36 66
68 73 2 1 19 -6 38 -15z m-215 -4 c24 -14 24 -32 -1 -55 -18 -17 -21 -17 -45
-1 -29 19 -31 29 -9 50 18 19 28 20 55 6z m474 -10 c31 -34 13 -48 -59 -49
-73 0 -84 11 -46 49 26 26 81 26 105 0z m211 6 c32 -24 7 -51 -50 -53 -52 -3
-60 13 -26 47 24 24 49 25 76 6z m1534 -26 c6 -11 8 -20 6 -20 -3 0 -10 9 -16
20 -6 11 -8 20 -6 20 3 0 10 -9 16 -20z m-2907 -14 c9 -7 17 -19 17 -25 0 -7
4 -10 8 -7 8 4 152 -139 241 -239 25 -28 56 -63 70 -79 l26 -29 -39 26 c-48
32 -248 219 -241 225 3 3 -4 12 -15 19 -11 8 -17 19 -14 25 4 7 2 8 -4 4 -11
-7 -67 55 -63 69 2 4 -3 12 -11 16 -7 5 -8 9 -3 9 6 -1 18 -7 28 -14z m-142
-41 c3 2 6 -6 6 -18 2 -23 -6 -15 -28 28 -9 18 -9 19 4 3 8 -10 16 -16 18 -13z
m2957 0 c-3 -3 -9 2 -12 12 -6 14 -5 15 5 6 7 -7 10 -15 7 -18z m136 -44 c-9
-9 -27 19 -30 46 -3 27 -2 27 16 -7 10 -19 16 -37 14 -39z m-6610 -36 c-4 -8
-8 -15 -10 -15 -2 0 -4 7 -4 15 0 8 4 15 10 15 5 0 7 -7 4 -15z m-104 -21 c0
-8 -19 -13 -24 -6 -3 5 1 9 9 9 8 0 15 -2 15 -3z m3731 -21 c13 -16 12 -17 -3
-4 -10 7 -18 15 -18 17 0 8 8 3 21 -13z m-3770 -16 c-10 -9 -11 -8 -5 6 3 10
9 15 12 12 3 -3 0 -11 -7 -18z m4336 13 c120 0 120 1 26 -71 l-55 -43 -41 45
c-23 24 -49 53 -57 63 -14 18 -13 19 3 13 10 -4 66 -7 124 -7z m-4223 -15 c-6
-16 -24 -21 -24 -7 0 11 11 22 21 22 5 0 6 -7 3 -15z m2396 9 c0 -3 -18 -32
-40 -65 l-41 -59 -89 0 -89 0 -42 45 c-23 25 -46 45 -51 45 -4 0 -39 -20 -76
-45 l-68 -45 -234 2 -233 3 -14 40 c-25 71 -37 74 -64 11 l-24 -56 -350 0
-351 0 -21 65 -21 65 904 0 c497 0 904 -2 904 -6z m3590 -1 c0 -13 -33 -97
-43 -110 -7 -10 -91 -13 -356 -13 l-347 0 -22 45 c-12 25 -26 45 -31 45 -5 0
-16 -19 -23 -42 l-15 -43 -247 -3 -248 -2 -75 57 c-41 31 -76 60 -79 65 -3 4
330 8 740 8 410 0 746 -3 746 -7z m-6014 -70 c-8 -15 -15 -25 -16 -21 0 12 23
58 27 54 3 -2 -2 -17 -11 -33z m-109 2 c-15 -16 -19 -13 -11 9 3 9 10 13 15
10 5 -3 3 -11 -4 -19z m3803 15 c0 -5 -2 -10 -4 -10 -3 0 -8 5 -11 10 -3 6 -1
10 4 10 6 0 11 -4 11 -10z m41 -7 c13 -16 12 -17 -3 -4 -10 7 -18 15 -18 17 0
8 8 3 21 -13z m-20 -30 c13 -16 12 -17 -3 -4 -10 7 -18 15 -18 17 0 8 8 3 21
-13z m-3754 -63 c-15 -36 -24 -47 -36 -42 -14 6 -14 7 0 10 17 3 44 66 34 82
-3 5 0 7 8 4 12 -4 11 -13 -6 -54z m568 -260 c3 -168 6 -314 6 -325 0 -10 5
-25 11 -32 8 -9 7 -13 -2 -13 -9 0 -11 -11 -7 -36 5 -32 4 -34 -10 -22 -14 12
-15 5 -8 -67 4 -44 12 -88 17 -99 8 -14 7 -17 -2 -11 -10 6 -11 1 -6 -21 4
-16 12 -54 17 -84 6 -30 13 -62 16 -70 8 -18 7 -17 18 -60 4 -19 9 -42 10 -51
2 -24 28 -83 39 -91 6 -4 22 -8 36 -9 23 0 23 -1 5 -8 -11 -5 -22 -7 -25 -6
-3 2 -6 -8 -7 -22 -1 -22 2 -24 27 -21 25 4 27 2 19 -13 -14 -27 -11 -37 14
-41 14 -2 23 -11 25 -25 2 -13 8 -23 13 -23 6 0 7 -5 4 -10 -3 -6 1 -13 10
-16 8 -4 37 -26 63 -51 26 -24 74 -60 107 -79 33 -20 51 -33 40 -31 -11 3 -38
8 -60 12 -22 4 -51 9 -64 11 -61 12 -181 98 -181 131 0 7 -4 13 -9 13 -12 0
-77 133 -86 175 -4 17 -9 38 -12 49 -4 13 -1 16 7 11 9 -6 9 -3 1 13 -6 12
-15 23 -20 26 -18 12 -60 -44 -77 -100 -9 -32 -20 -66 -24 -74 -36 -76 -50
-99 -87 -136 -23 -24 -53 -46 -67 -50 -14 -3 -26 -10 -26 -14 0 -4 -17 -11
-37 -16 -41 -8 -40 -8 -63 -16 -22 -8 -96 -28 -105 -28 -4 0 5 17 21 37 15 21
54 89 86 152 32 63 68 129 79 147 20 32 116 100 127 90 3 -3 11 2 19 12 8 9 0
-10 -17 -43 -39 -73 -48 -84 -59 -67 -5 9 -20 -6 -45 -48 -21 -34 -35 -64 -32
-67 3 -3 39 28 80 70 59 59 84 95 120 169 73 149 58 195 -30 99 -29 -31 -56
-52 -60 -48 -5 5 -1 13 9 18 9 6 17 15 17 20 0 6 -35 -21 -77 -60 -57 -52 -97
-79 -150 -101 -39 -17 -79 -30 -87 -30 -10 0 16 38 67 99 45 54 105 138 132
185 53 92 111 183 129 202 40 42 62 74 78 116 22 60 24 95 2 56 -8 -16 -19
-28 -24 -28 -5 0 -17 -14 -27 -31 -36 -61 -205 -179 -257 -179 -10 0 3 20 34
53 62 65 132 182 177 295 19 48 39 91 44 96 16 17 10 23 -17 18 -25 -5 -26 -3
-20 24 4 16 16 47 26 69 11 22 37 90 59 150 54 151 61 168 66 163 2 -2 7 -141
10 -308z m3241 298 c4 -7 4 -10 -1 -6 -4 4 -15 2 -24 -5 -14 -11 -14 -10 -2 6
16 20 18 21 27 5z m3008 -14 c3 -8 2 -12 -4 -9 -6 3 -10 10 -10 16 0 14 7 11
14 -7z m-688 -56 c2 -29 -1 -78 -6 -108 -5 -30 -10 -79 -11 -107 -2 -30 -7
-53 -13 -53 -7 0 -6 -3 1 -8 7 -4 15 -19 17 -32 2 -14 5 -25 6 -25 10 0 6 -55
-5 -59 -11 -4 -10 -15 2 -66 11 -41 19 -57 24 -48 8 13 14 -26 9 -61 -5 -36
11 -61 38 -62 l27 -1 -29 -7 c-25 -5 -30 -12 -34 -40 -3 -31 -2 -33 20 -28
l23 6 -24 -18 c-20 -15 -22 -21 -12 -39 8 -16 9 -28 1 -41 -7 -15 -6 -23 4
-33 8 -9 12 -28 10 -50 -3 -26 0 -37 12 -42 11 -4 14 -13 10 -30 -6 -25 14
-51 30 -38 5 4 1 -2 -9 -14 -17 -20 -15 -54 3 -54 5 0 6 -16 3 -35 -5 -31 -3
-35 17 -35 21 0 22 -1 7 -17 -31 -36 13 -114 55 -98 12 5 15 -1 11 -29 -2 -26
0 -36 10 -36 8 0 42 -33 75 -74 34 -41 88 -94 121 -117 34 -24 59 -45 56 -47
-10 -10 -150 44 -204 78 -87 57 -142 141 -187 292 -8 26 -19 50 -25 54 -11 6
-9 -10 11 -115 18 -97 7 -215 -28 -277 -29 -52 -36 188 -10 331 16 87 16 91
-3 110 -16 17 -19 17 -19 3 0 -9 6 -18 13 -21 9 -3 6 -20 -12 -68 -12 -35 -33
-91 -45 -124 -30 -84 -96 -177 -151 -213 -26 -17 -84 -44 -131 -61 -46 -17
-102 -40 -124 -51 -21 -11 -42 -20 -45 -20 -3 0 19 36 49 80 30 44 80 131 111
193 32 61 68 126 81 144 23 31 143 117 151 109 3 -2 -5 -9 -16 -15 -13 -7 -18
-18 -15 -29 4 -12 3 -14 -4 -4 -7 10 -13 7 -28 -15 -10 -15 -19 -30 -19 -33 0
-3 -10 -18 -21 -35 -30 -42 -40 -77 -21 -69 8 3 17 14 20 25 3 10 13 19 22 19
9 0 15 -6 12 -12 -2 -7 -10 -12 -16 -11 -6 2 -10 0 -9 -5 3 -9 -13 -56 -21
-62 -18 -15 -71 -90 -63 -90 30 0 205 245 245 343 11 29 28 63 36 76 14 22 17
83 5 122 -8 27 -59 2 -78 -38 -20 -42 -20 -49 -1 -33 8 7 13 16 10 20 -2 4 10
17 27 30 l31 23 -19 -33 c-11 -18 -30 -40 -44 -49 -14 -9 -54 -44 -90 -79 -41
-40 -90 -75 -135 -97 -71 -34 -153 -60 -162 -52 -2 3 16 30 41 61 56 69 113
154 243 361 102 162 127 216 121 257 -4 21 -6 19 -20 -12 -20 -46 -90 -134
-147 -187 -46 -42 -138 -99 -147 -90 -3 2 21 40 52 83 48 67 170 298 178 337
3 13 6 20 56 139 l30 73 -30 -34 -29 -34 10 39 c6 21 21 59 34 84 12 25 33 78
46 117 12 40 25 71 27 68 2 -2 6 -28 8 -57z m-2307 23 c-7 -2 -6 -7 2 -12 8
-5 9 -9 3 -9 -6 0 -18 8 -25 17 -10 11 -10 14 -1 9 8 -5 12 -1 12 11 0 15 2
16 10 3 6 -10 6 -16 -1 -19z m692 12 c13 -16 12 -17 -3 -4 -10 7 -18 15 -18
17 0 8 8 3 21 -13z m-143 -49 c-7 -15 -14 -21 -16 -15 -2 7 2 18 8 26 18 22
21 18 8 -11z m-4506 -16 c-8 -8 -9 -4 -5 13 4 13 8 18 11 10 2 -7 -1 -18 -6
-23z m3571 -47 c-6 -8 -31 23 -38 49 -6 21 -3 19 17 -10 14 -19 23 -37 21 -39z
m-2082 12 l-19 -48 -280 -3 -280 -2 -21 45 c-11 25 -21 47 -21 50 0 3 144 5
320 5 l320 0 -19 -47z m504 38 c-6 -5 -35 -28 -65 -50 -54 -41 -55 -41 -141
-41 l-87 0 -16 47 c-9 26 -16 48 -16 50 0 2 75 3 167 3 101 0 163 -4 158 -9z
m233 -23 c-2 -18 -5 -35 -8 -38 -3 -3 -18 -30 -34 -60 -16 -30 -36 -63 -44
-72 -8 -10 -12 -18 -8 -18 4 0 0 -8 -10 -17 -10 -10 -29 -36 -43 -58 -32 -50
-140 -185 -148 -185 -3 0 -1 6 4 13 6 6 38 60 71 119 47 83 55 104 37 90 -13
-9 -23 -21 -22 -27 2 -13 -23 -58 -37 -67 -17 -11 -28 -9 -20 3 4 7 1 10 -6 7
-8 -2 -16 -10 -18 -18 -3 -7 0 -10 6 -7 5 4 15 0 22 -8 7 -9 8 -15 2 -15 -5 0
-12 -9 -15 -21 -3 -12 -10 -18 -17 -14 -8 5 -7 11 2 23 10 12 10 14 1 8 -8 -4
-13 -1 -13 8 0 9 -2 16 -5 16 -10 0 -54 -43 -50 -49 2 -4 -4 -7 -14 -8 -12 -1
-26 16 -43 51 l-26 53 85 64 c47 35 132 98 188 139 56 42 114 86 130 98 36 28
37 28 33 -10z m1766 20 c-3 -4 -1 -8 5 -8 6 0 16 -10 22 -22 10 -19 6 -17 -19
7 -18 17 -32 30 -32 31 0 0 7 1 15 1 8 0 12 -4 9 -9z m717 -5 c13 -16 12 -17
-3 -4 -10 7 -18 15 -18 17 0 8 8 3 21 -13z m605 -8 c-20 -77 -15 -75 -126 -75
l-101 0 -54 43 c-30 23 -54 45 -54 50 -1 4 76 7 170 7 l171 0 -6 -25z m794 15
c0 -6 -9 -29 -20 -50 l-20 -40 -275 0 c-213 0 -275 -3 -276 -12 0 -14 -49 89
-49 103 0 5 144 9 320 9 215 0 320 -3 320 -10z m-6009 -27 c-12 -20 -14 -14
-5 12 4 9 9 14 11 11 3 -2 0 -13 -6 -23z m-104 -15 c2 -17 0 -19 -7 -8 -5 8
-6 18 -4 22 8 12 10 10 11 -14z m3496 13 c10 -1 -1 -21 -12 -21 -4 0 -15 6
-26 13 -17 13 -16 14 6 11 13 -1 28 -3 32 -3z m997 -21 c0 -5 -2 -10 -4 -10
-3 0 -8 5 -11 10 -3 6 -1 10 4 10 6 0 11 -4 11 -10z m-4403 -16 c-3 -3 -12 -4
-19 -1 -8 3 -5 6 6 6 11 1 17 -2 13 -5z m3494 -8 c9 0 15 -5 12 -12 -2 -6 6
-15 19 -18 14 -5 18 -9 11 -13 -7 -2 -13 -8 -13 -13 0 -4 6 -7 13 -6 6 0 13
-2 14 -7 2 -4 10 -21 19 -38 13 -27 2 -20 -70 41 -47 40 -86 74 -86 75 0 2 15
1 33 -2 17 -4 39 -6 48 -7z m1174 4 c3 -5 -1 -10 -10 -10 -9 0 -13 5 -10 10 3
6 8 10 10 10 2 0 7 -4 10 -10z m-3173 -42 c-8 -8 -9 -4 -5 13 4 13 8 18 11 10
2 -7 -1 -18 -6 -23z m1621 7 c-3 -9 -8 -14 -10 -11 -3 3 -2 9 2 15 9 16 15 13
8 -4z m1596 -34 c-13 -4 -15 -2 -24 29 l-8 25 21 -25 c11 -14 16 -27 11 -29z
m-4738 16 c-10 -9 -11 -8 -5 6 3 10 9 15 12 12 3 -3 0 -11 -7 -18z m4669 -2
c0 -2 -5 -7 -12 -11 -7 -4 -8 -3 -4 4 7 11 -6 17 -27 13 -5 -1 -6 3 -2 9 6 9
45 -3 45 -15z m-2940 -11 c0 -3 -7 -12 -16 -21 -19 -20 -35 -6 -28 24 5 19 10
21 25 12 10 -5 19 -12 19 -15z m1340 23 c0 -2 -12 -14 -27 -28 l-28 -24 24 28
c23 25 31 32 31 24z m2323 -139 c-2 -5 0 -8 4 -8 5 0 14 -13 20 -30 15 -40 5
-38 -42 10 -58 60 -65 52 -27 -30 9 -19 56 -74 104 -121 48 -47 85 -89 82 -92
-3 -3 -27 1 -52 9 -26 7 -47 14 -48 14 -1 0 -1 -13 0 -29 1 -16 4 -27 7 -26 3
2 21 -26 40 -63 19 -37 53 -94 75 -128 63 -93 61 -88 29 -80 -36 9 -116 66
-109 78 3 5 1 7 -4 6 -24 -7 -128 134 -116 155 4 7 4 9 -1 5 -4 -4 -16 3 -26
15 -17 21 -18 20 -3 -37 9 -32 22 -69 31 -82 8 -13 12 -24 9 -24 -3 0 4 -17
17 -37 20 -31 77 -146 94 -188 14 -34 -80 85 -103 132 -18 35 -30 50 -32 40
-5 -24 14 -78 62 -177 23 -47 41 -92 41 -100 1 -8 6 -14 12 -13 6 1 17 -5 25
-14 11 -14 11 -16 -2 -8 -8 5 3 -12 25 -38 21 -25 43 -43 49 -40 6 3 8 3 4 -2
-4 -4 -3 -14 3 -22 11 -13 1 -18 -24 -14 -12 2 2 -39 24 -71 11 -15 15 -29 11
-32 -10 -6 -33 14 -75 63 -15 19 -30 31 -33 29 -5 -6 37 -140 47 -148 3 -3 11
-16 18 -30 11 -24 11 -24 -3 -6 -13 16 -16 17 -16 4 0 -16 23 -41 31 -33 3 2
11 -5 18 -16 12 -21 12 -21 -19 -2 -59 33 -170 223 -170 288 0 9 -6 15 -12 13
-8 -3 -16 -32 -20 -68 -16 -139 -84 -239 -191 -279 -31 -12 -31 -9 9 44 34 47
82 148 113 240 15 46 30 83 32 81 2 -2 5 28 7 67 2 46 -1 68 -7 62 -5 -6 -32
-61 -60 -123 -27 -62 -61 -133 -76 -157 -54 -93 -151 -169 -275 -214 -19 -8
-48 -19 -65 -26 -16 -7 -43 -16 -59 -19 -34 -8 -38 -16 55 106 31 40 82 111
114 158 75 111 99 136 161 171 28 16 61 40 74 54 12 13 27 22 33 18 6 -3 7 -1
3 5 -4 6 2 24 14 39 11 16 22 37 24 48 2 11 7 38 11 60 l7 40 -33 -45 c-60
-84 -147 -160 -223 -195 -135 -61 -139 -57 -43 47 89 96 113 129 211 285 51
83 83 153 69 153 -3 0 -29 -22 -59 -49 -56 -51 -157 -115 -174 -109 -5 2 25
55 66 118 69 106 196 350 240 463 l19 48 31 -68 c17 -37 30 -71 27 -75z
m-3839 89 c1 -7 10 -30 20 -52 10 -22 19 -45 20 -51 1 -7 6 -18 12 -25 21 -28
46 -98 39 -108 -3 -6 -2 -10 3 -9 6 2 26 -28 47 -67 20 -38 64 -110 96 -159
33 -49 58 -91 55 -93 -10 -10 -173 84 -208 121 -21 21 -41 37 -43 34 -6 -6 18
-68 26 -68 4 0 25 -28 45 -62 82 -135 169 -249 248 -327 48 -46 77 -81 67 -81
-35 1 -163 60 -223 103 -59 42 -127 109 -148 146 -5 9 -11 13 -15 9 -8 -8 44
-128 65 -148 8 -8 20 -24 27 -35 6 -11 16 -19 22 -18 6 2 8 -3 5 -11 -5 -14
29 -80 55 -107 9 -8 25 -28 36 -43 11 -16 25 -34 32 -41 7 -7 11 -14 9 -16 -2
-2 8 -15 22 -29 14 -14 20 -17 12 -7 -7 10 -14 28 -14 40 -1 22 -91 157 -104
157 -4 0 -13 9 -19 20 -11 17 -10 18 5 12 45 -19 80 -48 117 -99 22 -31 88
-121 146 -200 71 -94 101 -143 90 -143 -30 1 -182 55 -175 63 4 4 -2 7 -12 7
-32 0 -105 52 -167 119 -55 60 -130 196 -168 304 -7 20 -16 37 -20 37 -18 0
-19 -24 -5 -81 9 -33 18 -74 21 -91 3 -17 17 -54 30 -83 14 -29 25 -57 25 -63
0 -7 5 -12 10 -12 6 0 10 -4 10 -10 0 -11 87 -137 101 -145 25 -16 4 -21 -36
-7 -93 30 -176 138 -205 267 -19 80 -20 83 -30 64 -5 -9 -12 -30 -15 -47 -10
-59 -57 -145 -108 -199 -27 -29 -54 -53 -59 -53 -5 0 2 19 16 43 22 37 76 179
76 200 0 16 -17 6 -33 -20 -20 -34 -72 -93 -81 -93 -4 0 3 19 15 43 12 23 26
50 31 61 9 18 -3 35 -24 36 -15 0 -7 16 28 55 20 22 40 39 45 38 4 -2 6 4 3
12 -4 8 -1 15 5 15 6 0 11 5 11 11 0 6 9 24 20 39 44 62 110 215 110 258 0 28
-18 8 -39 -43 -13 -31 -43 -77 -67 -103 l-43 -47 58 115 c77 150 123 285 91
265 -6 -4 -23 -32 -39 -63 -16 -31 -51 -78 -78 -104 -50 -48 -119 -98 -135
-98 -5 0 12 37 37 83 65 116 128 247 122 253 -3 3 -15 0 -28 -6 -34 -19 -79
-30 -79 -20 0 14 90 85 103 82 7 -2 9 0 5 4 -12 12 12 33 30 27 13 -4 14 -3 4
5 -11 7 -7 14 15 31 15 13 21 19 13 15 -11 -5 -10 -2 3 13 10 11 22 34 27 52
11 39 -6 42 -40 6 -32 -34 -52 -34 -37 0 7 14 15 25 20 25 4 0 7 10 7 23 0 13
9 33 20 45 11 12 19 25 18 29 -2 5 4 16 12 25 13 14 16 14 24 1 4 -8 9 -20 10
-26z m5435 -12 c0 -5 -4 -3 -9 5 -5 8 -9 22 -9 30 0 16 17 -16 18 -35z m-1785
20 c-4 -8 -11 -15 -16 -15 -6 0 -5 6 2 15 7 8 14 15 16 15 2 0 1 -7 -2 -15z
m1053 -7 c-3 -8 -6 -5 -6 6 -1 11 2 17 5 13 3 -3 4 -12 1 -19z m-1659 -32 c0
-5 4 -12 9 -15 4 -3 15 -15 23 -26 15 -20 14 -20 -8 -1 -20 17 -52 70 -52 85
0 9 28 -33 28 -43z m113 17 c13 -16 12 -17 -3 -4 -17 13 -22 21 -14 21 2 0 10
-8 17 -17z m-3341 -3 c0 -6 -14 -37 -30 -70 l-30 -60 -154 0 c-138 0 -156 2
-179 20 -22 18 -77 99 -77 114 0 3 106 6 235 6 154 0 235 -4 235 -10z m4581
-28 c-11 -21 -33 -53 -50 -70 l-29 -33 -163 3 -163 3 -17 30 c-10 17 -25 47
-34 68 l-15 37 245 0 245 0 -19 -38z m-5971 18 c0 -5 -4 -10 -9 -10 -6 0 -13
5 -16 10 -3 6 1 10 9 10 9 0 16 -4 16 -10z m4547 -12 c-3 -8 -6 -5 -6 6 -1 11
2 17 5 13 3 -3 4 -12 1 -19z m663 12 c0 -5 -4 -10 -9 -10 -6 0 -13 5 -16 10
-3 6 1 10 9 10 9 0 16 -4 16 -10z m-2230 -44 c0 -3 -4 -8 -10 -11 -5 -3 -10
-1 -10 4 0 6 5 11 10 11 6 0 10 -2 10 -4z m-3017 -68 c-8 -29 -18 -55 -22 -58
-4 -3 -8 -21 -9 -40 -2 -19 -6 -37 -10 -40 -4 -3 -8 -16 -10 -30 -1 -13 -6
-27 -10 -30 -4 -3 -7 -16 -7 -30 1 -14 -3 -41 -7 -60 -5 -19 -10 -44 -12 -55
-2 -11 -14 -67 -25 -125 -50 -245 -55 -308 -56 -680 -1 -195 2 -357 6 -360 4
-3 10 -29 13 -57 3 -28 7 -67 11 -85 3 -18 7 -47 8 -63 2 -17 6 -36 10 -42 4
-6 8 -29 10 -50 2 -22 6 -44 9 -49 13 -22 37 -154 31 -170 -4 -11 -3 -15 4
-11 6 4 14 0 17 -9 8 -22 8 -54 -1 -53 -5 1 -15 1 -23 0 -13 -1 -13 -2 0 -11
12 -8 12 -10 1 -10 -8 0 -11 -3 -7 -8 4 -4 16 -7 27 -7 10 0 18 -4 18 -9 0 -5
3 -12 8 -15 11 -8 34 -73 28 -80 -3 -2 -5 0 -5 6 0 7 -14 9 -35 6 -34 -5 -35
-4 -35 32 0 32 -3 36 -22 33 -14 -2 -22 -9 -20 -18 3 -12 1 -13 -10 -2 -8 8
-9 15 -3 20 6 4 11 13 13 21 3 12 0 12 -12 2 -13 -11 -17 -6 -26 30 -6 23 -9
50 -7 60 3 11 0 22 -7 27 -17 10 -40 97 -31 113 5 7 4 10 -2 6 -11 -7 -23 45
-23 101 0 17 -4 32 -9 32 -5 0 -8 24 -6 53 3 36 2 46 -5 32 -8 -19 -9 -18 -11
5 -1 14 -3 43 -4 66 -1 22 -4 45 -7 50 -3 5 -11 83 -18 174 -19 250 -2 641 35
830 8 41 17 91 20 110 9 57 17 94 23 105 3 5 7 20 8 33 2 13 9 31 16 40 7 9 8
13 2 9 -6 -3 -11 0 -11 7 0 8 6 12 13 9 18 -7 26 14 14 36 -7 14 -7 22 0 26 6
4 8 15 5 26 -5 15 -1 19 15 19 16 0 20 5 16 15 -3 8 -1 15 4 15 6 0 10 10 10
23 0 17 -2 19 -10 7 -5 -8 -12 -11 -17 -7 -8 9 17 28 28 21 4 -2 12 3 19 11 7
8 17 15 23 15 5 0 16 8 23 18 10 13 13 14 14 3 0 -11 4 -9 14 4 8 11 12 23 9
28 -4 7 14 37 23 37 1 0 -4 -24 -13 -52z m2965 3 c-18 -19 -34 -37 -34 -39 -1
-1 -1 9 -1 23 0 15 5 25 14 25 19 0 44 25 35 35 -4 5 -1 5 6 0 11 -5 6 -16
-20 -44z m-48 19 c0 -5 -5 -10 -11 -10 -5 0 -7 5 -4 10 3 6 8 10 11 10 2 0 4
-4 4 -10z m-3010 -3 c0 -7 -32 -67 -35 -67 -2 0 1 15 6 32 5 18 9 34 9 35 0 2
5 3 10 3 6 0 10 -2 10 -3z m63 -11 c4 -10 0 -12 -14 -9 -10 3 -16 9 -13 14 8
13 21 11 27 -5z m3617 -17 c0 -5 -5 -7 -12 -3 -7 4 -8 3 -4 -5 4 -6 11 -9 16
-6 9 6 64 -64 56 -72 -3 -3 -8 2 -12 11 -3 9 -12 16 -20 16 -8 0 -11 6 -8 15
4 10 0 15 -15 15 -12 0 -21 2 -21 4 0 2 -3 11 -6 20 -4 11 -1 16 10 16 9 0 16
-5 16 -11z m3415 -11 c6 -4 2 -8 -7 -8 -10 0 -18 7 -18 17 0 9 3 12 8 7 4 -5
12 -12 17 -16z m-4099 -18 c21 0 18 -9 -20 -50 l-34 -38 -48 51 c-27 27 -42
46 -34 41 8 -4 23 -18 32 -30 19 -23 65 -23 51 0 -4 7 -1 6 9 -1 20 -17 31 -5
13 14 -12 11 -12 17 -2 28 10 11 13 11 15 -1 2 -8 10 -14 18 -14z m650 -8 c-4
-3 -14 2 -24 12 -16 18 -16 18 6 6 13 -6 21 -14 18 -18z m564 13 c-6 -8 -9
-19 -5 -25 3 -5 -1 -10 -9 -10 -8 0 -18 -5 -21 -10 -4 -7 3 -9 21 -6 15 3 31
11 36 18 5 8 8 9 8 2 0 -6 -19 -24 -42 -40 -24 -16 -47 -34 -53 -40 -5 -5 -28
-23 -50 -39 -26 -19 -35 -23 -25 -10 35 46 49 57 62 50 10 -6 10 -5 1 5 -9 10
-2 24 35 66 25 30 48 54 50 54 3 0 -1 -7 -8 -15z m-1736 -27 c-3 -4 -1 -8 4
-8 6 0 13 -8 16 -17 6 -16 6 -16 -11 0 -10 9 -19 26 -20 39 -2 17 0 19 7 8 5
-8 6 -18 4 -22z m4636 -47 c0 -12 2 -13 8 -3 6 9 12 5 22 -13 7 -14 17 -25 22
-25 5 0 6 -5 3 -10 -4 -6 -4 -19 0 -28 6 -15 8 -15 15 3 8 19 9 19 9 1 1 -14
7 -17 25 -14 21 4 25 0 36 -46 26 -109 51 -223 55 -256 2 -19 11 -84 20 -143
16 -112 27 -245 19 -214 -3 10 -15 17 -29 17 -19 0 -23 4 -18 18 6 15 5 15
-11 3 -15 -13 -19 -13 -27 0 -7 11 -9 11 -9 -3 0 -30 -20 -20 -21 10 0 15 -2
38 -3 52 -2 14 -7 61 -11 105 -4 44 -10 84 -13 89 -3 5 0 6 6 2 7 -4 12 -1 12
8 0 9 -6 15 -12 14 -7 -2 -12 3 -10 10 1 6 -3 12 -9 12 -5 0 -8 4 -4 10 3 5
-1 37 -9 72 -10 42 -11 64 -4 67 6 2 5 7 -3 12 -12 7 -12 10 -1 18 11 6 11 11
-2 24 -20 20 -20 31 -1 23 8 -3 15 -1 15 4 0 6 -9 10 -20 10 -11 0 -20 3 -20
8 0 4 -4 24 -9 44 -5 22 -5 36 0 32 5 -3 9 -1 9 5 0 5 -5 11 -12 13 -10 4 -17
22 -43 118 -6 23 -5 23 9 -4 9 -15 16 -36 16 -45z m88 44 c-3 -3 -9 2 -12 12
-6 14 -5 15 5 6 7 -7 10 -15 7 -18z m-3908 10 c0 -1 -12 -12 -27 -26 -20 -17
-23 -18 -10 -3 9 11 15 23 12 26 -3 2 2 5 10 5 8 0 15 -1 15 -2z m1427 -10 c0
-8 -4 -12 -9 -9 -5 3 -6 10 -3 15 9 13 12 11 12 -6z m-1566 -34 c-12 -12 -21
-17 -21 -12 0 5 7 14 15 21 8 7 12 17 8 24 -4 8 -3 8 7 0 9 -10 8 -16 -9 -33z
m553 0 c-3 -3 -15 6 -27 18 l-22 24 27 -19 c14 -10 24 -21 22 -23z m1058 28
c2 -2 1 -3 -1 -2 -2 2 -9 -4 -15 -13 -10 -13 -12 -13 -13 4 -1 17 20 26 29 11z
m-2384 -26 c-6 -7 -12 -13 -13 -13 -2 0 -5 6 -8 13 -3 7 3 13 14 13 13 0 15
-3 7 -13z m1129 -15 c-3 -7 -5 -2 -5 12 0 14 2 19 5 13 2 -7 2 -19 0 -25z
m3699 5 c-10 -10 -19 5 -10 18 6 11 8 11 12 0 2 -7 1 -15 -2 -18z m-5924 7
l139 0 -33 -46 c-49 -69 -61 -74 -159 -74 -87 0 -87 0 -118 35 -17 19 -38 49
-47 67 l-16 31 47 -6 c26 -4 110 -7 187 -7z m1132 -7 c-2 -10 0 -31 5 -48 5
-16 10 -23 10 -14 1 10 9 16 18 15 10 0 18 5 18 13 0 8 6 16 14 19 16 5 15 3
-62 -106 -34 -47 -63 -79 -69 -76 -7 4 -8 2 -4 -4 9 -14 -62 -108 -78 -104 -6
2 -8 0 -4 -3 4 -4 -13 -32 -39 -62 -25 -29 -48 -51 -50 -49 -10 9 81 156 96
157 11 0 12 2 3 6 -6 2 -9 9 -6 15 3 5 15 2 27 -9 12 -10 19 -14 14 -9 -4 5 0
18 10 28 9 10 11 18 6 18 -6 0 -14 -8 -17 -17 -5 -11 -10 -13 -17 -6 -8 8 -1
28 22 69 18 33 42 76 53 98 50 92 59 105 50 69z m2384 -16 c6 -12 23 -42 37
-67 l27 -45 -46 50 c-25 28 -44 56 -41 64 3 9 0 11 -10 7 -15 -5 -21 5 -9 17
10 10 31 -3 42 -26z m1292 22 c0 -18 -21 -53 -53 -86 -31 -33 -32 -33 -123
-33 l-92 0 -41 58 -41 57 127 5 c71 3 149 7 176 8 28 1 47 -2 47 -9z m-6143
-21 c-3 -8 -6 -5 -6 6 -1 11 2 17 5 13 3 -3 4 -12 1 -19z m3851 -43 c39 -54
41 -62 5 -29 -16 14 -26 28 -25 31 2 3 0 9 -5 12 -4 3 -14 14 -22 24 -12 15
-12 17 0 12 8 -3 29 -26 47 -50z m-578 39 c0 -6 -221 -254 -227 -254 -5 0 105
208 120 228 5 6 15 12 21 12 6 0 3 -5 -8 -11 -14 -9 -16 -13 -5 -20 8 -4 19
-3 26 3 9 7 13 7 13 -1 0 -8 4 -8 14 1 8 7 12 16 9 21 -2 4 1 6 9 5 7 -2 12 3
11 10 -2 6 2 12 7 12 6 0 10 -3 10 -6z m4003 -21 c7 -36 0 -43 -12 -12 -5 13
-10 18 -10 10 -1 -8 -3 -12 -6 -9 -7 7 5 38 15 38 4 0 10 -12 13 -27z m-4913
-18 c-12 -13 -27 -22 -33 -18 -6 3 -7 2 -4 -4 9 -15 -144 -196 -155 -185 -11
11 9 57 65 156 31 54 67 90 67 68 0 -19 39 -20 56 -1 9 11 20 17 22 14 3 -3
-5 -16 -18 -30z m1982 18 c-7 -3 -22 -14 -33 -26 -10 -11 -19 -17 -19 -13 0
12 53 57 59 50 3 -4 0 -9 -7 -11z m-1004 -24 c-6 -16 -12 -28 -14 -26 -5 5 13
57 20 57 3 0 0 -14 -6 -31z m193 -10 c-5 -13 -10 -19 -10 -12 -1 15 10 45 15
40 3 -2 0 -15 -5 -28z m2939 21 c0 -5 -4 -10 -10 -10 -5 0 -10 5 -10 10 0 6 5
10 10 10 6 0 10 -4 10 -10z m-4250 -15 c-7 -9 -15 -13 -19 -10 -3 3 1 10 9 15
21 14 24 12 10 -5z m-153 -50 c0 -20 -4 -19 -17 5 -8 15 -8 18 3 14 8 -3 14
-11 14 -19z m2434 8 c13 -16 12 -17 -3 -4 -10 7 -18 15 -18 17 0 8 8 3 21 -13z
m-2363 -38 c-20 -18 -33 -37 -30 -41 4 -5 -1 -2 -10 5 -10 7 -18 19 -18 25 0
8 3 7 8 -1 8 -12 32 -3 35 13 1 5 5 8 9 7 5 -2 13 6 20 17 7 10 15 17 18 14 3
-3 -12 -21 -32 -39z m4342 31 c0 -11 -19 -15 -25 -6 -3 5 1 10 9 10 9 0 16 -2
16 -4z m-2957 -33 c-11 -29 -45 -83 -52 -83 -3 0 -12 -14 -20 -31 -7 -16 -15
-28 -17 -26 -5 5 54 137 61 137 2 0 2 -7 -1 -15 -4 -8 -3 -15 0 -15 4 0 11 11
16 25 5 14 12 25 14 25 3 0 2 -8 -1 -17z m867 3 c0 -2 -7 -9 -15 -16 -13 -11
-14 -10 -9 4 5 14 24 23 24 12z m40 -2 c0 -8 -19 -13 -24 -6 -3 5 1 9 9 9 8 0
15 -2 15 -3z m-734 -45 c29 -47 27 -60 -3 -25 -12 13 -19 27 -16 30 3 3 0 12
-7 21 -7 8 -10 15 -6 15 3 0 17 -18 32 -41z m-402 16 c-4 -8 -11 -15 -16 -15
-6 0 -5 6 2 15 7 8 14 15 16 15 2 0 1 -7 -2 -15z m1132 -7 c4 -7 4 -10 -1 -6
-4 4 -14 3 -22 -4 -11 -8 -12 -7 -7 6 7 19 20 21 30 4z m62 -33 c-3 -3 -9 2
-12 12 -6 14 -5 15 5 6 7 -7 10 -15 7 -18z m-1184 2 c3 3 6 1 6 -7 0 -10 3
-10 18 0 9 7 0 -4 -20 -24 -36 -35 -85 -50 -75 -23 2 6 14 11 26 10 16 -2 20
1 14 10 -4 6 -9 20 -10 30 -2 14 0 16 16 8 10 -6 21 -7 25 -4z m419 -39 c15
-11 27 -24 27 -30 0 -8 -63 34 -95 65 -14 13 34 -12 68 -35z m614 17 c-4 -8
-11 -15 -17 -15 -7 0 -7 6 0 21 13 23 26 19 17 -6z m124 8 c13 -16 12 -17 -3
-4 -10 7 -18 15 -18 17 0 8 8 3 21 -13z m30 -40 c13 -16 12 -17 -3 -4 -10 7
-18 15 -18 17 0 8 8 3 21 -13z m170 0 c13 -16 12 -17 -3 -4 -10 7 -18 15 -18
17 0 8 8 3 21 -13z m-87 -70 c3 -10 7 -22 8 -28 1 -5 14 -30 30 -54 28 -45 36
-67 20 -57 -10 6 -102 141 -102 150 0 14 39 4 44 -11z m154 -4 c19 -30 11 -32
-11 -3 -10 13 -14 24 -10 24 5 0 14 -9 21 -21z m-1780 -84 c37 -8 114 -21 172
-29 58 -9 123 -18 145 -21 22 -3 166 -8 320 -10 273 -4 484 8 618 34 29 6 77
14 107 20 30 5 62 12 70 15 11 5 23 -9 44 -51 47 -98 175 -320 276 -483 150
-240 187 -295 215 -321 27 -25 55 -66 37 -55 -12 7 -10 -20 3 -31 4 -4 5 -2 1
5 -4 6 -3 12 2 12 14 0 67 -72 67 -90 0 -8 5 -15 12 -15 21 0 26 -14 12 -32
-12 -16 -12 -17 2 -6 13 11 26 0 87 -68 42 -47 69 -85 66 -92 -4 -7 -4 -9 0
-5 4 3 16 -1 26 -10 18 -15 18 -16 2 -28 -14 -10 -15 -15 -4 -26 11 -11 12
-10 7 5 -5 13 -2 17 13 17 21 0 45 -22 37 -33 -3 -4 -2 -5 2 -2 3 3 12 0 19
-6 11 -9 10 -15 -3 -35 -12 -19 -13 -24 -3 -22 7 2 19 -8 27 -22 7 -14 13 -20
13 -14 0 7 9 14 19 17 17 4 19 1 16 -29 -4 -26 -2 -32 9 -28 8 3 12 12 9 20
-9 24 5 16 55 -31 l47 -45 -41 0 c-38 0 -47 6 -115 75 -41 42 -73 80 -71 86 1
6 -1 8 -6 5 -13 -8 -104 83 -96 96 4 6 3 8 -4 4 -13 -8 -119 102 -114 118 2 6
0 8 -4 3 -10 -10 -75 53 -67 66 3 6 1 7 -5 4 -5 -4 -22 8 -37 25 -15 18 -57
65 -94 103 -88 92 -134 152 -126 165 3 5 0 7 -8 4 -9 -3 -28 13 -50 43 -20 26
-61 82 -92 123 -36 48 -43 62 -20 38 19 -21 35 -34 35 -30 1 4 9 -3 19 -15 10
-12 21 -20 23 -17 3 2 11 -4 19 -13 13 -16 12 -17 -3 -4 -10 7 -18 10 -18 5 0
-18 16 -31 45 -39 28 -7 28 -8 8 -14 -17 -5 -20 -10 -13 -21 6 -10 10 -11 10
-3 0 8 10 4 26 -10 14 -12 29 -22 32 -21 4 0 12 -5 18 -10 14 -13 -3 -39 -19
-29 -6 3 -7 1 -3 -6 4 -6 11 -9 16 -6 5 3 10 0 13 -7 2 -7 3 -5 1 5 -2 16 0
16 14 5 47 -38 71 -62 67 -68 -3 -4 4 -15 15 -25 11 -10 20 -13 20 -8 0 6 -44
61 -97 122 -112 128 -242 288 -281 346 -15 22 -31 45 -37 51 -5 7 -28 35 -50
63 -25 32 -45 49 -54 46 -11 -4 -11 -2 -2 8 9 11 7 17 -6 28 -15 12 -16 12
-10 -4 4 -11 3 -16 -3 -12 -6 3 -10 1 -10 -5 0 -6 13 -19 30 -28 16 -9 30 -22
30 -29 0 -6 7 -18 15 -27 9 -8 22 -31 30 -50 8 -19 20 -40 27 -48 20 -21 41
-61 29 -53 -12 7 -127 157 -204 268 -31 43 -55 67 -68 67 -10 0 -19 -3 -19 -7
0 -12 101 -186 136 -234 19 -26 34 -52 34 -58 0 -6 3 -11 8 -11 4 0 23 -24 42
-52 19 -29 38 -57 42 -63 4 -5 24 -30 43 -53 19 -24 32 -48 29 -53 -3 -5 -1
-8 4 -7 11 4 182 -208 174 -216 -3 -3 -1 -6 5 -6 9 0 183 -194 183 -205 0 -3
-5 -5 -11 -5 -5 0 -7 5 -3 11 4 7 1 10 -7 7 -17 -6 -19 -39 -2 -55 16 -18 28
-16 14 1 -7 8 -8 16 -4 19 13 8 55 -12 48 -23 -4 -6 -11 -8 -16 -5 -5 4 -9 -1
-9 -9 0 -14 3 -14 20 -4 17 11 22 10 30 -2 5 -8 6 -19 3 -25 -4 -5 -3 -7 2 -3
10 10 56 -43 48 -55 -3 -6 -1 -7 5 -3 6 3 19 -5 30 -19 11 -13 50 -59 88 -101
38 -42 68 -81 66 -85 -1 -5 3 -8 9 -7 26 6 18 -20 -8 -27 -24 -6 -33 0 -76 47
-27 29 -69 73 -93 98 -24 25 -44 50 -44 55 0 6 -9 16 -20 23 -12 7 -18 18 -14
24 4 7 3 8 -4 4 -12 -7 -59 50 -54 66 1 5 -2 7 -7 4 -8 -5 -42 33 -66 73 -6
10 -4 12 6 6 12 -8 12 -6 1 8 -8 9 -12 24 -10 34 4 22 -27 58 -53 59 -10 1
-24 2 -30 3 -6 0 -9 10 -6 20 3 13 0 18 -8 15 -7 -3 -41 29 -76 73 -70 84
-179 229 -179 237 0 3 -10 16 -23 29 -12 14 -49 62 -82 108 -33 46 -91 127
-130 179 -38 52 -69 98 -67 102 1 5 -4 7 -11 5 -6 -1 -12 5 -12 14 0 32 -29
61 -57 57 l-27 -3 66 -115 c36 -63 101 -167 144 -231 44 -64 79 -127 79 -139
0 -11 4 -19 9 -15 5 3 13 0 17 -6 4 -8 3 -9 -4 -5 -7 4 -12 1 -12 -8 0 -8 -6
-17 -12 -19 -9 -4 -8 -6 2 -6 9 -1 21 4 26 9 15 15 115 -115 107 -137 -4 -10
-2 -14 4 -10 14 9 55 -42 46 -56 -3 -5 -2 -7 4 -4 5 3 20 -8 33 -25 12 -17 16
-27 9 -22 -8 4 2 -8 21 -27 49 -47 206 -249 202 -260 -1 -5 4 -8 10 -7 7 2 12
-5 12 -14 -1 -10 2 -15 7 -13 9 6 109 -114 109 -130 0 -7 -3 -6 -8 0 -10 15
-29 13 -44 -5 -11 -12 -11 -12 6 0 17 14 18 13 12 -8 -7 -22 -5 -23 34 -20 27
1 44 -3 50 -12 14 -23 2 -26 -16 -4 -10 12 -14 14 -11 4 3 -11 -3 -15 -25 -14
-21 1 -38 11 -61 40 -18 21 -25 34 -17 29 13 -7 13 -6 2 7 -15 18 0 34 21 22
6 -4 1 5 -12 19 -14 15 -29 27 -35 27 -7 0 -8 -3 -1 -8 13 -9 18 -42 7 -42 -5
0 -29 26 -53 57 -24 31 -56 70 -71 87 -31 34 -36 51 -13 42 8 -3 15 0 15 5 0
6 -9 9 -20 6 -16 -4 -30 8 -64 52 -25 32 -44 66 -43 76 1 10 -5 20 -13 22 -13
4 -13 3 0 -6 8 -5 12 -13 8 -16 -3 -3 -55 61 -115 142 -131 177 -129 174 -106
167 11 -3 10 0 -5 8 -12 8 -29 24 -38 36 -13 19 -14 26 -2 40 12 15 11 16 -4
4 -17 -14 -17 -14 -43 30 -5 9 -42 61 -80 115 -39 54 -91 130 -115 168 -77
122 -120 175 -140 175 -35 0 -33 -12 21 -107 62 -111 79 -146 73 -155 -4 -6
-3 -8 2 -5 6 3 16 -3 22 -14 12 -19 11 -19 -8 -9 -11 6 -20 7 -20 2 0 -4 12
-12 27 -18 22 -8 24 -11 11 -21 -12 -10 -21 -3 -54 40 -56 74 -86 126 -80 136
10 15 -5 41 -23 41 -14 -1 -13 -3 3 -15 11 -8 17 -17 14 -20 -3 -3 -13 2 -22
11 -12 11 -14 20 -7 27 7 7 0 24 -20 53 l-30 44 -64 0 c-74 0 -73 14 -10 -130
56 -126 140 -278 195 -351 26 -35 46 -66 44 -68 -2 -2 4 -10 14 -18 9 -8 11
-12 5 -8 -7 3 -13 0 -13 -7 0 -7 -7 -2 -16 10 -8 12 -20 19 -26 16 -6 -4 -9
-3 -6 2 3 5 -5 19 -17 32 l-22 23 5 -30 c4 -31 -5 -37 -43 -32 -5 1 -3 -4 5
-11 8 -7 16 -21 17 -32 2 -32 -22 5 -99 149 -43 79 -59 116 -38 82 6 -9 15
-15 21 -12 5 3 6 -1 3 -9 -4 -9 1 -18 10 -22 9 -3 14 -10 11 -14 -3 -5 9 -25
26 -44 17 -20 27 -36 23 -36 -5 0 -2 -4 6 -9 10 -7 18 -4 28 10 13 18 10 24
-31 68 -25 26 -53 63 -62 81 -13 26 -19 30 -27 19 -8 -11 -9 -10 -4 4 6 18
-36 92 -46 82 -2 -3 -5 1 -5 8 0 9 -74 140 -89 156 -8 9 -34 -23 -30 -36 4 -9
1 -11 -6 -7 -8 5 -9 2 -5 -9 4 -10 2 -16 -5 -14 -6 1 -13 -4 -16 -12 -3 -9 0
-11 8 -6 9 5 11 4 6 -4 -4 -6 -11 -9 -15 -6 -8 4 -19 -10 -75 -96 -15 -25 -15
-27 1 -40 9 -8 14 -9 10 -3 -4 7 2 23 13 36 11 14 16 29 12 33 -4 5 -1 5 5 1
10 -6 9 -15 -3 -44 -17 -42 -135 -252 -141 -252 -6 0 2 44 12 60 7 13 6 13 -7
2 -11 -9 -18 -10 -23 -2 -3 5 -1 10 4 10 6 0 10 3 10 8 -3 20 2 32 16 32 8 0
15 5 15 10 0 6 8 10 18 11 15 0 15 1 -2 8 -14 5 -16 10 -8 15 7 4 16 5 21 2 5
-4 7 3 4 14 -4 15 -1 19 9 15 22 -9 42 19 24 34 -11 9 -30 -11 -99 -107 -80
-111 -85 -121 -77 -153 4 -19 8 -28 9 -21 1 6 8 12 17 12 11 0 15 8 12 28 -1
15 -7 30 -13 34 -5 4 -6 11 -1 15 5 4 11 3 13 -4 2 -7 10 -10 17 -7 22 9 27
-27 9 -59 -10 -16 -26 -31 -36 -33 -11 -1 -22 -6 -25 -10 -4 -4 1 -4 11 -1 13
5 17 3 14 -5 -2 -7 -10 -12 -16 -10 -7 1 -10 -2 -6 -7 7 -12 -17 -50 -124
-201 -122 -173 -183 -250 -192 -244 -5 3 -8 1 -7 -3 4 -11 -82 -120 -99 -127
-8 -3 -13 3 -13 15 0 13 6 19 18 17 12 -2 17 3 16 18 0 16 4 20 18 16 16 -4
18 3 18 52 0 31 -4 56 -10 56 -5 0 -7 8 -3 18 3 9 4 15 2 12 -2 -3 -15 -18
-29 -34 -14 -16 -19 -26 -12 -22 7 4 12 1 12 -9 0 -12 -6 -15 -22 -9 -13 3
-20 3 -17 0 8 -9 -155 -168 -182 -178 -10 -4 -19 -4 -19 0 0 4 33 46 73 93 77
91 152 186 181 233 15 24 16 30 5 38 -11 8 -10 9 3 4 12 -3 22 2 29 16 8 15 8
18 0 14 -6 -4 -11 -3 -11 2 0 6 10 12 23 16 33 8 51 50 31 71 -9 8 -12 15 -7
15 5 0 14 -5 20 -11 8 -8 16 -4 28 14 9 15 14 31 11 36 -4 5 -2 12 4 16 5 3
10 1 10 -6 0 -17 29 22 30 39 0 7 -5 10 -11 6 -7 -4 -10 -1 -7 7 3 8 12 13 21
11 18 -3 48 35 41 53 -3 7 5 15 18 19 18 5 20 8 9 15 -10 7 -20 2 -34 -15 -10
-13 -23 -21 -29 -18 -7 4 -8 2 -4 -4 4 -6 13 -9 21 -5 32 12 13 -9 -20 -23
-36 -15 -44 -31 -24 -51 8 -8 8 -13 0 -17 -6 -4 -11 -3 -11 1 0 5 -9 9 -19 10
-24 2 -34 -22 -21 -48 7 -13 7 -19 0 -19 -5 0 -10 7 -10 15 0 20 -28 8 -36
-17 -3 -11 -8 -17 -11 -14 -7 7 -43 -38 -43 -53 0 -6 -9 -11 -21 -11 -14 0
-19 -5 -16 -14 4 -9 -3 -16 -18 -20 -14 -4 -29 -14 -34 -24 -13 -23 -131 -145
-131 -134 0 4 9 18 20 30 11 12 20 25 20 30 0 4 8 17 18 28 10 10 21 26 25 34
11 24 30 50 59 82 32 34 30 47 -7 41 -13 -3 -22 -9 -19 -14 3 -5 -2 -9 -10 -9
-9 0 -16 -4 -16 -9 0 -5 -31 -42 -70 -81 -38 -39 -70 -76 -70 -81 0 -6 -5 -7
-10 -4 -6 3 -13 0 -15 -8 -10 -25 -183 -198 -178 -177 3 12 20 36 37 53 17 18
48 53 68 77 20 25 47 57 60 72 50 57 59 70 68 94 5 13 16 24 24 24 9 0 13 7
11 20 -2 11 1 23 7 26 7 4 8 2 4 -4 -4 -7 -3 -12 3 -12 6 0 13 11 17 25 3 14
12 25 19 25 11 0 29 34 26 52 0 4 7 5 17 1 13 -5 15 -3 5 7 -16 17 -45 5 -41
-17 2 -13 -3 -18 -19 -17 -15 0 -20 -5 -18 -17 2 -12 -1 -16 -10 -13 -7 3 -25
-12 -41 -35 -16 -22 -35 -41 -42 -41 -7 0 -11 -4 -7 -9 3 -5 -3 -12 -12 -16
-10 -3 -36 -28 -58 -54 -71 -84 -139 -127 -78 -49 16 19 37 47 48 63 11 15 30
37 43 50 22 20 22 23 7 38 -12 13 -21 14 -36 7 -22 -12 -25 -26 -6 -34 6 -3 3
-5 -8 -3 -13 2 -37 -16 -70 -51 -145 -154 -276 -285 -267 -266 6 11 18 26 26
34 9 7 16 17 16 22 0 10 3 13 59 77 22 25 37 49 34 54 -3 6 -1 7 5 3 5 -3 24
11 40 31 23 30 27 42 19 55 -10 14 -12 14 -29 -7 -10 -13 -18 -30 -18 -39 0
-9 -4 -16 -10 -16 -5 0 -10 6 -10 12 0 7 -7 2 -16 -10 -8 -12 -12 -27 -8 -34
4 -6 3 -8 -4 -5 -5 4 -58 -41 -116 -100 -58 -59 -107 -105 -110 -102 -3 3 6
17 20 32 14 15 22 27 19 27 -3 0 -1 9 5 20 6 11 15 18 21 15 5 -4 9 -3 10 2 3
30 10 49 22 58 27 20 53 96 27 80 -5 -3 -6 -13 -3 -22 5 -12 2 -15 -10 -10
-15 6 -22 -3 -18 -25 0 -5 -6 -8 -14 -8 -8 0 -15 -7 -15 -15 0 -8 -5 -15 -11
-15 -14 0 -60 -36 -53 -42 2 -3 -8 -13 -23 -24 -15 -10 -41 -32 -57 -50 -18
-21 -34 -30 -44 -27 -10 4 -13 2 -8 -5 3 -6 -3 -16 -14 -22 -11 -6 -18 -16
-14 -22 4 -6 1 -9 -7 -6 -8 3 -21 -3 -29 -12 -8 -9 -42 -31 -75 -48 l-60 -33
40 43 c22 24 88 93 146 153 135 139 360 411 496 600 119 165 358 568 409 690
16 40 14 40 102 20z m3671 -109 c11 -14 6 -15 -27 -7 -4 1 8 21 12 21 2 0 9
-6 15 -14z m96 -102 c28 -23 65 -49 83 -58 17 -9 32 -21 32 -26 0 -19 -75 28
-135 85 -67 64 -57 64 20 -1z m-6065 8 c0 -4 -15 -16 -32 -26 l-33 -19 25 26
c25 26 40 33 40 19z m3215 -2 c-3 -5 -1 -10 4 -10 6 0 11 -5 11 -11 0 -8 -5
-8 -15 1 -13 11 -12 30 1 30 3 0 2 -4 -1 -10z m-2905 -90 c0 -5 -7 -10 -16
-10 -8 0 -12 5 -9 10 3 6 10 10 16 10 5 0 9 -4 9 -10z m5590 -4 c0 -3 -4 -8
-10 -11 -5 -3 -10 -1 -10 4 0 6 5 11 10 11 6 0 10 -2 10 -4z m-5690 -75 c14
-74 9 -177 -11 -246 l-12 -40 -15 35 c-25 62 -36 159 -22 215 15 64 30 105 40
105 4 0 13 -31 20 -69z m427 53 c-3 -3 -12 -4 -19 -1 -8 3 -5 6 6 6 11 1 17
-2 13 -5z m5260 -36 c-3 -7 -5 -2 -5 12 0 14 2 19 5 13 2 -7 2 -19 0 -25z
m-307 14 c0 -14 -39 -46 -47 -39 -3 4 2 16 12 27 19 21 35 26 35 12z m1062
-59 c-7 -36 -12 -27 -11 20 0 30 3 36 8 23 4 -11 6 -30 3 -43z m107 -160 c0
-98 -3 -170 -7 -161 -4 10 -6 -29 -6 -85 2 -103 -16 -302 -26 -302 -1 0 -3
-13 -5 -30 -2 -16 -6 -51 -9 -76 -7 -50 -78 -337 -95 -381 -6 -16 -9 -28 -7
-28 3 0 -5 -24 -15 -52 -11 -29 -22 -62 -24 -72 -3 -11 -10 -23 -16 -26 -6 -4
-9 -11 -7 -16 1 -5 -24 -10 -57 -12 -52 -2 -58 0 -42 12 19 15 24 31 6 20 -7
-4 -9 -2 -6 7 3 8 11 31 18 53 7 21 19 40 26 43 7 3 13 9 13 15 0 5 -4 7 -9 4
-5 -4 -4 10 2 29 6 19 14 35 19 35 5 0 6 4 3 10 -3 5 0 29 6 52 7 24 13 46 15
51 1 4 3 10 4 15 1 4 2 15 1 25 -1 9 2 17 7 17 6 0 9 8 8 17 -2 10 3 40 10 68
7 27 15 66 17 85 3 19 6 37 6 39 1 2 9 -3 19 -10 16 -13 16 -13 -1 7 -12 15
-15 30 -11 52 4 18 10 32 15 32 5 0 9 8 9 18 0 15 -2 15 -11 2 -8 -11 -9 -9
-3 10 8 29 12 54 13 92 1 21 5 26 21 23 11 -2 20 0 20 6 0 14 28 11 33 -3 3
-7 6 15 6 50 1 53 -2 62 -17 62 -10 0 -23 5 -29 11 -13 13 -12 -2 2 -35 4 -10
4 -21 -1 -25 -13 -9 -18 -44 -5 -36 6 3 11 1 11 -4 0 -6 -4 -11 -10 -11 -5 0
-13 -1 -17 -2 -3 -2 -5 31 -3 72 1 41 3 85 3 97 1 17 4 20 14 11 10 -8 10 -14
2 -24 -9 -11 -5 -14 20 -14 30 0 31 2 31 40 0 29 -4 40 -15 40 -10 0 -15 10
-15 30 0 20 5 30 15 30 8 0 15 5 15 10 0 6 10 10 23 10 23 0 24 1 24 118 2
151 2 162 8 162 3 0 5 -80 4 -177z m-107 -50 c2 -83 0 -149 -4 -146 -5 2 -8
72 -8 155 0 83 2 149 5 147 2 -3 6 -73 7 -156z m-3817 117 c-3 -5 -12 -10 -18
-10 -7 0 -6 4 3 10 19 12 23 12 15 0z m179 -345 c8 -55 22 -119 30 -143 9 -24
11 -40 6 -37 -6 3 -10 12 -10 20 0 8 -8 19 -17 24 -14 8 -15 11 -3 11 10 1 9
4 -5 10 -25 11 -41 12 -32 3 4 -3 2 -12 -5 -20 -6 -7 -8 -16 -5 -20 4 -3 3
-11 -2 -17 -5 -6 -22 -46 -39 -88 -39 -102 -108 -204 -196 -292 -66 -66 -169
-132 -188 -120 -4 3 20 33 55 68 142 142 250 332 308 540 28 101 59 281 59
341 0 17 3 35 8 39 4 4 10 -43 14 -105 4 -62 14 -158 22 -214z m186 249 c0 -8
7 -14 16 -14 8 0 13 -4 10 -9 -4 -5 0 -11 6 -14 7 -2 10 -8 5 -13 -10 -11 -46
27 -52 54 -2 13 0 20 6 17 5 -4 9 -13 9 -21z m290 1 c14 -19 14 -19 -2 -6 -10
7 -18 18 -18 24 0 6 1 8 3 6 1 -2 9 -13 17 -24z m-755 -65 c3 -5 -3 -10 -14
-10 -12 0 -21 5 -21 10 0 6 6 10 14 10 8 0 18 -4 21 -10z m1335 -40 c6 -11 9
-20 8 -20 -2 0 -11 9 -21 20 -9 11 -13 20 -7 20 5 0 14 -9 20 -20z m-667 -66
c14 -17 14 -21 2 -21 -8 0 -12 4 -9 8 2 4 0 10 -6 14 -5 3 -10 11 -10 17 0 6
1 9 3 7 1 -2 10 -13 20 -25z m-2299 -58 c20 -43 20 -59 0 -98 -16 -30 -17 -31
-30 -13 -22 30 -27 81 -13 115 8 16 17 30 20 30 4 0 14 -15 23 -34z m2186 14
c6 -11 8 -20 6 -20 -3 0 -10 9 -16 20 -6 11 -8 20 -6 20 3 0 10 -9 16 -20z
m2415 0 c-3 -5 5 -31 19 -57 14 -26 25 -42 26 -35 0 7 -7 24 -16 37 -9 14 -12
25 -8 25 5 0 2 4 -6 10 -8 5 -11 12 -7 16 4 4 8 5 10 3 1 -2 28 -32 59 -65
l57 -62 0 -286 0 -286 -68 0 -68 0 -6 98 c-6 83 -12 553 -8 605 0 10 6 15 11
12 6 -4 8 -10 5 -15z m-2254 -17 c13 -15 12 -15 -8 -4 -24 12 -29 21 -14 21 5
0 15 -7 22 -17z m1449 -19 c12 -30 4 -85 -15 -111 -13 -17 -14 -16 -24 10 -15
39 -14 90 1 81 7 -4 8 -3 4 5 -10 15 0 41 14 41 6 0 15 -12 20 -26z m-4711
-69 c17 -36 30 -73 29 -83 -3 -45 2 -62 22 -62 19 0 20 -7 20 -187 0 -189 -4
-233 -22 -233 -5 0 -6 5 -3 10 3 6 2 10 -4 10 -6 0 -8 37 -5 103 6 128 -5 222
-26 222 -8 0 -17 11 -20 24 -3 14 -5 -43 -5 -125 1 -82 -2 -166 -6 -187 -11
-61 -2 -78 37 -75 18 1 36 -1 40 -5 4 -4 -24 -7 -63 -7 l-70 0 -7 92 c-3 50
-6 181 -6 290 0 189 1 200 21 221 l21 22 -6 -22 c-4 -12 -3 -24 2 -27 6 -3 12
7 15 22 3 15 1 28 -3 30 -8 3 -3 32 5 32 1 0 16 -29 34 -65z m3323 -3 c-2 -2
7 -12 20 -22 13 -11 19 -19 14 -20 -4 0 1 -8 12 -17 12 -10 22 -24 24 -32 2
-8 17 -27 33 -42 27 -25 27 -27 8 -22 -12 3 -21 8 -20 12 1 3 -2 7 -6 8 -5 1
-16 10 -25 21 -16 18 -17 17 -19 -29 l-1 -49 33 0 c28 0 32 -3 28 -19 -3 -11
-14 -28 -24 -37 -18 -17 -20 -16 -33 2 -8 10 -12 22 -10 26 3 5 1 8 -4 8 -5 0
-12 9 -15 20 -3 11 -1 20 4 20 5 0 9 5 9 11 0 5 -4 8 -9 4 -13 -7 -31 27 -31
59 0 14 -4 26 -10 26 -5 0 -10 9 -10 20 0 11 5 20 10 20 15 0 12 39 -4 55 -7
8 -16 11 -20 8 -3 -4 -6 5 -6 18 0 23 2 22 28 -11 15 -19 26 -36 24 -38z
m-177 48 c-3 -5 -1 -10 4 -10 6 0 11 -7 11 -15 0 -9 7 -18 15 -21 8 -4 13 -10
10 -15 -3 -4 4 -13 15 -19 11 -6 19 -14 18 -18 -1 -4 3 -17 10 -29 7 -13 10
-23 8 -23 -10 0 -105 148 -99 154 10 9 15 7 8 -4z m320 -70 l30 -35 -28 25
c-16 14 -33 34 -39 45 -11 21 -10 20 37 -35z m-2263 -84 c-37 -78 -103 -166
-123 -166 -5 0 -18 -9 -29 -20 -11 -11 -28 -20 -38 -20 -10 0 -24 -6 -31 -12
-11 -10 -13 -10 -7 0 4 6 3 12 -3 12 -5 0 -12 -8 -14 -17 -3 -10 -2 5 0 32 10
90 76 195 147 232 37 19 130 52 135 47 2 -2 -14 -41 -37 -88z m3184 46 c33
-21 76 -58 96 -81 36 -42 84 -149 76 -171 -7 -21 -153 134 -201 213 -25 42
-43 77 -38 77 4 0 35 -17 67 -38z m-2243 -18 c-8 -22 -26 -16 -20 6 3 11 1 20
-5 20 -5 0 -6 5 -2 12 10 15 35 -19 27 -38z m3081 11 c25 -38 18 -125 -10
-125 -20 0 -34 33 -34 79 0 72 16 89 44 46z m-4835 -3 c12 -23 6 -102 -10
-116 -28 -28 -53 70 -29 115 13 24 26 24 39 1z m-821 -24 c114 -53 204 -190
247 -375 l13 -54 -42 6 c-69 10 -119 26 -161 50 -45 26 -81 62 -72 71 8 8 97
-13 133 -33 16 -8 40 -17 53 -19 22 -5 21 -1 -23 82 -25 47 -79 126 -118 176
-40 49 -71 92 -70 95 2 3 -2 10 -10 14 -25 16 2 9 50 -13z m2177 12 c-3 -5
-12 -7 -20 -3 -21 7 -19 13 6 13 11 0 18 -4 14 -10z m2201 -11 c2 -8 6 -25 9
-39 l7 -25 -21 25 c-11 14 -21 31 -21 38 0 7 -5 10 -12 6 -6 -4 -8 -3 -5 4 10
14 40 8 43 -9z m2107 -17 c-174 -230 -231 -317 -219 -329 3 -4 30 1 59 10 28
9 69 19 90 23 32 5 37 4 37 -14 0 -27 -119 -79 -222 -97 -38 -6 -38 -6 -38 27
1 18 8 51 16 73 8 22 17 51 20 65 3 13 9 27 13 30 4 3 18 27 31 53 29 63 116
152 172 177 64 29 74 25 41 -18z m-2500 -12 c16 -16 24 -30 19 -30 -6 0 -20
14 -32 30 -12 17 -20 30 -18 30 2 0 16 -13 31 -30z m-2688 -81 c3 -17 1 -18
-18 -8 -17 9 -16 6 6 -15 24 -22 26 -29 16 -48 -7 -13 -22 -33 -34 -45 l-22
-23 -3 73 c-1 39 -2 79 -1 87 1 8 1 23 2 33 0 9 4 17 9 17 5 0 7 8 5 18 -3 9
4 -2 16 -26 11 -24 22 -52 24 -63z m2401 76 c-2 -7 4 -18 14 -25 11 -8 17 -17
14 -21 -2 -4 5 -10 16 -14 22 -7 28 -25 8 -25 -13 1 -26 16 -61 71 -15 23 -15
26 -2 26 9 0 14 -6 11 -12z m-389 -17 c-3 -8 -6 -5 -6 6 -1 11 2 17 5 13 3 -3
4 -12 1 -19z m33 -62 c-1 -6 -6 -1 -13 12 -7 12 -17 19 -22 15 -4 -4 -5 -2 0
6 7 12 10 11 22 -4 7 -11 13 -24 13 -29z m743 -35 c-5 -7 -73 62 -73 73 0 6
17 -7 38 -29 21 -22 37 -42 35 -44z m-1583 48 c0 -6 -4 -7 -10 -4 -5 3 -10 11
-10 16 0 6 5 7 10 4 6 -3 10 -11 10 -16z m707 -1 c-3 -8 -6 -5 -6 6 -1 11 2
17 5 13 3 -3 4 -12 1 -19z m41 -41 c4 6 8 -15 10 -47 1 -32 9 -74 18 -95 8
-20 11 -34 6 -31 -5 3 -10 -28 -11 -71 -2 -105 -11 -106 -11 -2 -1 46 -5 116
-11 154 -5 39 -11 86 -13 105 -2 19 -1 22 1 6 3 -16 8 -25 11 -19z m1982 1
c24 -53 25 -95 3 -150 -22 -58 -47 -75 -57 -40 -4 14 -5 14 -4 -3 1 -42 -2
-56 -12 -50 -17 11 -32 87 -25 135 6 41 57 150 71 150 3 0 14 -19 24 -42z
m-1294 -5 c-7 -7 -26 7 -26 19 0 6 6 6 15 -2 9 -7 13 -15 11 -17z m-583 2 c4
-8 2 -17 -2 -20 -5 -2 -11 4 -14 15 -6 23 8 27 16 5z m470 -75 c5 -8 -6 3 -26
25 -20 22 -36 46 -37 54 0 8 12 -4 26 -25 15 -21 31 -46 37 -54z m-2713 27
c51 -40 120 -134 120 -164 0 -27 -48 -26 -84 2 -47 36 -130 206 -100 205 5 -1
34 -20 64 -43z m2080 -92 l-7 -130 -1 101 c-2 85 5 173 13 162 1 -2 -2 -61 -5
-133z m809 61 c0 -6 -3 -6 -6 2 -2 6 -9 12 -15 12 -6 0 -17 8 -24 18 -23 30
-15 33 16 5 17 -14 30 -31 29 -37z m111 54 c0 -5 -2 -10 -4 -10 -3 0 -8 5 -11
10 -3 6 -1 10 4 10 6 0 11 -4 11 -10z m-2064 -25 c-8 -8 -18 -15 -22 -15 -3 0
-1 7 6 15 7 8 17 15 22 15 5 0 3 -7 -6 -15z m-757 -119 c-23 -21 -23 -21 -6 0
9 11 18 38 19 60 l1 39 4 -39 c4 -31 0 -43 -18 -60z m2144 42 c17 -22 23 -39
17 -43 -6 -4 -9 -1 -8 7 2 8 -7 13 -22 14 -51 1 -60 4 -60 19 0 8 4 15 9 15 5
0 11 10 15 22 6 24 7 24 49 -34z m-2758 -25 c9 -31 15 -67 12 -80 -2 -13 -3
-23 -1 -23 2 0 20 17 39 38 29 32 115 81 115 66 0 -3 -9 -21 -19 -42 -31 -60
-136 -145 -174 -140 -19 3 -22 10 -23 48 -3 84 -4 91 -14 85 -6 -4 -7 2 -1 17
9 22 44 88 48 88 1 0 9 -26 18 -57z m3185 35 c0 -6 -6 -5 -15 2 -8 7 -15 14
-15 16 0 2 7 1 15 -2 8 -4 15 -11 15 -16z m171 5 c13 -16 12 -17 -3 -4 -10 7
-18 15 -18 17 0 8 8 3 21 -13z m-2021 3 c0 -11 -19 -15 -25 -6 -3 5 1 10 9 10
9 0 16 -2 16 -4z m3824 -90 c9 -30 16 -77 16 -104 l0 -50 -102 4 c-57 3 -132
6 -168 8 -43 1 -64 6 -63 14 2 6 -3 9 -11 6 -7 -3 -19 2 -26 11 -10 13 -9 15
6 15 26 0 176 -18 222 -26 l37 -7 -50 34 c-34 23 -59 51 -78 87 -18 32 -24 52
-16 52 23 0 97 -50 122 -81 l24 -31 7 55 c3 31 11 68 17 84 l11 28 18 -23 c10
-12 26 -47 34 -76z m-4549 75 c3 -5 2 -12 -3 -15 -5 -3 -9 1 -9 9 0 17 3 19
12 6z m2051 -6 c-3 -8 -1 -15 5 -15 6 0 9 -6 6 -14 -7 -19 31 -68 45 -60 7 4
8 2 4 -5 -9 -14 24 -49 74 -80 19 -11 31 -21 26 -21 -5 0 -3 -7 4 -15 11 -13
-3 -15 -116 -14 -96 1 -119 3 -89 10 22 4 65 9 95 10 l55 2 -45 7 c-25 4 -39
8 -32 8 6 1 12 9 12 18 0 8 5 12 10 9 6 -4 8 -10 6 -14 -3 -4 4 -7 14 -8 17
-2 17 0 -3 20 -12 12 -32 33 -45 47 -18 20 -21 21 -15 5 6 -17 5 -18 -9 -5
-10 9 -12 17 -6 21 14 9 1 29 -20 30 -11 0 -12 2 -4 6 9 3 11 16 6 39 -5 28
-3 34 11 34 11 0 15 -5 11 -15z m853 -19 c-3 -3 -11 5 -18 17 -13 21 -12 21 5
5 10 -10 16 -20 13 -22z m1166 -3 c-31 -75 -93 -133 -142 -133 -24 0 -24 1 13
42 67 71 126 128 136 128 4 0 1 -17 -7 -37z m-1469 2 c9 -8 12 -15 7 -15 -4 0
-3 -4 2 -8 6 -4 17 -16 25 -27 14 -19 14 -19 -3 -6 -21 17 -61 71 -52 71 4 0
13 -7 21 -15z m189 -15 c10 -11 14 -20 9 -20 -5 0 -15 9 -22 20 -7 11 -11 20
-9 20 2 0 12 -9 22 -20z m-596 -23 c8 -10 7 -14 -2 -14 -8 0 -14 6 -14 14 0 7
1 13 2 13 2 0 8 -6 14 -13z m765 -16 c-2 -3 -12 3 -22 13 -16 17 -16 18 5 5
12 -7 20 -15 17 -18z m-2951 4 c-3 -9 -8 -14 -10 -11 -3 3 -2 9 2 15 9 16 15
13 8 -4z m2844 -42 c-8 -7 -37 9 -31 19 3 5 12 4 20 -3 8 -6 13 -14 11 -16z
m1045 -15 c-6 -6 -7 0 -4 19 5 21 7 23 10 9 2 -10 0 -22 -6 -28z m-1212 2 c6
-11 8 -20 6 -20 -3 0 -10 9 -16 20 -6 11 -8 20 -6 20 3 0 10 -9 16 -20z m-605
-10 c-3 -5 -12 -10 -18 -10 -7 0 -6 4 3 10 19 12 23 12 15 0z m186 -7 c13 -16
12 -17 -3 -4 -10 7 -18 15 -18 17 0 8 8 3 21 -13z m618 -7 c18 -20 20 -24 7
-29 -9 -3 -18 -1 -22 5 -4 7 -3 8 4 4 7 -4 12 -3 12 2 0 6 -7 12 -15 16 -8 3
-15 10 -15 16 0 15 4 13 29 -14z m-1738 -9 c-10 -9 -11 -8 -5 6 3 10 9 15 12
12 3 -3 0 -11 -7 -18z m1879 8 c7 -9 8 -15 2 -15 -5 0 -12 7 -16 15 -3 8 -4
15 -2 15 2 0 9 -7 16 -15z m-2110 -110 c0 -36 -6 -51 -32 -81 l-33 -37 58 6
c35 3 75 16 102 31 43 26 46 26 251 26 178 0 205 -2 195 -14 -7 -8 -32 -23
-57 -33 -24 -10 -44 -21 -44 -24 0 -17 54 -17 120 0 70 19 100 19 100 0 0 -5
5 -8 12 -7 7 2 18 -15 26 -37 13 -35 13 -45 -1 -77 l-16 -37 -193 -1 c-106 -1
-237 -4 -290 -8 -54 -4 -98 -4 -98 -1 0 4 -30 6 -67 5 -54 -1 -67 -4 -65 -16
2 -11 -1 -11 -11 3 -8 9 -20 17 -28 16 -10 0 -11 -2 -1 -6 6 -2 9 -9 6 -15 -3
-5 3 -12 15 -15 12 -3 21 -12 21 -19 0 -19 -7 -18 -33 7 -32 31 -80 49 -129
49 -31 0 -55 9 -85 29 -36 24 -57 30 -133 36 -49 4 -115 4 -147 1 -32 -3 -130
-8 -218 -12 -88 -4 -170 -10 -183 -15 -15 -6 -21 -5 -17 1 3 6 12 10 20 10 8
0 17 5 21 11 5 8 -6 9 -37 4 -55 -9 -63 -14 -50 -29 6 -7 8 -16 4 -19 -3 -4
-1 -7 5 -7 6 0 13 8 15 18 4 16 5 16 6 -1 0 -10 -6 -20 -14 -24 -20 -7 -44 24
-38 48 4 13 -2 19 -24 22 -15 2 38 5 119 6 81 0 159 6 175 12 27 10 27 11 9
25 -16 11 -61 14 -212 14 -117 0 -194 4 -196 10 -2 6 -22 4 -51 -5 -38 -11
-91 -13 -255 -9 -114 3 -223 7 -242 8 -39 4 -221 -21 -256 -34 -12 -5 -24 -17
-27 -27 -2 -10 -3 -5 0 12 l3 29 -20 -22 c-11 -11 -20 -27 -20 -34 0 -9 3 -9
10 2 7 11 10 4 9 -25 0 -22 -3 -34 -6 -27 -2 6 -9 10 -14 6 -5 -3 -9 39 -9 99
0 101 1 105 23 110 12 3 352 6 755 6 650 2 732 0 732 -13 0 -8 -9 -20 -20 -26
-30 -16 -15 -30 34 -30 34 0 50 7 83 35 l41 35 156 0 c155 0 156 0 172 25 12
19 15 41 12 86 l-4 62 33 -36 c27 -30 33 -45 33 -82z m1826 77 c-4 -3 -14 2
-24 12 -16 18 -16 18 6 6 13 -6 21 -14 18 -18z m-3104 -1 c-4 -10 -1 -12 8 -6
9 5 11 4 6 -4 -4 -6 -12 -9 -17 -6 -5 4 -9 1 -9 -5 0 -6 -4 -8 -10 -5 -5 3
-10 1 -10 -4 0 -7 -55 -11 -162 -11 -89 0 -159 3 -155 6 3 3 33 6 67 5 38 0
59 3 55 9 -8 12 6 17 69 23 30 3 43 1 35 -4 -8 -5 -34 -9 -58 -9 -52 0 -48
-12 7 -17 40 -5 107 5 99 14 -13 12 20 32 49 31 24 -1 30 -6 26 -17z m1478 -7
c0 -8 -19 -13 -24 -6 -3 5 1 9 9 9 8 0 15 -2 15 -3z m1743 -11 c-2 -7 5 -13
14 -13 9 0 14 -2 11 -5 -8 -8 -88 18 -88 28 0 5 15 7 33 5 19 -2 31 -8 30 -15z
m-533 1 c0 -8 -19 -13 -24 -6 -3 5 1 9 9 9 8 0 15 -2 15 -3z m610 -8 c9 -12 8
-15 -9 -13 -11 1 -23 7 -25 14 -7 18 19 16 34 -1z m-1850 -11 c0 -2 -9 -3 -19
-2 -11 0 -18 5 -15 9 4 6 34 0 34 -7z m-647 -2 c-35 -2 -91 -2 -125 0 -35 2
-7 3 62 3 69 0 97 -1 63 -3z m285 0 c-10 -2 -26 -2 -35 0 -10 3 -2 5 17 5 19
0 27 -2 18 -5z m1094 0 c-51 -2 -132 -2 -180 0 -48 1 -6 3 93 3 99 0 138 -2
87 -3z m1765 -5 c14 -17 27 -106 14 -93 -5 6 -11 19 -13 30 -2 11 -11 21 -21
23 -21 4 -23 -34 -4 -81 l14 -32 -211 3 c-243 3 -276 6 -331 32 l-40 18 195 1
c204 1 303 8 295 22 -8 12 14 62 32 77 9 6 27 12 39 12 12 0 26 -6 31 -12z
m-612 -138 c41 -28 87 -51 102 -51 l28 -1 -30 -8 c-16 -4 -23 -8 -14 -9 9 0
22 -8 29 -16 11 -13 15 -13 21 -3 6 9 9 6 9 -9 0 -21 5 -23 59 -23 38 0 61 -4
63 -12 4 -10 17 -10 64 0 33 6 123 12 200 12 99 1 134 4 122 11 -25 14 -22 24
7 24 17 0 25 -5 25 -17 0 -10 5 -18 10 -18 6 0 10 5 10 10 0 6 9 10 20 10 12
0 20 7 20 16 0 19 24 44 42 44 7 0 20 5 28 11 12 9 11 10 -8 6 -15 -4 -28 2
-42 20 -43 55 -72 53 609 53 346 0 636 -3 645 -6 18 -7 20 -45 9 -156 -6 -67
-6 -68 -34 -68 -24 0 -29 4 -29 24 0 14 -4 28 -10 31 -5 3 -10 2 -10 -3 0 -5
-10 -8 -22 -8 -14 1 -23 -5 -23 -14 0 -9 -8 -14 -20 -13 -11 2 -56 6 -100 9
-97 7 -109 14 -29 15 42 1 52 3 34 8 -16 5 14 10 88 15 120 8 136 18 83 49
-33 20 -88 21 -181 6 -36 -6 -90 -14 -120 -18 -45 -5 -55 -9 -53 -24 1 -12 -4
-17 -14 -13 -8 3 -20 6 -26 6 -6 0 0 11 13 25 l23 25 -79 2 c-43 0 -118 2
-166 2 -47 1 -90 4 -94 9 -4 4 -12 7 -18 7 -6 -1 -2 -8 9 -18 11 -9 20 -24 20
-32 0 -12 20 -16 108 -18 l107 -3 0 -29 0 -28 -112 0 c-62 1 -117 4 -123 8 -5
4 -44 18 -85 31 -62 19 -98 23 -207 23 -72 1 -129 -2 -126 -6 2 -5 -1 -8 -6
-8 -6 0 -11 -7 -11 -15 0 -11 13 -15 53 -15 53 0 88 -13 74 -27 -5 -4 -13 -1
-18 7 -8 11 -12 12 -16 2 -2 -6 -8 -10 -12 -8 -4 3 -178 6 -386 7 l-378 1 -24
24 c-50 50 -110 67 -133 39 -7 -8 -17 -12 -22 -9 -6 4 -6 -1 1 -13 7 -14 7
-23 -1 -31 -16 -16 -3 -15 32 3 37 19 64 11 49 -16 -14 -28 -72 -25 -99 4 -16
16 -20 30 -16 55 4 26 2 32 -14 32 -21 0 -50 -36 -50 -62 0 -10 -4 -18 -10
-18 -5 0 -10 14 -10 30 0 29 -2 30 -44 30 -44 0 -74 19 -61 40 3 5 1 10 -4 10
-6 0 -11 -11 -11 -24 0 -23 -2 -24 -118 -28 -94 -3 -125 -8 -152 -24 -40 -23
-50 -44 -21 -44 11 0 23 -5 27 -12 4 -6 3 -8 -3 -5 -5 3 -40 8 -77 11 -68 6
-95 21 -96 54 0 17 50 15 74 -3 26 -19 26 -19 60 10 16 14 25 25 21 25 -4 0 0
10 11 23 l19 22 -22 -18 c-15 -13 -23 -15 -28 -7 -21 34 -85 27 -85 -9 0 -12
-7 -17 -22 -16 -34 2 -36 47 -4 73 25 19 82 20 70 1 -3 -5 3 -6 12 -2 11 4 22
-1 30 -12 8 -10 14 -14 14 -8 0 7 12 8 38 2 49 -11 189 -12 177 0 -6 5 -53 18
-105 29 -52 11 -108 26 -125 33 l-30 12 25 7 c14 5 137 8 273 9 l248 1 74 -50z
m-4618 -73 c17 -58 9 -58 -11 -1 -18 53 -19 61 -9 50 4 -4 13 -26 20 -49z
m4856 16 c-7 -2 -19 -2 -25 0 -7 3 -2 5 12 5 14 0 19 -2 13 -5z m-4746 -35
c-3 -8 -6 -5 -6 6 -1 11 2 17 5 13 3 -3 4 -12 1 -19z m1350 -4 c-3 -3 -12 -4
-19 -1 -8 3 -5 6 6 6 11 1 17 -2 13 -5z m2007 -36 c49 -57 47 -85 -4 -58 -24
13 -71 80 -64 92 11 17 34 6 68 -34z m306 37 c0 -2 -7 -23 -16 -45 -15 -38
-67 -80 -81 -66 -19 18 51 116 83 116 8 0 14 -2 14 -5z m-3641 -58 c1 -5 -3
-6 -8 -2 -5 3 -12 1 -16 -5 -11 -17 -82 -12 -89 6 -5 13 -3 14 6 7 16 -13 80
-15 73 -2 -4 5 -1 9 4 9 6 0 10 3 10 8 -1 4 -1 12 1 17 1 10 18 -22 19 -38z
m749 37 c12 -4 22 -10 22 -14 0 -5 -10 -6 -22 -2 -14 3 -19 1 -14 -6 10 -16
55 -11 49 5 -3 8 2 13 13 12 11 0 14 -3 7 -5 -7 -3 -10 -11 -7 -19 4 -9 -6
-13 -38 -12 -24 0 -66 -3 -94 -7 -42 -6 -52 -5 -57 8 -4 9 -1 16 6 17 7 0 -1
7 -18 14 -28 13 -26 14 50 14 44 1 90 -2 103 -5z m137 -28 c0 -19 -3 -32 -7
-29 -14 8 -8 63 6 63 1 0 1 -15 1 -34z m5206 2 c11 -18 -1 -38 -22 -38 -16 0
-39 33 -39 57 0 9 54 -8 61 -19z m137 15 c-10 -2 -26 -2 -35 0 -10 3 -2 5 17
5 19 0 27 -2 18 -5z m-5671 -39 c-3 -3 -12 -4 -19 -1 -8 3 -5 6 6 6 11 1 17
-2 13 -5z m770 0 c-3 -3 -12 -4 -19 -1 -8 3 -5 6 6 6 11 1 17 -2 13 -5z m4196
-1 c-7 -2 -19 -2 -25 0 -7 3 -2 5 12 5 14 0 19 -2 13 -5z m-1520 -10 c-7 -2
-21 -2 -30 0 -10 3 -4 5 12 5 17 0 24 -2 18 -5z m-1484 -25 c-2 -2 -19 -11
-37 -22 -34 -18 -34 -18 -23 2 6 11 21 22 33 24 22 4 36 1 27 -4z m-2669 -42
c11 -19 29 -37 38 -40 9 -3 549 -5 1200 -4 l1182 0 35 -26 c21 -17 39 -41 46
-66 10 -33 18 -42 48 -50 48 -13 78 -13 87 2 4 7 7 33 5 58 -4 87 -243 79
2310 85 1594 4 2267 9 2276 17 7 6 13 21 13 34 l0 24 462 -2 c424 -3 463 -4
466 -20 2 -9 -50 -99 -114 -200 -65 -101 -168 -263 -230 -361 l-112 -179 40
-61 c76 -118 269 -413 339 -519 39 -59 68 -112 64 -118 -8 -14 -741 -14 -750
0 -4 7 -576 10 -1683 10 l-1677 0 -1 103 c0 108 -18 176 -67 249 -18 27 -22
44 -19 94 l4 62 161 4 c139 4 170 8 220 27 79 31 120 70 159 149 29 58 33 77
33 142 -1 98 -25 167 -80 228 -46 51 -122 92 -205 111 -25 6 -158 9 -305 8
l-260 -2 -3 -26 c-2 -19 4 -31 22 -43 25 -16 26 -20 26 -122 l0 -105 -45 31
c-99 68 -230 109 -347 110 -58 0 -58 0 -58 31 0 21 9 39 31 58 19 17 29 36 27
47 -3 17 -15 19 -129 22 l-126 3 -169 -201 c-93 -110 -174 -199 -181 -198 -6
2 -84 91 -173 198 l-162 195 -116 5 c-85 4 -120 2 -133 -8 -27 -18 -24 -32 13
-63 l33 -26 -4 -384 c-3 -363 -4 -384 -22 -397 -34 -24 -42 -49 -20 -71 17
-17 35 -19 144 -20 172 -2 218 20 164 77 -24 27 -25 29 -29 235 -3 114 -2 207
1 207 8 0 47 -44 188 -212 63 -76 119 -138 123 -138 5 0 19 15 31 33 37 51
260 317 267 317 4 0 6 -93 4 -207 l-4 -208 -29 -27 c-16 -15 -29 -30 -29 -34
0 -18 36 -44 60 -44 27 0 28 -1 33 -82 3 -46 8 -93 12 -105 l7 -23 -1603 -5
c-882 -2 -1775 -7 -1983 -10 -209 -3 -383 -2 -387 2 -4 5 16 44 44 88 99 155
271 421 334 518 l65 98 -53 82 c-29 45 -109 170 -177 277 -151 234 -232 368
-232 380 0 4 6 11 13 13 6 3 204 6 439 6 l426 1 22 -34z m2567 2 c-3 -8 -6 -5
-6 6 -1 11 2 17 5 13 3 -3 4 -12 1 -19z m1673 -483 c91 -47 77 -182 -21 -200
-19 -3 -83 -5 -144 -3 l-110 3 -3 102 -3 102 103 4 c57 1 113 4 126 5 13 1 36
-5 52 -13z m-879 -45 c45 -26 86 -65 123 -117 39 -55 44 -73 21 -73 -26 0 -97
-40 -150 -84 -27 -24 -56 -46 -62 -50 -10 -6 -13 33 -13 178 l0 186 28 -12
c15 -7 39 -19 53 -28z m300 -107 c82 -81 123 -154 139 -246 17 -94 -6 -277
-33 -260 -6 3 -7 1 -3 -6 10 -16 -3 -53 -16 -45 -7 4 -8 2 -4 -5 10 -16 -3
-53 -17 -49 -7 2 -34 27 -62 56 -37 40 -46 55 -36 62 8 4 10 13 6 21 -6 8 -4
11 7 7 9 -4 15 0 15 8 0 8 -6 14 -12 14 -15 0 -37 -25 -30 -32 3 -3 -26 -37
-64 -77 -54 -55 -75 -85 -92 -132 -12 -33 -26 -56 -30 -52 -5 5 -13 31 -18 58
-5 27 -14 51 -20 53 -19 6 -12 22 9 22 12 0 20 7 20 16 0 20 58 79 88 88 30
10 63 56 109 151 35 74 38 86 38 170 0 94 -8 120 -62 208 -35 57 -8 45 68 -30z
m-145 -254 c-8 -51 -43 -112 -117 -206 -87 -110 -114 -172 -114 -263 0 -80 17
-137 41 -137 7 0 14 6 14 14 0 7 -4 13 -10 13 -5 0 -10 7 -10 15 0 8 5 15 10
15 6 0 10 15 9 33 -1 30 -1 31 -9 7 -4 -14 -9 -18 -10 -10 -1 11 -4 9 -10 -5
-5 -11 -9 -14 -9 -7 -1 16 21 55 37 65 6 4 12 16 12 25 0 9 4 22 8 29 4 6 7
-28 7 -75 1 -96 25 -165 79 -229 l28 -33 -30 0 c-48 0 -151 76 -189 139 -97
161 -43 392 130 560 43 41 111 88 131 90 5 1 6 -18 2 -40z m417 -438 c2 -77
-24 -178 -43 -166 -5 3 -20 -19 -35 -49 -27 -55 -68 -105 -51 -61 34 83 39
152 15 198 -8 14 -8 18 0 13 6 -4 11 -2 11 3 0 6 -4 11 -9 11 -5 0 -16 11 -25
24 -12 19 -13 27 -3 32 6 4 9 4 5 -1 -10 -10 19 -38 32 -30 5 3 10 19 10 35 0
32 19 80 31 80 4 0 13 -8 18 -17 9 -16 10 -15 11 8 0 14 3 29 7 33 13 12 24
-35 26 -113z m-291 -66 c29 -87 37 -101 42 -80 11 42 23 28 35 -38 7 -43 8
-73 0 -100 -12 -46 -58 -100 -99 -117 -26 -11 -35 -9 -77 15 -27 16 -50 29
-52 31 -2 2 3 12 12 22 15 17 15 22 0 75 -13 49 -14 66 -4 111 10 47 86 186
101 186 3 0 22 -47 42 -105z m240 -137 c-7 -7 -12 -8 -12 -2 0 14 12 26 19 19
2 -3 -1 -11 -7 -17z m3569 -80 l20 -28 -517 0 c-285 0 -515 3 -512 6 3 3 203
6 444 6 242 0 433 3 427 5 -7 3 -13 13 -13 24 0 10 -6 19 -12 19 -9 0 -8 4 2
10 13 8 13 10 -2 10 -9 0 -19 -6 -22 -12 -5 -10 -7 -10 -12 0 -4 9 -47 12
-172 10 -152 -2 -158 -2 -72 -8 l95 -7 -112 0 c-62 0 -113 3 -113 8 0 13 -352
11 -370 -2 -11 -7 14 -9 85 -6 55 3 88 3 73 0 -19 -3 -28 -10 -28 -24 0 -17
-7 -19 -71 -19 -63 0 -70 2 -65 18 5 15 5 15 -6 1 -7 -9 -21 -16 -31 -16 -14
0 -11 7 15 34 l32 33 440 2 c492 3 442 10 497 -64z m-7556 52 c-3 -5 -1 -10 4
-10 6 0 11 5 11 10 0 6 7 10 16 10 14 0 14 -3 3 -16 -8 -10 -21 -13 -37 -9
-17 4 -22 2 -16 -6 4 -8 3 -9 -5 -5 -9 6 -9 11 0 22 13 16 33 19 24 4z m293 3
c-10 -2 -26 -2 -35 0 -10 3 -2 5 17 5 19 0 27 -2 18 -5z m544 -40 l42 -43
-469 0 c-257 0 -466 2 -463 5 3 3 167 6 364 7 197 1 341 3 319 5 -72 8 -63 23
13 23 41 0 72 -4 72 -10 0 -5 7 -10 15 -10 8 0 15 9 15 19 0 11 6 22 13 24 6
3 -89 6 -213 7 -136 1 -215 5 -200 10 14 5 120 8 237 8 l212 -1 43 -44z m-739
20 c-7 -2 -21 -2 -30 0 -10 3 -4 5 12 5 17 0 24 -2 18 -5z m200 0 c-7 -2 -19
-2 -25 0 -7 3 -2 5 12 5 14 0 19 -2 13 -5z m6665 0 c-10 -2 -28 -2 -40 0 -13
2 -5 4 17 4 22 1 32 -1 23 -4z m-6335 -10 c-24 -2 -62 -2 -85 0 -24 2 -5 4 42
4 47 0 66 -2 43 -4z m-673 -17 c0 -2 -8 -10 -17 -17 -16 -13 -17 -12 -4 4 13
16 21 21 21 13z m7185 -6 c4 -6 -23 -10 -74 -10 -47 0 -81 4 -81 10 0 6 31 10
74 10 41 0 78 -4 81 -10z m-3813 -13 c14 -14 104 -69 198 -120 61 -33 98 -57
88 -57 -3 0 -22 -7 -43 -16 -20 -8 -34 -11 -31 -6 7 11 -37 32 -68 32 -12 0
-31 7 -42 16 -18 15 -18 15 3 5 37 -18 40 -12 5 9 -18 11 -44 21 -57 22 -13 1
-22 5 -19 9 5 9 -24 22 -58 26 -38 4 -28 -16 27 -50 25 -16 48 -34 52 -40 5
-9 3 -9 -8 -2 -8 6 -34 24 -59 40 -25 17 -47 33 -48 38 -2 4 -8 5 -13 1 -17
-10 -9 12 21 59 33 52 33 52 52 34z m800 -14 c24 -25 48 -71 48 -92 0 -4 -12
-14 -27 -22 -16 -8 -68 -40 -116 -73 -48 -32 -90 -56 -93 -54 -2 3 24 24 58
46 79 52 155 118 146 127 -3 4 -34 -12 -67 -34 -64 -44 -76 -48 -87 -29 -5 7
-3 8 6 3 8 -5 11 -4 7 1 -3 6 8 16 24 23 17 7 28 15 25 18 -2 3 -64 -29 -138
-70 -242 -135 -273 -152 -298 -163 -29 -13 -291 -172 -303 -183 -9 -9 9 -56
32 -85 9 -11 11 -16 4 -13 -6 4 -13 1 -16 -5 -9 -27 -76 57 -90 112 -5 22 1
30 51 62 31 20 102 60 157 89 121 63 580 324 615 350 32 24 32 24 62 -8z
m-2925 -153 c17 0 23 -4 20 -13 -4 -10 2 -13 19 -9 22 4 24 1 24 -37 0 -22 5
-41 11 -41 5 0 8 -4 5 -9 -3 -5 1 -14 9 -21 8 -7 12 -16 9 -21 -6 -10 34 -48
51 -49 6 0 18 -9 28 -20 10 -12 23 -18 29 -14 7 5 8 2 3 -7 -6 -11 -5 -12 6
-1 7 6 21 12 31 12 10 0 18 7 18 18 0 36 15 44 43 22 31 -25 35 -40 8 -33 -15
4 -18 0 -14 -21 3 -14 9 -26 13 -26 15 0 40 31 34 42 -4 5 5 2 20 -7 26 -17
37 -33 14 -19 -7 4 -9 3 -5 -1 4 -5 13 -10 20 -11 24 -3 117 -66 116 -77 0 -9
-2 -9 -5 -1 -3 7 -15 10 -27 7 -16 -4 -18 -2 -8 5 11 8 10 12 -5 19 -24 12
-166 4 -158 -9 3 -5 12 -7 19 -4 7 2 15 -4 18 -16 4 -14 11 -19 23 -14 18 7
57 -21 48 -35 -3 -5 2 -9 10 -9 9 0 16 -4 16 -9 0 -5 12 -11 28 -13 15 -2 27
-9 27 -16 0 -13 59 -45 67 -36 3 2 5 -2 5 -9 0 -19 -64 16 -204 110 -83 56
-110 79 -106 91 4 13 2 14 -4 4 -8 -10 -29 1 -94 49 -113 82 -148 117 -144
140 2 11 -1 19 -7 19 -5 0 -8 -7 -4 -15 8 -21 -5 -18 -36 10 -34 29 -35 35 -7
30 12 -3 19 -2 15 2 -3 3 -2 11 4 17 6 8 3 12 -11 13 -13 1 -19 -3 -16 -11 9
-23 -31 -15 -54 11 l-24 26 49 -7 c27 -3 60 -6 73 -6z m5103 -21 c-58 -50 -87
-69 -95 -61 -5 4 -5 2 -1 -5 4 -7 -9 -23 -31 -40 -21 -15 -39 -31 -41 -35 -2
-5 -10 -8 -18 -8 -9 0 -12 -4 -9 -10 3 -5 2 -10 -3 -10 -4 0 -17 -8 -28 -18
-56 -51 -115 -94 -121 -88 -4 4 -1 11 7 16 17 11 9 13 -14 4 -12 -5 -14 -10
-6 -19 8 -10 -1 -21 -38 -48 -61 -44 -92 -60 -92 -49 0 5 10 14 23 20 21 11
21 11 -4 6 -17 -4 -32 0 -43 11 -9 10 -25 15 -36 12 -10 -3 -21 0 -23 7 -3 7
-8 8 -15 1 -13 -12 -4 -58 9 -50 4 3 12 -3 18 -12 6 -10 11 -12 11 -5 0 6 6
12 14 12 8 0 16 6 19 13 2 7 8 8 13 3 5 -5 5 -10 -1 -13 -23 -8 -39 -22 -32
-29 3 -4 14 -1 24 7 11 9 14 10 9 2 -8 -14 -137 -93 -150 -93 -5 0 -3 7 4 15
9 10 9 15 1 15 -6 0 -12 -4 -12 -10 -1 -5 -2 -16 -3 -22 -1 -17 -345 -190
-363 -184 -8 3 -12 2 -9 -3 10 -15 -394 -160 -579 -207 -121 -31 -113 -29
-255 -55 -63 -11 -134 -24 -157 -28 -34 -7 -43 -6 -43 5 0 9 -10 13 -27 13
-24 -2 -25 -2 -5 -6 22 -4 31 -23 10 -23 -6 0 -74 -7 -152 -16 -111 -13 -196
-15 -411 -10 -330 7 -305 6 -305 14 0 4 -20 6 -45 4 -26 -2 -45 0 -45 6 0 6
-9 8 -20 5 -11 -3 -20 0 -20 6 0 6 -5 11 -11 11 -5 0 -7 -4 -4 -10 3 -5 2 -10
-4 -10 -5 0 -12 4 -15 9 -3 5 -15 7 -26 4 -13 -3 -20 0 -20 8 0 10 -2 11 -8 2
-9 -15 -241 29 -253 49 -6 8 -9 9 -9 1 0 -8 -14 -8 -52 2 -29 7 -66 16 -82 20
-24 5 -27 8 -15 16 10 7 6 8 -13 3 -32 -7 -211 44 -202 57 3 5 14 9 25 9 14 0
19 7 19 30 0 17 5 30 10 30 6 0 10 5 10 12 0 9 -3 9 -12 0 -16 -16 -28 -15
-28 1 0 8 -10 19 -22 25 -21 10 -20 11 7 5 17 -3 39 -11 50 -16 25 -14 29 -15
93 -26 76 -14 93 -21 86 -34 -5 -9 -4 -9 6 0 9 8 28 6 79 -8 89 -26 93 -27
306 -59 77 -12 150 -25 163 -31 13 -5 21 -5 18 -1 -3 5 16 5 42 1 26 -4 54 -8
62 -9 13 0 13 -1 0 -10 -10 -6 -11 -10 -2 -10 6 0 12 -9 12 -20 0 -19 7 -20
110 -20 102 0 110 1 110 19 0 11 -8 21 -17 24 -30 6 84 16 265 21 117 4 172 2
172 -5 0 -6 6 -4 14 3 8 8 59 19 122 27 215 25 416 68 661 140 133 39 379 139
536 218 70 35 133 61 139 57 7 -4 8 -3 4 4 -7 12 27 35 38 25 3 -3 6 -2 6 3 0
5 15 18 33 28 27 15 29 15 12 1 -14 -12 -16 -19 -7 -22 6 -3 10 -8 8 -12 -3
-4 -1 -13 5 -21 6 -10 9 -11 9 -2 0 6 9 12 20 12 11 0 20 7 20 15 0 8 5 15 10
15 6 0 10 7 10 16 0 10 -7 14 -20 12 -38 -6 -19 14 77 79 54 37 100 69 103 73
3 4 15 12 27 19 19 9 22 9 17 -3 -3 -8 -13 -17 -22 -19 -10 -2 3 -4 28 -5 39
-1 43 1 28 12 -19 14 -25 46 -9 46 5 0 16 6 23 13 8 6 27 23 42 37 l29 25 -19
-30 c-16 -26 -17 -28 -1 -16 15 12 17 10 17 -20 0 -26 3 -30 10 -19 5 8 10 10
10 4 0 -8 27 -11 48 -5 1 1 -2 10 -8 20 -7 13 -7 22 0 26 6 3 13 -1 16 -9 3
-9 10 -13 15 -10 17 10 -11 46 -32 41 -10 -3 -19 -1 -19 4 0 5 26 6 59 3 52
-6 60 -4 65 12 3 11 16 24 28 29 13 6 22 16 21 23 -2 7 0 11 5 11 20 -3 32 2
26 12 -9 14 14 29 46 29 24 0 24 -1 -10 -31z m-5015 1 c10 -11 14 -20 9 -20
-5 0 -15 9 -22 20 -7 11 -11 20 -9 20 2 0 12 -9 22 -20z m2155 -16 c0 -2 -11
2 -25 8 -14 6 -25 15 -25 20 0 5 11 1 25 -8 14 -9 25 -18 25 -20z m535 26 c-3
-5 -12 -10 -18 -10 -7 0 -6 4 3 10 19 12 23 12 15 0z m-35 -14 c0 -2 -8 -10
-17 -17 -16 -13 -17 -12 -4 4 13 16 21 21 21 13z m341 -22 c15 -7 29 -21 33
-29 22 -59 -16 -165 -59 -165 -49 0 -65 98 -24 153 l20 28 -38 -5 c-21 -2 -50
-9 -65 -15 -38 -15 -35 -8 14 28 43 32 64 33 119 5z m-1034 -9 c37 -23 58 -47
36 -44 -29 5 -73 -3 -68 -11 4 -6 9 -9 13 -7 4 1 20 -10 36 -25 35 -34 25 -35
-31 -3 l-43 24 0 -37 c0 -24 3 -32 9 -24 7 11 9 10 14 -3 4 -9 3 -14 -2 -11
-5 3 -16 -5 -25 -19 -39 -59 -106 -6 -106 83 0 35 6 49 29 73 37 37 79 38 138
4z m-1824 -79 c20 -15 37 -32 37 -37 0 -6 -6 -4 -14 3 -24 22 -56 48 -61 48
-2 0 -1 -8 2 -17 6 -15 4 -16 -9 -5 -9 7 -18 9 -20 5 -3 -4 -3 -3 -2 4 2 7 -1
15 -7 19 -6 3 -8 12 -5 19 6 16 -19 39 -33 31 -5 -4 -13 -1 -17 5 -4 8 -3 9 4
5 7 -4 12 -2 12 5 0 7 17 -3 38 -22 20 -19 54 -48 75 -63z m4627 34 c0 -5 -2
-10 -4 -10 -3 0 -8 5 -11 10 -3 6 -1 10 4 10 6 0 11 -4 11 -10z m-2714 -38
c-6 -6 -56 10 -56 18 0 5 13 3 30 -3 16 -6 28 -13 26 -15z m831 2 c-3 -3 -12
-4 -19 -1 -8 3 -5 6 6 6 11 1 17 -2 13 -5z m-237 -38 c85 -42 232 -130 237
-142 2 -7 -10 -39 -26 -73 -23 -44 -37 -61 -51 -61 -24 0 -25 8 -4 61 10 25
13 44 7 47 -5 4 -45 29 -89 56 -158 99 -174 110 -174 121 0 31 24 29 100 -9z
m-1599 -176 c271 -104 514 -165 914 -227 152 -24 198 -27 430 -27 268 -1 410
10 615 46 63 11 120 21 125 22 6 2 28 6 50 11 192 38 519 138 642 196 82 39
82 39 209 39 l127 0 -18 -21 c-51 -56 -588 -284 -740 -315 -6 -1 -45 -11 -86
-22 -42 -12 -86 -23 -100 -26 -22 -4 -55 -11 -184 -36 -227 -46 -318 -52 -670
-47 -181 3 -350 10 -375 15 -25 6 -63 13 -85 16 -256 40 -513 106 -742 191
-177 66 -473 211 -473 231 0 11 21 14 103 14 103 0 106 -1 258 -60z m-581 -11
c0 -4 -7 -6 -15 -3 -8 4 -15 10 -15 15 0 4 7 6 15 3 8 -4 15 -10 15 -15z
m2007 -10 c72 -61 33 -169 -61 -169 -26 0 -40 7 -60 31 -37 43 -35 91 4 131
26 26 36 30 66 25 20 -3 42 -12 51 -18z m328 12 c3 -5 2 -12 -3 -15 -5 -3 -9
1 -9 9 0 17 3 19 12 6z m-2295 -21 c10 -6 5 -9 -18 -8 -22 1 -29 4 -20 9 16
11 20 11 38 -1z m2219 -4 c24 -7 40 -15 35 -19 -5 -3 -28 3 -49 13 -48 22 -44
24 14 6z m-2078 -77 c52 -28 85 -47 74 -43 -11 4 -30 7 -42 7 -13 -1 -23 4
-23 11 0 12 -88 61 -102 58 -4 -1 -13 8 -19 21 -11 19 -10 20 3 10 8 -7 57
-36 109 -64z m-111 -44 c0 -8 7 -15 16 -15 8 0 12 -4 9 -10 -4 -6 -17 -4 -36
5 -33 18 -38 35 -9 35 11 0 20 -7 20 -15z m260 -31 c0 -2 -7 -4 -15 -4 -8 0
-15 4 -15 10 0 5 7 7 15 4 8 -4 15 -8 15 -10z m-199 -21 c13 -15 12 -15 -8 -4
-24 12 -29 21 -14 21 5 0 15 -7 22 -17z m454 -87 c96 -35 156 -60 125 -53 -8
3 -23 0 -32 -5 -14 -7 -16 -5 -11 8 4 11 3 15 -5 10 -6 -4 -27 0 -46 8 -19 8
-37 12 -40 8 -3 -3 -6 1 -6 9 0 11 -2 11 -10 -1 -6 -9 -10 -10 -10 -3 0 7 -47
35 -105 62 -58 28 -105 52 -105 55 0 3 33 -10 73 -29 39 -18 117 -49 172 -69z
m-428 72 c-3 -8 -6 -5 -6 6 -1 11 2 17 5 13 3 -3 4 -12 1 -19z m36 -12 c4 -10
1 -13 -8 -9 -8 3 -12 9 -9 14 7 12 11 11 17 -5z m56 -26 c-6 -5 -18 -6 -26 -3
-19 8 -16 11 13 11 17 0 22 -3 13 -8z m73 -40 c18 -11 29 -20 23 -20 -16 1
-82 39 -68 40 7 0 27 -9 45 -20z m103 -46 c30 -21 5 -16 -35 7 -26 15 -29 18
-10 13 14 -4 34 -13 45 -20z m70 -28 c19 -8 35 -17 35 -20 0 -5 -71 22 -79 30
-9 8 11 4 44 -10z m155 -56 c0 -5 -4 -10 -10 -10 -5 0 -10 5 -10 10 0 6 5 10
10 10 6 0 10 -4 10 -10z m77 -27 c0 -13 -25 -10 -57 8 -10 5 -3 8 21 7 23 -1
36 -6 36 -15z m1113 -91 c-8 -5 -49 -5 -90 -2 l-75 7 90 1 c50 1 83 -2 75 -6z"/>
<path d="M5223 8963 c9 -2 23 -2 30 0 6 3 -1 5 -18 5 -16 0 -22 -2 -12 -5z"/>
<path d="M5428 8938 c9 -9 15 -9 24 0 9 9 7 12 -12 12 -19 0 -21 -3 -12 -12z"/>
<path d="M5650 8890 c0 -5 5 -10 10 -10 6 0 10 5 10 10 0 6 -4 10 -10 10 -5 0
-10 -4 -10 -10z"/>
<path d="M5275 8870 c3 -5 8 -10 11 -10 2 0 4 5 4 10 0 6 -5 10 -11 10 -5 0
-7 -4 -4 -10z"/>
<path d="M5320 8869 c0 -3 18 -6 40 -7 22 -1 40 1 40 6 0 4 -18 7 -40 7 -22 0
-40 -2 -40 -6z"/>
<path d="M5785 8790 c3 -5 8 -10 11 -10 2 0 4 5 4 10 0 6 -5 10 -11 10 -5 0
-7 -4 -4 -10z"/>
<path d="M5896 8765 c-4 -10 1 -15 14 -15 13 0 18 5 14 15 -4 8 -10 15 -14 15
-4 0 -10 -7 -14 -15z"/>
<path d="M4577 8868 c-7 -5 -2 -8 15 -8 15 0 29 4 32 8 6 10 -31 10 -47 0z"/>
<path d="M3480 8636 c0 -9 7 -16 16 -16 17 0 14 22 -4 28 -7 2 -12 -3 -12 -12z"/>
<path d="M2770 8250 c-13 -8 -12 -10 3 -10 9 0 17 5 17 10 0 12 -1 12 -20 0z"/>
<path d="M2711 8124 c0 -11 3 -14 6 -6 3 7 2 16 -1 19 -3 4 -6 -2 -5 -13z"/>
<path d="M6714 8429 c-4 -7 -3 -9 4 -5 5 3 12 0 15 -6 4 -10 7 -10 16 -1 6 7
8 11 5 8 -4 -3 -13 0 -20 6 -8 7 -14 6 -20 -2z"/>
<path d="M6781 8383 c6 -7 17 -13 23 -12 7 0 6 2 -2 6 -6 2 -10 8 -8 12 3 4
-1 8 -9 8 -11 0 -12 -4 -4 -14z"/>
<path d="M7207 8199 c7 -7 15 -10 18 -7 3 3 -2 9 -12 12 -14 6 -15 5 -6 -5z"/>
<path d="M7080 8186 c0 -2 7 -7 16 -10 8 -3 12 -2 9 4 -6 10 -25 14 -25 6z"/>
<path d="M7180 8110 c0 -5 5 -10 11 -10 5 0 7 5 4 10 -3 6 -8 10 -11 10 -2 0
-4 -4 -4 -10z"/>
<path d="M2046 6115 c-3 -8 -1 -15 4 -15 6 0 10 7 10 15 0 8 -2 15 -4 15 -2 0
-6 -7 -10 -15z"/>
<path d="M2060 5800 c-24 -47 -33 -51 -25 -12 l5 27 -12 -25 c-62 -129 -86
-180 -84 -180 6 0 88 119 86 126 -1 4 3 10 8 13 16 11 63 91 52 91 -5 0 -19
-18 -30 -40z"/>
<path d="M2046 5673 c-6 -14 -5 -15 5 -6 7 7 10 15 7 18 -3 3 -9 -2 -12 -12z"/>
<path d="M2016 5623 c-6 -14 -5 -15 5 -6 7 7 10 15 7 18 -3 3 -9 -2 -12 -12z"/>
<path d="M7629 6155 c-1 -3 -2 -8 -3 -12 -1 -5 -8 -19 -15 -33 -12 -23 -12
-24 3 -9 15 14 31 59 20 59 -2 0 -5 -2 -5 -5z"/>
<path d="M7671 5883 c-10 -26 -10 -27 4 -9 8 11 15 23 15 28 0 15 -7 8 -19
-19z"/>
<path d="M7636 5813 c-6 -14 -5 -15 5 -6 7 7 10 15 7 18 -3 3 -9 -2 -12 -12z"/>
<path d="M7597 5803 c-4 -3 -7 -11 -7 -17 0 -6 5 -5 12 2 6 6 9 14 7 17 -3 3
-9 2 -12 -2z"/>
<path d="M7610 5771 c-6 -12 -17 -21 -25 -21 -8 0 -15 -5 -15 -11 0 -7 -14
-35 -31 -63 -18 -28 -24 -45 -15 -37 23 19 108 142 102 148 -2 3 -9 -5 -16
-16z"/>
<path d="M6746 6125 c-9 -26 -7 -32 5 -12 6 10 9 21 6 23 -2 3 -7 -2 -11 -11z"/>
<path d="M6679 5488 c-12 -18 -36 -44 -54 -58 -17 -13 -44 -41 -59 -62 -15
-21 -32 -37 -38 -35 -7 1 -14 -7 -16 -17 -4 -17 -2 -17 27 3 17 12 31 27 31
32 0 5 5 8 12 7 7 -2 12 3 13 10 0 7 9 21 21 30 31 25 98 112 91 118 -3 3 -16
-9 -28 -28z"/>
<path d="M3262 5676 c13 -19 24 -33 26 -32 5 5 -33 66 -41 66 -4 0 3 -15 15
-34z"/>
<path d="M3310 5600 c12 -16 24 -30 26 -30 3 0 -3 14 -13 30 -9 17 -21 30 -26
30 -5 0 1 -13 13 -30z"/>
<path d="M1363 4381 c0 -11 5 -18 9 -15 4 3 5 11 1 19 -7 21 -12 19 -10 -4z"/>
<path d="M1338 4198 c-6 -17 1 -38 13 -38 5 0 9 7 9 15 0 8 6 15 13 15 8 0 7
4 -3 10 -20 13 -27 12 -32 -2z"/>
<path d="M1431 4101 c-7 -5 -12 -14 -10 -20 3 -6 9 -7 18 -2 7 5 12 14 10 20
-3 6 -9 7 -18 2z"/>
<path d="M5520 6165 c-9 -10 -9 -15 -1 -15 6 0 11 5 11 11 0 5 5 7 10 4 6 -3
10 -1 10 4 0 16 -16 13 -30 -4z"/>
<path d="M8600 6022 c0 -19 5 -29 15 -29 8 0 15 4 15 9 0 4 -5 8 -11 8 -6 0
-8 9 -4 20 4 11 2 20 -4 20 -6 0 -11 -13 -11 -28z"/>
<path d="M8640 5876 c0 -9 5 -16 10 -16 6 0 10 4 10 9 0 6 -4 13 -10 16 -5 3
-10 -1 -10 -9z"/>
<path d="M8602 5663 c2 -9 9 -18 16 -21 18 -6 15 25 -4 32 -11 4 -14 1 -12
-11z"/>
<path d="M8627 5604 c-3 -11 -8 -29 -12 -41 -5 -17 -2 -23 9 -23 9 0 16 5 16
10 0 6 8 10 19 10 12 0 20 9 23 24 4 19 1 22 -15 18 -10 -3 -23 1 -27 8 -6 9
-9 8 -13 -6z"/>
<path d="M3760 6076 c0 -2 7 -6 15 -10 8 -3 15 -1 15 4 0 6 -7 10 -15 10 -8 0
-15 -2 -15 -4z"/>
<path d="M6160 6146 c0 -2 8 -10 18 -17 15 -13 16 -12 3 4 -13 16 -21 21 -21
13z"/>
<path d="M3606 6073 c-6 -14 -5 -15 5 -6 7 7 10 15 7 18 -3 3 -9 -2 -12 -12z"/>
<path d="M5875 5830 c3 -5 8 -10 11 -10 2 0 4 5 4 10 0 6 -5 10 -11 10 -5 0
-7 -4 -4 -10z"/>
<path d="M5590 5605 c12 -13 27 -22 33 -18 5 3 7 -3 3 -14 -8 -27 19 -52 28
-27 4 10 1 21 -6 26 -7 4 -10 8 -5 8 4 0 0 11 -9 25 -10 16 -26 25 -42 25
l-25 0 23 -25z"/>
<path d="M5910 5163 c0 -6 8 -17 18 -24 16 -13 16 -13 2 6 -8 11 -16 22 -17
24 -2 2 -3 0 -3 -6z"/>
<path d="M5650 5101 c0 -6 4 -13 10 -16 6 -3 7 1 4 9 -7 18 -14 21 -14 7z"/>
<path d="M4530 5089 c0 -5 5 -7 10 -4 6 3 10 8 10 11 0 2 -4 4 -10 4 -5 0 -10
-5 -10 -11z"/>
<path d="M4506 5057 c3 -10 9 -15 12 -12 3 3 0 11 -7 18 -10 9 -11 8 -5 -6z"/>
<path d="M4345 5020 c-3 -6 1 -7 9 -4 18 7 21 14 7 14 -6 0 -13 -4 -16 -10z"/>
<path d="M4611 5017 c-8 -10 -7 -14 4 -14 8 0 15 6 15 14 0 7 -2 13 -4 13 -2
0 -9 -6 -15 -13z"/>
<path d="M4220 4990 c-6 -11 -8 -20 -6 -20 3 0 10 9 16 20 6 11 8 20 6 20 -3
0 -10 -9 -16 -20z"/>
<path d="M4075 4980 c-17 -8 -17 -9 7 -7 15 1 24 5 22 9 -3 4 -6 8 -7 7 -1 0
-11 -4 -22 -9z"/>
<path d="M4583 4978 c-12 -15 -13 -49 -2 -42 4 2 10 -2 12 -8 3 -7 6 -3 6 10
1 13 -3 20 -9 17 -14 -9 -13 8 2 23 7 7 9 12 6 12 -3 0 -10 -6 -15 -12z"/>
<path d="M4063 4945 c-7 -8 -9 -16 -4 -19 5 -3 12 1 15 10 8 22 4 25 -11 9z"/>
<path d="M4171 4924 c0 -11 3 -14 6 -6 3 7 2 16 -1 19 -3 4 -6 -2 -5 -13z"/>
<path d="M4280 4930 c0 -6 7 -10 15 -10 8 0 15 2 15 4 0 2 -7 6 -15 10 -8 3
-15 1 -15 -4z"/>
<path d="M4140 4921 c0 -6 4 -13 10 -16 6 -3 7 1 4 9 -7 18 -14 21 -14 7z"/>
<path d="M4028 4913 c7 -3 16 -2 19 1 4 3 -2 6 -13 5 -11 0 -14 -3 -6 -6z"/>
<path d="M4253 4895 c-7 -8 -13 -19 -13 -25 0 -5 -7 -10 -15 -10 -8 0 -15 -7
-15 -16 0 -10 -6 -14 -15 -10 -8 3 -15 1 -15 -3 0 -8 23 -21 35 -21 11 0 44
44 39 52 -3 4 3 8 12 8 10 0 14 3 11 7 -4 3 -2 12 4 20 16 19 -12 17 -28 -2z"/>
<path d="M4011 4878 c5 -10 12 -18 15 -18 3 0 3 4 -1 9 -3 6 2 14 12 19 14 9
13 10 -9 9 -22 -2 -24 -5 -17 -19z"/>
<path d="M4514 4887 c-29 -34 -45 -65 -35 -72 6 -3 11 -5 12 -3 0 2 2 11 4 22
2 10 14 29 26 42 12 13 18 24 13 24 -5 -1 -14 -6 -20 -13z"/>
<path d="M4090 4860 c0 -5 5 -10 11 -10 5 0 7 5 4 10 -3 6 -8 10 -11 10 -2 0
-4 -4 -4 -10z"/>
<path d="M3841 4814 c0 -11 3 -14 6 -6 3 7 2 16 -1 19 -3 4 -6 -2 -5 -13z"/>
<path d="M3948 4823 c-9 -2 -18 -10 -21 -16 -6 -17 19 -51 28 -38 3 6 1 11 -4
11 -15 0 -9 22 9 37 16 13 15 13 -12 6z"/>
<path d="M3976 4815 c-9 -26 -7 -32 5 -12 6 10 9 21 6 23 -2 3 -7 -2 -11 -11z"/>
<path d="M6300 4801 c0 -9 -8 -11 -27 -6 l-28 6 32 -30 c21 -19 28 -31 20 -34
-6 -3 -1 -4 11 -4 l24 1 -22 18 c-19 15 -20 21 -10 33 7 9 10 18 6 22 -3 3 -6
1 -6 -6z"/>
<path d="M3675 4780 c-3 -5 -1 -10 4 -10 6 0 11 5 11 10 0 6 -2 10 -4 10 -3 0
-8 -4 -11 -10z"/>
<path d="M3795 4770 c-3 -5 -1 -10 4 -10 6 0 11 5 11 10 0 6 -2 10 -4 10 -3 0
-8 -4 -11 -10z"/>
<path d="M5920 4765 c0 -5 14 -24 30 -42 25 -26 27 -33 15 -40 -12 -7 -10 -13
10 -38 24 -29 24 -29 19 -5 -4 14 -7 33 -7 42 -1 19 -66 99 -67 83z"/>
<path d="M3637 4728 c-10 -11 -17 -22 -15 -24 3 -2 15 7 28 21 13 14 19 25 14
24 -5 0 -17 -10 -27 -21z"/>
<path d="M3755 4740 c-3 -5 -3 -14 0 -20 3 -5 1 -10 -4 -10 -6 0 -11 -5 -11
-11 0 -6 6 -9 13 -6 6 2 12 10 12 18 0 8 9 19 20 26 20 12 20 12 -2 13 -12 0
-25 -4 -28 -10z"/>
<path d="M4396 4734 c-4 -9 -4 -19 -1 -22 3 -3 5 -1 5 5 0 5 7 10 15 10 8 0
15 -5 15 -10 0 -6 3 -7 6 -4 8 7 -14 37 -26 37 -4 0 -11 -7 -14 -16z"/>
<path d="M5931 4704 c0 -11 3 -14 6 -6 3 7 2 16 -1 19 -3 4 -6 -2 -5 -13z"/>
<path d="M6163 4697 c0 -8 6 -14 14 -14 9 0 10 4 2 14 -6 7 -12 13 -14 13 -1
0 -2 -6 -2 -13z"/>
<path d="M4351 4672 c-15 -22 -17 -29 -6 -29 8 0 12 4 9 8 -3 5 4 17 16 29 11
11 16 20 11 20 -5 0 -19 -13 -30 -28z"/>
<path d="M3563 4643 c0 -7 6 -13 12 -13 6 0 12 6 12 13 0 8 -6 14 -12 14 -6 0
-12 -6 -12 -14z"/>
<path d="M4305 4620 c-3 -5 -3 -10 2 -10 4 0 0 -5 -9 -11 -21 -12 -24 -39 -5
-39 21 0 50 37 44 55 -7 17 -23 20 -32 5z"/>
<path d="M6090 4552 c0 -6 -8 -13 -17 -15 -16 -4 -16 -5 -1 -6 18 -1 34 16 24
26 -3 4 -6 1 -6 -5z"/>
<path d="M6246 4547 c3 -8 11 -14 19 -14 11 0 12 4 4 14 -6 7 -15 13 -20 13
-5 0 -6 -6 -3 -13z"/>
<path d="M6510 4516 c0 -2 8 -10 18 -17 15 -13 16 -12 3 4 -13 16 -21 21 -21
13z"/>
<path d="M6745 4280 c-3 -5 -1 -10 4 -10 6 0 11 5 11 10 0 6 -2 10 -4 10 -3 0
-8 -4 -11 -10z"/>
<path d="M8690 4740 c0 -11 5 -20 10 -20 6 0 10 9 10 20 0 11 -4 20 -10 20 -5
0 -10 -9 -10 -20z"/>
<path d="M8616 4734 c-4 -9 -4 -19 -1 -22 2 -3 7 3 11 12 4 9 4 19 1 22 -2 3
-7 -3 -11 -12z"/>
<path d="M8662 4495 c0 -16 2 -22 5 -12 2 9 2 23 0 30 -3 6 -5 -1 -5 -18z"/>
<path d="M8464 4051 c4 -5 1 -12 -4 -14 -6 -3 -5 -4 2 -3 15 3 23 26 8 26 -6
0 -9 -4 -6 -9z"/>
<path d="M7750 4738 c0 -35 3 -93 7 -130 5 -57 9 -68 24 -68 18 0 19 10 19
124 0 104 -3 125 -16 130 -30 12 -34 6 -34 -56z"/>
<path d="M7721 4408 l-1 -138 26 0 26 0 -4 110 c-2 86 -6 112 -19 122 -9 7
-19 20 -22 28 -3 8 -6 -47 -6 -122z"/>
<path d="M3289 4693 c-13 -16 -12 -17 4 -4 16 13 21 21 13 21 -2 0 -10 -8 -17
-17z"/>
<path d="M3239 4653 c-67 -76 -70 -80 -54 -80 8 0 13 2 10 5 -2 3 14 27 36 53
43 52 49 68 8 22z"/>
<path d="M2993 4675 c0 -8 4 -12 9 -9 5 3 6 10 3 15 -9 13 -12 11 -12 -6z"/>
<path d="M5130 4490 c0 -5 5 -10 11 -10 5 0 7 5 4 10 -3 6 -8 10 -11 10 -2 0
-4 -4 -4 -10z"/>
<path d="M7296 4268 c3 -5 10 -6 15 -3 13 9 11 12 -6 12 -8 0 -12 -4 -9 -9z"/>
<path d="M3018 4073 c12 -2 32 -2 45 0 12 2 2 4 -23 4 -25 0 -35 -2 -22 -4z"/>
<path d="M3143 4073 c32 -2 81 -2 110 0 29 2 3 3 -58 3 -60 0 -84 -1 -52 -3z"/>
<path d="M3318 4073 c7 -3 16 -2 19 1 4 3 -2 6 -13 5 -11 0 -14 -3 -6 -6z"/>
<path d="M3492 4063 c-7 -12 -4 -21 12 -35 l21 -19 -23 11 c-13 6 -33 9 -45 7
-19 -4 -18 -4 5 -6 15 0 29 -4 31 -9 3 -4 92 -8 199 -10 195 -3 235 3 246 36
3 9 -23 12 -105 13 -95 1 -101 2 -50 9 106 14 72 20 -106 20 -154 0 -177 -2
-185 -17z"/>
<path d="M3455 4050 c-3 -5 -1 -10 4 -10 6 0 11 5 11 10 0 6 -2 10 -4 10 -3 0
-8 -4 -11 -10z"/>
<path d="M4530 4047 c-15 -7 -27 -24 -31 -44 -3 -18 -3 -30 2 -28 4 3 10 1 14
-5 3 -5 19 -10 34 -10 20 0 31 7 39 25 10 21 8 28 -11 50 -20 22 -25 24 -47
12z"/>
<path d="M3448 4003 c6 -2 18 -2 25 0 6 3 1 5 -13 5 -14 0 -19 -2 -12 -5z"/>
<path d="M3930 3980 c-8 -6 -32 -15 -52 -20 -87 -24 -31 -30 300 -30 l337 0
-35 30 -35 30 -250 0 c-147 0 -256 -4 -265 -10z"/>
<path d="M7278 4073 c12 -2 32 -2 45 0 12 2 2 4 -23 4 -25 0 -35 -2 -22 -4z"/>
<path d="M7438 4073 c7 -3 16 -2 19 1 4 3 -2 6 -13 5 -11 0 -14 -3 -6 -6z"/>
<path d="M5285 4061 c-3 -5 -2 -12 3 -15 5 -3 9 1 9 9 0 17 -3 19 -12 6z"/>
<path d="M5960 4046 c0 -3 9 -10 20 -16 11 -6 20 -8 20 -6 0 3 -9 10 -20 16
-11 6 -20 8 -20 6z"/>
<path d="M7964 3973 c10 -11 36 -12 36 -2 0 5 -10 9 -22 9 -12 0 -18 -3 -14
-7z"/>
<path d="M6538 3953 c7 -3 16 -2 19 1 4 3 -2 6 -13 5 -11 0 -14 -3 -6 -6z"/>
<path d="M7850 3956 c0 -2 7 -7 16 -10 8 -3 12 -2 9 4 -6 10 -25 14 -25 6z"/>
<path d="M5980 3929 c0 -5 5 -7 10 -4 6 3 10 8 10 11 0 2 -4 4 -10 4 -5 0 -10
-5 -10 -11z"/>
<path d="M2140 3950 c-13 -8 -12 -10 3 -10 9 0 17 5 17 10 0 12 -1 12 -20 0z"/>
<path d="M675 3769 c-4 -6 -3 -14 1 -19 14 -13 635 1 631 14 -5 16 -623 21
-632 5z"/>
<path d="M8785 3766 c-16 -11 20 -14 251 -18 148 -3 273 -2 278 2 27 25 -15
30 -258 30 -197 0 -256 -3 -271 -14z"/>
<path d="M745 3679 c-4 -6 -3 -15 2 -20 5 -5 126 -8 289 -7 240 3 279 5 279
18 0 13 -39 15 -282 18 -197 2 -284 -1 -288 -9z"/>
<path d="M8681 3681 c-39 -4 -66 -11 -69 -19 -3 -10 62 -12 314 -10 294 3 319
4 322 21 3 16 -13 17 -250 15 -139 -1 -282 -4 -317 -7z"/>
<path d="M1700 3613 c-177 -30 -333 -168 -387 -343 -23 -74 -22 -209 1 -274
26 -72 91 -170 143 -216 142 -125 372 -152 535 -63 59 32 148 109 148 128 0 7
-12 21 -27 30 -16 10 -52 42 -81 72 l-53 54 -29 -29 c-51 -51 -116 -75 -187
-69 -263 21 -314 373 -68 467 37 15 133 14 171 0 16 -6 45 -23 64 -38 19 -15
40 -26 45 -24 6 1 45 35 88 76 l79 73 -49 42 c-105 90 -262 136 -393 114z"/>
<path d="M2721 3478 c-35 -79 -112 -260 -173 -403 -132 -311 -142 -332 -168
-340 -35 -11 -44 -41 -19 -66 19 -19 29 -20 159 -17 163 4 181 11 160 69 -10
29 -9 41 9 82 l21 48 151 -3 152 -3 20 -54 c17 -43 18 -59 10 -82 -19 -49 9
-59 154 -59 173 0 208 22 141 87 -20 18 -46 63 -65 110 -17 43 -72 179 -122
303 -49 124 -112 279 -139 345 l-48 120 -91 3 -90 3 -62 -143z m172 -325 c14
-38 29 -76 33 -85 5 -16 -2 -18 -66 -18 -64 0 -71 2 -66 18 33 90 60 152 66
152 4 0 19 -30 33 -67z"/>
<path d="M6122 3608 c-18 -18 -15 -32 13 -56 13 -12 27 -32 31 -46 3 -13 4
-186 2 -385 l-3 -360 -27 -28 c-33 -34 -34 -44 -10 -66 15 -14 42 -17 149 -17
113 0 134 3 154 19 l23 18 -20 28 c-45 64 -44 55 -44 435 l0 365 31 38 c50 60
36 67 -140 67 -101 0 -151 -4 -159 -12z"/>
<path d="M6669 3598 c-10 -19 -8 -25 17 -47 l29 -24 3 -377 3 -378 -24 -28
c-63 -76 -38 -94 130 -94 67 0 133 4 147 10 33 12 34 43 1 82 l-25 30 0 223
c0 249 0 249 61 172 39 -48 170 -197 245 -277 28 -30 86 -94 128 -142 42 -47
84 -89 92 -92 26 -10 214 -7 233 4 31 16 31 37 0 76 l-29 37 0 373 0 372 26
31 c14 17 24 39 22 48 -3 16 -18 18 -157 18 -134 0 -155 -2 -165 -17 -8 -14
-5 -23 16 -45 l27 -28 7 -231 c4 -148 3 -233 -3 -237 -5 -3 -86 80 -180 186
-94 106 -210 234 -258 285 l-87 92 -124 0 c-117 0 -124 -1 -135 -22z"/>
<path d="M8308 3605 c-159 -40 -283 -154 -339 -311 -16 -44 -22 -85 -23 -159
-1 -114 2 -126 46 -213 145 -288 566 -346 778 -108 23 26 25 37 32 169 9 185
9 190 0 199 -5 5 -78 7 -163 6 l-154 -3 -3 -52 -3 -53 50 0 51 0 0 -64 c0 -63
-1 -65 -36 -86 -77 -48 -211 -35 -285 27 -122 103 -93 324 54 401 84 43 217
27 266 -32 8 -9 21 -16 30 -16 25 0 165 145 158 164 -9 22 -83 74 -152 107
-76 35 -218 46 -307 24z"/>
<path d="M943 3593 c-119 -3 -143 -6 -143 -18 0 -13 28 -15 203 -13 172 3 202
5 202 18 0 17 -25 18 -262 13z"/>
<path d="M8852 3593 c-28 -3 -42 -9 -39 -16 3 -9 56 -12 193 -12 161 0 189 2
189 15 0 13 -24 15 -150 16 -82 0 -169 -1 -193 -3z"/>
<path d="M953 3503 c-73 -3 -93 -7 -93 -18 0 -12 22 -15 124 -15 81 0 127 4
132 11 9 15 -15 29 -46 27 -14 -1 -67 -4 -117 -5z"/>
<path d="M8883 3488 c3 -10 36 -13 122 -13 86 0 119 3 123 13 3 9 -26 12 -123
12 -97 0 -126 -3 -122 -12z"/>
<path d="M927 3404 c-15 -16 9 -24 69 -24 50 0 64 3 64 15 0 12 -14 15 -63 15
-35 0 -67 -3 -70 -6z"/>
<path d="M8930 3395 c0 -12 14 -15 70 -15 56 0 70 3 70 15 0 12 -14 15 -70 15
-56 0 -70 -3 -70 -15z"/>
<path d="M980 3320 c0 -5 14 -10 30 -10 17 0 30 5 30 10 0 6 -13 10 -30 10
-16 0 -30 -4 -30 -10z"/>
<path d="M8950 3315 c0 -10 10 -15 30 -15 20 0 30 5 30 15 0 10 -10 15 -30 15
-20 0 -30 -5 -30 -15z"/>
<path d="M1010 3020 c0 -5 7 -10 16 -10 8 0 12 5 9 10 -3 6 -10 10 -16 10 -5
0 -9 -4 -9 -10z"/>
<path d="M8952 3019 c2 -6 8 -10 13 -10 5 0 11 4 13 10 2 6 -4 11 -13 11 -9 0
-15 -5 -13 -11z"/>
<path d="M970 2935 c0 -13 8 -16 38 -13 20 2 37 8 37 13 0 6 -17 11 -37 13
-30 3 -38 0 -38 -13z"/>
<path d="M8952 2938 c3 -7 22 -14 42 -16 28 -2 37 0 34 10 -3 7 -22 14 -42 16
-28 2 -37 0 -34 -10z"/>
<path d="M905 2850 c-3 -5 0 -13 8 -16 24 -9 162 0 162 11 0 14 -161 19 -170
5z"/>
<path d="M8960 2845 c0 -12 13 -15 61 -15 81 0 77 24 -4 28 -46 2 -57 0 -57
-13z"/>
<path d="M857 2763 c-20 -19 7 -23 153 -23 136 0 160 2 160 15 0 13 -24 15
-153 15 -85 0 -157 -3 -160 -7z"/>
<path d="M8907 2764 c-17 -18 14 -24 119 -24 88 0 115 3 112 13 -5 13 -218 24
-231 11z"/>
<path d="M785 2671 c-16 -28 14 -31 268 -31 242 0 304 6 283 27 -12 13 -543
16 -551 4z"/>
<path d="M8800 2670 c-8 -5 -11 -13 -6 -17 7 -7 407 -5 415 2 1 2 0 8 -4 14
-8 14 -384 15 -405 1z"/>
<path d="M717 2583 c-4 -3 -7 -9 -7 -13 0 -4 163 -10 362 -14 283 -5 363 -4
369 6 4 6 5 16 3 20 -6 10 -718 11 -727 1z"/>
<path d="M8637 2583 c-4 -3 -7 -10 -7 -15 0 -4 146 -8 325 -8 282 0 325 2 325
15 0 13 -42 15 -318 15 -175 0 -322 -3 -325 -7z"/>
<path d="M5067 2905 c-4 -8 -3 -16 1 -19 4 -3 9 4 9 15 2 23 -3 25 -10 4z"/>
<path d="M5053 2863 c-7 -2 -13 -10 -13 -16 0 -6 -7 -18 -15 -27 -12 -13 -12
-17 -1 -17 7 0 20 15 28 34 9 18 15 33 14 32 0 0 -7 -3 -13 -6z"/>
<path d="M5056 2658 c3 -4 11 -5 19 -1 21 7 19 12 -4 10 -11 0 -18 -5 -15 -9z"/>
<path d="M4713 2316 c-9 -11 -7 -18 10 -32 15 -13 18 -14 9 -3 -7 9 -10 24 -6
33 7 19 3 20 -13 2z"/>
<path d="M8761 2264 c0 -11 3 -14 6 -6 3 7 2 16 -1 19 -3 4 -6 -2 -5 -13z"/>
<path d="M5345 2170 c-3 -5 1 -10 10 -10 9 0 13 5 10 10 -3 6 -8 10 -10 10 -2
0 -7 -4 -10 -10z"/>
<path d="M2510 1936 c0 -2 7 -7 16 -10 8 -3 12 -2 9 4 -6 10 -25 14 -25 6z"/>
<path d="M2830 1705 c0 -2 10 -10 23 -16 20 -11 21 -11 8 4 -13 16 -31 23 -31
12z"/>
<path d="M7215 1870 c-3 -5 1 -10 10 -10 9 0 13 5 10 10 -3 6 -8 10 -10 10 -2
0 -7 -4 -10 -10z"/>
<path d="M7075 1804 c-16 -14 -39 -29 -50 -34 -14 -6 -3 -8 35 -7 55 2 55 2
57 35 2 38 -3 39 -42 6z"/>
<path d="M6850 1649 c0 -5 5 -7 10 -4 6 3 10 8 10 11 0 2 -4 4 -10 4 -5 0 -10
-5 -10 -11z"/>
<path d="M6970 1651 c0 -5 7 -11 14 -14 10 -4 13 -1 9 9 -6 15 -23 19 -23 5z"/>
<path d="M6778 1603 c7 -3 16 -2 19 1 4 3 -2 6 -13 5 -11 0 -14 -3 -6 -6z"/>
<path d="M3840 1300 c0 -11 4 -20 9 -20 5 0 11 9 14 20 3 13 0 20 -9 20 -8 0
-14 -9 -14 -20z"/>
<path d="M3933 1300 c2 -8 12 -16 23 -17 13 -2 15 -1 4 4 -8 3 -19 11 -23 17
-6 7 -7 6 -4 -4z"/>
<path d="M3828 1233 c7 -3 16 -2 19 1 4 3 -2 6 -13 5 -11 0 -14 -3 -6 -6z"/>
<path d="M5350 1181 c0 -15 16 -22 35 -15 13 5 14 8 3 15 -18 12 -38 11 -38 0z"/>
<path d="M4690 1076 c0 -2 9 -6 20 -9 11 -3 18 -1 14 4 -5 9 -34 13 -34 5z"/>
<path d="M4758 1063 c6 -2 18 -2 25 0 6 3 1 5 -13 5 -14 0 -19 -2 -12 -5z"/>
<path d="M4818 1063 c7 -3 16 -2 19 1 4 3 -2 6 -13 5 -11 0 -14 -3 -6 -6z"/>
<path d="M5520 1955 c-6 -8 -14 -32 -17 -55 -5 -32 -2 -40 10 -40 15 0 37 47
37 81 0 24 -15 32 -30 14z"/>
<path d="M4425 1990 c3 -5 8 -10 11 -10 2 0 4 5 4 10 0 6 -5 10 -11 10 -5 0
-7 -4 -4 -10z"/>
<path d="M4370 1927 c0 -38 22 -73 38 -63 15 9 15 38 0 71 -16 36 -38 32 -38
-8z"/>
<path d="M4921 1661 c-27 -27 -27 -62 2 -89 28 -26 45 -27 75 -6 25 17 31 74
9 92 -27 23 -65 24 -86 3z m62 -46 c-4 -15 -66 -12 -71 3 -3 10 6 13 34 10 22
-2 38 -7 37 -13z"/>
</g>
</svg>
