<?xml version="1.0" standalone="no"?>
<!DOCTYPE svg PUBLIC "-//W3C//DTD SVG 20010904//EN"
 "http://www.w3.org/TR/2001/REC-SVG-20010904/DTD/svg10.dtd">
<svg version="1.0" xmlns="http://www.w3.org/2000/svg"
 width="1024.000000pt" height="1024.000000pt" viewBox="0 0 1024.000000 1024.000000"
 preserveAspectRatio="xMidYMid meet">

<g transform="translate(0.000000,1024.000000) scale(0.100000,-0.100000)"
fill="#000000" stroke="none">
<path d="M5415 9275 c-35 -34 -34 -86 1 -114 15 -12 34 -21 44 -21 10 0 29 9
44 21 20 16 26 29 26 59 0 30 -6 43 -26 59 -35 27 -59 26 -89 -4z"/>
<path d="M4832 9269 c-9 -22 16 -137 37 -177 14 -26 43 -29 61 -6 11 12 10 29
-5 92 -9 42 -22 85 -27 95 -13 24 -57 22 -66 -4z"/>
<path d="M4590 9225 c-11 -13 -11 -27 0 -83 16 -84 28 -110 52 -118 50 -16 60
43 25 146 -23 69 -50 88 -77 55z"/>
<path d="M5773 8993 c-116 -120 -217 -227 -223 -238 -16 -30 3 -73 35 -81 38
-10 76 21 298 244 172 173 197 202 197 229 0 40 -23 63 -63 63 -28 0 -56 -24
-244 -217z"/>
<path d="M4330 9171 c-7 -14 -6 -39 5 -88 24 -105 30 -115 68 -111 25 2 33 8
35 27 5 31 -27 152 -46 174 -20 23 -49 22 -62 -2z"/>
<path d="M4085 9126 c-21 -15 -17 -68 12 -157 15 -46 22 -54 45 -57 43 -5 49
21 24 117 -24 94 -47 122 -81 97z"/>
<path d="M3832 9068 c-16 -16 -15 -30 4 -113 23 -97 53 -127 85 -88 8 9 13 26
11 37 -10 81 -27 149 -39 162 -18 17 -45 18 -61 2z"/>
<path d="M5249 9026 c-3 -3 -126 -30 -274 -60 -395 -80 -506 -104 -645 -136
-69 -16 -226 -52 -350 -79 -316 -70 -478 -109 -500 -121 -39 -21 -43 -68 -15
-191 14 -63 28 -121 30 -130 4 -12 -3 -18 -27 -23 -151 -28 -174 -219 -41
-336 25 -21 67 -46 94 -55 l49 -17 0 -54 0 -54 -33 0 c-21 0 -41 -8 -52 -20
-10 -11 -22 -20 -26 -20 -4 0 -51 53 -104 117 -70 84 -110 144 -145 216 -58
118 -60 120 -177 208 -168 127 -268 281 -322 497 -17 70 -31 107 -35 97 -14
-37 -18 -222 -7 -294 12 -78 67 -209 104 -249 12 -14 58 -52 102 -85 44 -33
95 -74 113 -91 40 -37 107 -162 91 -171 -5 -4 -43 19 -82 52 -40 32 -94 74
-122 93 -27 19 -72 58 -99 85 l-50 50 34 -50 c18 -27 49 -70 68 -95 l36 -45
-38 35 c-47 44 -128 154 -146 198 -22 57 -22 27 0 -55 29 -103 72 -180 160
-280 39 -46 66 -83 59 -83 -14 0 -93 42 -97 53 -2 4 -9 7 -15 7 -6 0 -1 -10
11 -23 31 -33 27 -38 -13 -21 -47 19 -51 18 -29 -8 10 -13 1 -7 -20 12 -133
120 -251 313 -282 464 -9 39 -18 73 -21 76 -3 3 -3 -35 1 -85 14 -180 108
-392 234 -527 l44 -47 -42 -21 c-23 -12 -44 -19 -47 -17 -3 3 6 11 19 18 12 6
26 17 30 22 8 12 -45 67 -64 67 -14 0 -88 72 -126 123 -13 18 -23 24 -27 16
-4 -6 -4 -14 1 -18 5 -3 18 -19 29 -36 10 -16 29 -38 42 -48 27 -21 30 -37 7
-37 -13 0 -11 -5 7 -21 l24 -21 -30 20 c-60 40 -124 113 -163 189 -46 89 -89
221 -100 308 l-8 60 -8 -57 c-13 -102 24 -278 85 -402 29 -58 88 -144 149
-217 29 -35 29 -37 10 -42 -41 -11 -176 137 -238 260 -53 104 -75 193 -81 338
-8 157 -13 157 -53 0 -31 -120 -23 -246 25 -390 32 -96 88 -206 143 -282 14
-20 14 -22 -4 -32 -18 -10 -34 6 -150 152 -129 163 -158 207 -182 280 -19 60
-23 36 -10 -60 20 -143 66 -265 146 -391 40 -61 41 -68 14 -82 -17 -9 -24 -4
-55 37 -53 72 -122 218 -145 308 -26 103 -36 268 -21 365 17 115 68 261 141
408 37 72 64 132 62 132 -16 0 -154 -125 -197 -180 -150 -188 -216 -385 -202
-604 12 -178 59 -291 216 -515 74 -105 265 -416 435 -710 36 -62 37 -65 19
-83 -18 -18 -22 -15 -133 103 -136 145 -156 159 -231 159 -126 0 -293 -86
-438 -224 -132 -128 -208 -244 -231 -359 -23 -116 12 -187 163 -327 159 -146
347 -334 347 -346 0 -6 -19 -15 -42 -20 l-43 -9 -3 -299 c-2 -233 1 -301 10
-308 7 -4 201 -8 431 -8 261 0 417 -4 417 -10 0 -18 -65 -83 -97 -96 -23 -10
-84 -14 -211 -14 -161 0 -181 -2 -195 -18 -21 -23 -22 -56 -1 -76 12 -12 38
-16 112 -16 53 0 246 -3 427 -5 l330 -5 3 -75 3 -74 -373 -3 -373 -3 -105 -57
c-164 -88 -311 -152 -355 -154 -39 -2 -40 -3 -43 -42 -3 -39 -2 -40 35 -47 21
-3 139 -58 262 -121 l225 -114 358 0 c297 0 358 -2 358 -14 0 -7 3 -27 6 -44
l6 -31 -478 -3 -479 -3 -191 -195 c-327 -335 -495 -514 -510 -543 -37 -70 51
-151 123 -113 26 13 311 297 611 608 l123 128 130 0 c71 0 129 -2 129 -3 0 -2
-37 -33 -83 -69 -92 -73 -259 -242 -305 -310 -69 -100 -132 -265 -132 -344 0
-31 -1 -32 -56 -39 -256 -32 -443 -171 -505 -377 -63 -206 48 -424 239 -473
59 -15 64 -15 106 4 93 41 95 121 2 167 -28 15 -64 38 -79 52 -34 32 -61 119
-52 165 27 121 171 237 299 241 l51 1 7 -100 c11 -156 55 -286 143 -422 140
-213 276 -343 450 -428 61 -29 142 -61 182 -71 l72 -17 -1 -52 c-1 -53 2 -60
75 -175 13 -20 19 -56 23 -132 3 -56 12 -121 20 -143 15 -43 176 -211 248
-259 44 -29 93 -33 134 -12 29 15 302 300 302 315 0 10 -48 51 -60 51 -7 0
-171 -163 -192 -192 -12 -16 -17 -13 -59 35 l-47 53 212 219 212 219 -8 70
c-5 39 -11 72 -14 75 -3 3 -17 -10 -32 -29 -47 -62 -295 -310 -303 -304 -5 3
-6 -1 -4 -8 3 -7 -22 -40 -55 -73 -70 -69 -81 -70 -15 -1 24 26 37 45 28 44
-17 -3 -95 -83 -157 -160 -21 -27 -42 -48 -47 -48 -5 0 -16 11 -25 25 -15 23
-15 27 4 59 19 33 432 501 587 666 103 109 181 201 232 270 22 30 62 78 89
105 27 28 67 70 88 95 22 25 71 78 109 118 l70 73 89 -88 c48 -48 87 -91 85
-96 -1 -5 -15 -16 -30 -25 -27 -16 -27 -16 -82 38 -30 30 -55 50 -55 45 0 -6
-68 -84 -151 -175 -133 -145 -308 -346 -362 -416 -18 -24 -18 -24 2 -24 16 0
21 -6 21 -27 0 -16 10 -76 21 -135 l21 -106 -61 -73 c-33 -40 -61 -80 -61 -88
0 -9 94 -111 210 -226 l210 -210 68 68 c37 37 72 67 77 67 6 0 27 -5 48 -11
36 -10 37 -11 31 -45 -25 -133 120 -244 249 -190 81 34 131 130 108 212 -6 21
-9 39 -7 41 2 2 20 7 41 10 37 6 40 4 106 -68 l67 -74 67 65 c77 75 316 335
328 356 6 10 -19 42 -87 112 l-95 98 6 57 c3 31 9 57 13 57 4 0 89 -84 189
-186 l181 -186 0 154 0 154 -45 22 c-63 30 -125 71 -125 81 0 4 54 27 120 51
66 23 123 46 126 52 4 6 -22 36 -56 68 l-63 58 22 31 c12 17 24 31 27 31 3 0
28 -16 57 -35 28 -19 56 -35 62 -34 17 1 175 227 175 250 0 7 -24 37 -52 67
l-53 53 28 23 c15 12 50 30 77 40 52 19 86 52 97 94 5 21 -1 31 -30 54 -40 32
-41 22 9 104 l16 27 607 -605 c333 -333 617 -613 631 -622 28 -18 101 -21 133
-5 12 6 59 47 103 90 45 44 90 79 101 79 11 0 31 -13 46 -28 l28 -29 -35 -81
-35 -82 42 -24 c99 -58 91 -59 166 23 l66 73 55 -12 56 -12 19 -92 20 -91 74
-3 c41 -2 78 1 83 6 4 4 14 48 21 98 l13 89 48 18 48 17 46 -39 c26 -21 58
-51 71 -65 14 -14 28 -26 32 -26 4 0 35 25 68 56 l60 55 -45 73 c-24 41 -44
77 -44 82 0 5 18 29 39 53 l38 44 74 -12 c41 -6 84 -14 96 -17 19 -5 24 0 37
48 33 118 40 103 -64 150 -79 36 -91 45 -86 62 3 12 6 35 6 53 0 30 5 35 74
69 103 50 106 54 88 132 -13 60 -15 62 -45 62 -18 -1 -65 -7 -105 -14 -51 -9
-75 -9 -81 -2 -15 19 -32 81 -23 84 4 1 37 19 72 40 156 91 183 270 58 389
-127 122 -347 56 -365 -111 l-6 -46 -53 0 -54 0 0 41 c0 35 7 49 40 85 48 52
58 86 39 134 -13 34 -355 378 -847 852 l-163 158 3 47 3 48 49 3 49 3 231
-228 c127 -126 353 -346 502 -490 314 -302 321 -306 479 -307 99 -1 149 15
222 72 21 16 59 37 84 46 102 37 201 122 244 210 14 28 30 86 37 129 31 201
-60 381 -237 468 -63 31 -78 34 -155 34 -47 0 -100 -4 -118 -9 -32 -8 -35 -6
-157 115 -69 67 -125 126 -125 130 0 3 34 9 75 12 229 17 401 220 382 450 -8
97 -51 183 -126 257 -80 78 -141 101 -286 109 l-110 6 65 36 c242 135 252 139
332 139 125 0 235 47 327 142 174 177 171 470 -6 647 -67 66 -180 127 -254
137 -28 4 -48 10 -47 14 2 4 22 45 45 91 97 191 72 386 -69 535 -94 99 -189
134 -371 134 -87 0 -126 4 -148 16 -26 13 -28 18 -18 30 18 22 81 52 142 68
l52 13 7 87 c10 127 52 242 141 384 27 42 28 42 56 27 47 -24 58 -41 66 -101
8 -70 25 -86 147 -150 76 -39 97 -45 130 -41 22 3 50 15 63 27 23 22 193 296
234 377 38 75 18 159 -49 211 -36 27 -174 102 -190 102 -7 0 -37 -12 -66 -27
l-53 -27 -40 19 c-23 10 -41 20 -41 22 0 2 18 38 40 79 22 42 38 80 35 85 -7
11 -572 348 -681 406 -164 87 -312 123 -510 123 -190 0 -358 -40 -524 -126
-103 -53 -280 -175 -280 -193 0 -5 25 -28 55 -51 30 -23 55 -46 55 -50 0 -4
-11 -15 -25 -24 -26 -17 -61 -64 -53 -71 3 -3 52 7 109 21 291 72 411 72 629
-3 58 -20 107 -37 109 -39 2 -2 -6 -34 -17 -71 -38 -124 -151 -289 -260 -379
-36 -30 -70 -54 -74 -54 -4 0 -8 -39 -8 -87 0 -86 -19 -196 -37 -214 -4 -4
-38 -13 -73 -18 -36 -6 -82 -13 -102 -17 l-37 -6 118 258 c166 364 154 344
197 344 104 0 139 95 59 156 -63 48 -214 44 -469 -12 -60 -13 -111 -24 -113
-24 -2 0 -26 -48 -53 -106 -28 -58 -53 -104 -58 -102 -4 1 -59 29 -121 61
-108 56 -112 60 -106 85 3 15 10 30 14 35 6 6 143 63 193 80 16 6 14 15 -18
89 -78 183 -64 169 -298 288 -190 97 -206 107 -201 128 20 79 -121 111 -215
48 -50 -33 -100 -117 -100 -169 0 -46 22 -96 56 -128 22 -21 23 -24 7 -41 -20
-22 -39 -23 -47 -3 -7 18 -45 6 -93 -31 -17 -13 -34 -24 -36 -24 -3 0 -2 19 0
43 3 31 -1 53 -19 87 -34 63 -80 92 -141 89 -35 -2 -51 1 -57 12 -4 7 -22 66
-40 129 -17 63 -43 156 -56 205 -39 140 -62 184 -85 161z m-64 -136 c-3 -10 1
-29 9 -42 8 -13 15 -27 14 -31 0 -4 4 -20 10 -35 9 -25 45 -146 91 -307 11
-38 29 -101 40 -140 11 -38 17 -72 13 -76 -4 -4 -30 -9 -59 -13 l-52 -7 -11
43 c-6 24 -18 66 -26 95 -18 64 -18 68 1 49 8 -8 15 -24 15 -36 0 -12 7 -46
16 -76 13 -45 19 -54 37 -53 12 0 17 3 11 5 -6 3 -9 24 -6 56 3 39 1 54 -11
63 -9 6 -18 33 -22 61 -3 27 -17 66 -30 86 -14 21 -25 42 -25 48 0 5 -7 10
-15 10 -8 0 -15 -7 -15 -15 0 -14 -12 -19 -32 -16 -13 2 -9 -47 4 -51 8 -3 1
-12 -15 -22 -34 -23 -34 -41 -3 -171 14 -55 22 -103 18 -106 -4 -4 -21 -9 -38
-12 l-30 -6 -44 157 c-24 86 -47 165 -52 174 -12 25 -47 33 -66 14 -23 -23
-19 -66 23 -220 21 -75 35 -139 32 -142 -8 -8 -171 -44 -176 -39 -2 2 -21 66
-42 142 -48 176 -53 189 -80 204 -20 10 -25 9 -41 -11 -24 -29 -24 -28 16
-183 51 -195 54 -177 -34 -198 -41 -10 -80 -18 -87 -19 -14 0 -35 58 -64 180
-29 124 -38 149 -60 161 -25 13 -57 -4 -61 -33 -4 -28 11 -102 46 -232 15 -54
24 -101 21 -105 -9 -9 -168 -40 -177 -34 -5 2 -8 11 -8 18 0 26 -80 298 -91
312 -17 20 -47 16 -64 -11 -14 -22 -13 -34 25 -180 22 -86 40 -158 40 -160 0
-8 -148 -39 -161 -34 -8 3 -27 52 -42 109 -62 227 -75 254 -119 247 -41 -6
-38 -41 26 -282 15 -55 23 -103 19 -106 -11 -10 -103 -34 -108 -29 -13 14
-180 647 -172 655 3 3 56 17 119 31 62 14 190 42 283 62 94 21 366 82 605 135
239 53 469 104 510 115 101 25 102 25 95 1z m2467 -264 c140 -27 217 -62 518
-239 241 -141 276 -165 261 -180 -7 -7 -19 -7 -38 1 l-28 12 24 -20 24 -21
-22 -6 c-16 -4 -20 -11 -16 -24 8 -23 -8 -25 -25 -4 -13 16 -33 16 -30 1 1 -5
-4 -12 -11 -17 -10 -6 -10 -13 -1 -33 8 -19 8 -26 -1 -29 -9 -3 -9 -9 1 -26
14 -23 10 -26 -19 -11 -15 8 -19 7 -19 -4 0 -8 5 -18 11 -22 8 -5 6 -10 -5
-16 -9 -5 -16 -15 -16 -22 0 -8 -7 -16 -15 -20 -9 -3 -15 0 -15 10 0 8 -4 12
-10 9 -6 -4 -6 -12 2 -24 9 -15 7 -22 -10 -39 -11 -11 -23 -18 -27 -14 -3 3
-8 -4 -12 -16 -6 -26 -18 -28 -27 -5 -5 13 -9 14 -19 3 -9 -10 -9 -13 1 -17
21 -8 14 -32 -8 -26 -11 3 -20 0 -20 -6 0 -6 -9 -11 -20 -11 -14 0 -18 -5 -13
-17 4 -10 11 -21 17 -25 8 -5 7 -8 -1 -8 -6 0 -15 5 -18 10 -8 13 -35 13 -35
-1 0 -6 9 -13 19 -16 11 -3 22 -11 25 -19 7 -18 -8 -18 -23 0 -7 8 -26 21 -44
30 -18 9 -39 21 -47 26 -62 39 -273 156 -305 170 -64 27 -71 41 -42 87 52 83
88 164 81 185 -5 17 -3 20 10 15 10 -4 16 -1 16 7 0 8 5 16 11 18 6 2 9 13 6
23 -5 19 -5 19 -12 -2 -13 -41 -63 -19 -56 25 1 6 -3 12 -9 12 -5 0 -10 5 -10
11 0 17 -24 36 -39 31 -7 -2 -26 5 -42 17 -15 11 -33 21 -39 21 -5 0 -10 7
-10 15 0 18 -12 19 -27 4 -7 -7 -23 -5 -54 9 -24 11 -53 23 -64 27 -11 4 -96
10 -190 12 -149 4 -180 2 -250 -16 -43 -11 -81 -18 -83 -16 -7 7 102 72 164
98 92 38 189 68 267 82 97 18 279 18 369 1z m-2461 -109 c-10 -9 -11 -8 -5 6
3 10 9 15 12 12 3 -3 0 -11 -7 -18z m9 -61 c0 -6 -7 -1 -15 10 -8 10 -15 23
-15 28 0 6 7 1 15 -10 8 -10 15 -23 15 -28z m1005 -132 c88 -47 164 -90 169
-94 5 -6 4 -15 -3 -23 -10 -12 -33 -3 -148 55 -74 38 -139 66 -144 61 -19 -20
-143 -269 -170 -345 -67 -182 -21 -360 130 -508 32 -31 75 -65 97 -75 25 -12
33 -20 23 -23 -27 -5 -127 48 -181 97 -67 60 -124 148 -150 234 -27 91 -21
219 15 322 31 90 179 385 192 385 5 0 82 -39 170 -86z m-55 -53 c0 -24 -145
-304 -164 -316 -52 -32 -18 80 73 244 23 41 46 80 52 87 13 16 39 7 39 -15z
m2197 -163 c-3 -8 -6 -5 -6 6 -1 11 2 17 5 13 3 -3 4 -12 1 -19z m-2874 -135
c9 -31 15 -59 12 -61 -2 -3 -89 -22 -192 -43 -104 -22 -230 -48 -280 -60 -51
-11 -103 -18 -115 -14 -16 4 -19 4 -9 -3 10 -7 2 -12 -30 -17 -24 -4 -87 -17
-139 -30 -52 -13 -228 -53 -390 -89 -162 -36 -340 -77 -395 -90 -55 -14 -103
-22 -106 -18 -9 10 -59 193 -59 214 0 10 10 20 23 23 127 29 137 28 137 -6 0
-13 -7 -19 -23 -19 -26 0 -47 -17 -47 -38 0 -21 56 -13 316 47 313 72 700 156
834 182 63 12 178 34 255 49 199 40 189 41 208 -27z m1472 -55 c108 -61 98
-54 91 -67 -6 -9 -73 15 -147 53 l-26 13 -81 -162 c-64 -129 -90 -171 -124
-199 -58 -50 -130 -70 -232 -64 -87 5 -138 24 -208 80 -72 56 -44 62 82 18
106 -37 177 -39 256 -7 l57 22 80 165 c103 212 104 213 136 205 14 -3 67 -29
116 -57z m1691 2 c19 -12 29 -10 77 9 50 20 57 21 88 8 43 -18 119 -74 119
-87 0 -12 -108 -211 -124 -228 -10 -10 -22 -11 -60 -1 -55 14 -59 19 -66 83
-5 46 -9 53 -65 97 -33 27 -72 56 -87 66 -34 21 -35 33 -6 78 l23 34 40 -23
c22 -12 50 -28 61 -36z m-5472 -42 c8 -18 26 -51 40 -74 l25 -41 -162 -91
c-89 -49 -238 -130 -332 -180 -209 -109 -381 -203 -458 -249 -32 -19 -60 -34
-61 -32 -16 19 -86 146 -86 155 0 7 75 53 168 102 316 169 567 301 652 343 47
23 108 54 135 70 28 16 53 29 57 29 4 0 14 -15 22 -32z m4411 20 c14 -6 25
-14 25 -18 0 -4 66 -47 148 -96 217 -130 311 -194 266 -180 -13 4 -28 -1 -42
-14 -16 -15 -27 -18 -39 -12 -11 7 -21 5 -30 -4 -17 -16 -8 -54 11 -54 8 0 20
-7 27 -16 8 -10 -10 -5 -48 15 -67 33 -104 38 -142 17 l-24 -13 40 -29 c22
-16 82 -54 134 -84 l94 -54 -85 -42 c-47 -23 -104 -55 -126 -72 -48 -35 -178
-187 -188 -218 -4 -12 -15 -24 -26 -27 -11 -3 -22 -18 -26 -33 -6 -25 -34 -76
-82 -150 -6 -10 -17 -29 -24 -42 -6 -12 -18 -21 -26 -20 -8 2 -17 -3 -20 -11
-3 -9 0 -11 8 -6 8 5 11 3 8 -6 -3 -8 -15 -13 -27 -12 -14 2 -21 -3 -21 -13 0
-11 -5 -14 -17 -9 -40 16 -51 15 -86 -5 -20 -12 -37 -25 -37 -29 0 -4 16 -15
35 -24 24 -11 33 -21 29 -32 -4 -8 -2 -15 4 -15 6 0 12 5 14 11 4 11 68 -20
68 -33 0 -12 -15 -9 -28 4 -9 9 -12 8 -12 -4 0 -9 6 -19 13 -22 8 -4 5 -10
-10 -22 -13 -9 -23 -24 -23 -34 0 -24 -26 -43 -50 -37 -23 6 -27 -8 -5 -17 8
-3 15 -10 15 -16 0 -6 -23 1 -51 15 -44 23 -55 25 -85 15 -48 -16 -45 -43 9
-72 23 -13 42 -28 42 -35 0 -6 -13 -25 -28 -42 -15 -18 -33 -43 -39 -56 -6
-14 -15 -25 -20 -25 -4 0 -8 -7 -8 -15 0 -7 -6 -18 -12 -22 -7 -4 -18 -17 -24
-28 -14 -25 -96 -34 -122 -13 -12 10 -14 10 -8 1 5 -9 1 -13 -13 -13 -10 0
-22 6 -25 13 -5 9 -7 9 -12 0 -4 -8 -61 -12 -199 -13 l-195 -1 108 163 c573
865 674 1030 702 1153 7 28 12 87 11 131 -1 77 1 83 24 98 41 27 135 127 173
184 38 57 39 57 77 40z m-5310 -16 c-3 -3 -11 0 -18 7 -9 10 -8 11 6 5 10 -3
15 -9 12 -12z m45 -62 c0 -10 6 -20 14 -23 8 -3 20 -16 27 -28 10 -19 9 -21
-6 -15 -27 10 -38 -4 -18 -24 27 -26 53 -59 53 -67 0 -7 -18 11 -100 101 l-35
39 28 -7 c20 -5 27 -3 27 9 0 8 -4 15 -10 15 -5 0 -10 10 -10 21 0 18 2 19 15
9 8 -7 15 -20 15 -30z m3096 -85 c5 -20 -2 -34 -35 -70 -68 -74 -171 -247
-226 -380 -40 -97 -66 -222 -72 -340 -7 -147 4 -223 57 -391 23 -71 43 -136
45 -144 2 -8 10 -35 19 -60 9 -25 29 -84 45 -132 l29 -88 -287 0 -287 0 -12
138 c-30 340 -96 504 -279 685 -136 134 -257 212 -473 305 l-46 19 -13 77 c-7
43 -10 80 -8 82 3 3 31 9 63 14 33 4 246 49 474 100 228 50 525 116 660 145
135 29 254 56 265 58 53 12 75 7 81 -18z m-2055 -187 c7 -18 26 -54 41 -79 15
-25 28 -49 28 -52 0 -7 -136 -81 -549 -302 -162 -86 -330 -179 -373 -206 -44
-27 -81 -49 -83 -49 -4 0 -75 125 -118 207 l-28 52 23 12 c13 7 51 27 85 45
64 35 93 45 56 19 -13 -9 -20 -22 -17 -30 8 -21 -55 -91 -78 -87 -13 2 -18 -3
-18 -17 0 -27 3 -27 69 13 80 47 219 121 603 322 131 68 259 138 285 154 26
17 50 30 54 30 4 0 13 -15 20 -32z m364 -124 c11 -11 15 -30 14 -59 -2 -29 4
-52 19 -77 40 -65 22 -102 -48 -100 -87 4 -115 32 -97 100 9 33 8 47 -1 62
-17 27 -15 50 5 72 21 23 85 24 108 2z m4335 -104 c13 -9 13 -10 0 -10 -8 0
-22 5 -30 10 -13 9 -13 10 0 10 8 0 22 -5 30 -10z m-4639 -91 c-69 -83 -124
-187 -145 -279 -18 -77 -21 -232 -5 -298 25 -102 181 -389 246 -449 13 -13 21
-23 17 -23 -4 0 3 -11 16 -25 l23 -25 -115 0 c-63 0 -155 -3 -204 -6 l-89 -6
-23 75 c-34 108 -106 228 -182 306 -104 105 -232 161 -367 161 l-63 0 -25 50
c-14 28 -23 55 -20 60 3 5 54 35 113 66 59 31 188 101 287 154 99 54 241 130
315 170 74 41 162 88 195 106 33 19 66 34 73 34 7 0 -14 -32 -47 -71z m2347
49 c2 -11 -11 -21 -46 -32 -27 -9 -57 -25 -65 -34 -19 -21 -57 -107 -57 -130
0 -30 -16 -45 -39 -37 -25 8 -24 25 10 131 21 65 35 82 84 108 39 21 109 17
113 -6z m272 -15 c13 -9 105 -59 204 -110 100 -52 184 -97 187 -101 4 -4 -6
-35 -22 -70 l-28 -62 -111 56 c-62 30 -118 53 -126 50 -12 -5 -31 -53 -23 -60
2 -2 51 -29 109 -61 58 -32 106 -60 108 -61 6 -4 -52 -114 -60 -114 -5 0 -36
14 -69 31 -48 24 -64 28 -75 18 -18 -15 -18 -43 1 -59 13 -10 12 -17 -5 -51
-11 -21 -23 -39 -26 -39 -3 0 -33 17 -66 37 -49 30 -61 34 -69 22 -5 -8 -9
-19 -9 -26 0 -23 -19 -23 -64 -1 -25 12 -47 20 -49 17 -9 -10 -67 -117 -67
-123 0 -3 19 -15 43 -27 23 -12 49 -30 58 -41 8 -11 44 -37 80 -57 71 -42 72
-46 42 -124 -18 -47 -18 -49 1 -63 29 -21 2 -17 -39 6 -46 26 -71 25 -85 -1
-17 -31 -7 -44 52 -74 29 -14 57 -30 61 -34 4 -5 -105 -11 -243 -15 -139 -4
-254 -5 -257 -3 -6 6 162 398 295 687 54 118 123 272 152 343 30 70 59 127 65
127 6 0 21 -8 35 -17z m1040 -17 c0 -3 -18 -15 -39 -27 -31 -17 -44 -33 -63
-81 -17 -45 -31 -63 -53 -74 -41 -19 -127 -105 -169 -168 -29 -44 -126 -215
-260 -458 -22 -41 -44 -68 -54 -69 -11 0 -12 -2 -4 -6 9 -3 4 -20 -19 -61 -38
-69 -63 -97 -78 -88 -18 12 -12 24 9 19 14 -4 20 0 20 10 0 9 -8 18 -17 20
-13 3 -11 5 6 6 20 1 21 3 11 16 -14 17 -40 20 -40 5 0 -5 -7 -7 -15 -4 -9 4
-19 -3 -26 -20 -13 -29 -32 -36 -22 -8 30 79 313 626 362 698 93 140 189 220
325 270 54 20 126 31 126 20z m-3214 -277 c34 -32 32 -79 -6 -122 -39 -45 -39
-88 1 -207 17 -51 29 -93 27 -95 -6 -6 -112 -35 -129 -35 -13 0 -20 19 -34 93
-10 50 -26 116 -37 146 -34 101 -16 189 48 232 37 25 96 20 130 -12z m1772
-45 c1 0 -9 -32 -24 -70 -14 -38 -35 -93 -46 -121 -14 -38 -25 -53 -38 -53
-28 0 -100 40 -100 55 0 7 16 51 36 97 20 45 43 98 50 115 l14 33 53 -28 c28
-15 53 -27 55 -28z m2718 -59 c101 -50 164 -157 164 -280 0 -69 -25 -151 -60
-195 -20 -25 -20 -25 0 34 27 81 26 86 -15 86 -23 0 -35 -5 -35 -14 0 -28
-102 -126 -142 -137 -70 -18 -163 13 -212 72 -26 30 -27 30 -51 15 -14 -9 -25
-22 -25 -28 0 -23 74 -99 118 -123 29 -14 40 -24 28 -25 -30 0 -101 39 -149
84 -81 75 -111 218 -71 340 26 77 111 158 195 185 85 28 180 23 255 -14z
m-4120 -31 c38 -38 35 -66 -4 -45 -26 14 -89 14 -97 0 -4 -6 -14 -8 -22 -4
-25 9 -61 -22 -68 -58 -5 -27 1 -49 29 -106 l36 -71 -39 0 c-45 0 -40 -13 -67
157 -13 83 -14 106 -4 118 17 21 95 43 152 44 41 1 52 -3 84 -35z m-2211 -110
c-1 -10 -6 -18 -13 -16 -7 1 -12 -9 -12 -24 0 -15 -4 -23 -10 -19 -6 4 -8 15
-5 25 4 13 -1 19 -20 22 -24 5 -24 4 -10 -12 8 -9 15 -20 15 -23 0 -12 -35 -8
-48 5 -7 7 -12 8 -12 4 0 -5 8 -15 18 -22 16 -13 16 -15 -2 -28 -10 -8 -15
-19 -12 -24 3 -5 -1 -15 -9 -22 -12 -10 -15 -9 -15 4 0 10 -3 15 -8 12 -4 -2
-7 -20 -6 -39 2 -29 -1 -34 -16 -30 -10 3 -21 0 -25 -7 -5 -8 -10 -8 -21 1 -9
7 -14 8 -14 1 0 -6 5 -14 11 -18 7 -4 8 -9 0 -17 -7 -7 -15 -6 -25 2 -10 9
-16 9 -21 1 -4 -6 1 -18 11 -25 17 -13 17 -16 4 -25 -22 -14 -30 -12 -30 7 0
14 -3 14 -12 5 -10 -10 -10 -15 2 -22 13 -9 13 -11 0 -19 -9 -6 -19 -6 -26 0
-8 7 -14 6 -19 -1 -3 -5 1 -10 9 -10 9 0 16 -7 16 -15 0 -11 -5 -12 -25 -5
-15 6 -26 6 -30 0 -4 -6 1 -13 9 -16 9 -3 16 -12 16 -20 0 -8 5 -14 11 -14 5
0 8 -4 4 -9 -3 -5 -17 1 -31 14 -27 25 -54 24 -34 -1 18 -21 7 -40 -12 -20
-21 20 -28 20 -28 1 0 -8 8 -15 17 -15 13 0 14 -3 5 -12 -8 -8 -15 -8 -27 2
-19 15 -34 5 -17 -12 7 -7 12 -19 12 -27 -1 -12 -5 -10 -20 7 -10 12 -21 18
-24 13 -4 -5 -2 -12 4 -16 19 -12 10 -26 -11 -20 -31 10 9 -32 314 -333 141
-140 257 -259 257 -263 0 -5 -18 -9 -41 -9 -40 0 -47 6 -305 258 -146 141
-274 272 -286 290 -57 92 56 287 252 431 76 57 114 77 195 106 73 25 100 25
100 -1z m45 -15 c0 -6 -4 -7 -10 -4 -5 3 -10 11 -10 16 0 6 5 7 10 4 6 -3 10
-11 10 -16z m-10 -28 c0 -6 -4 -13 -10 -16 -5 -3 -10 1 -10 9 0 9 5 16 10 16
6 0 10 -4 10 -9z m-85 -49 c-8 -8 -25 10 -19 20 4 6 9 5 15 -3 4 -7 6 -15 4
-17z m35 8 c0 -5 -5 -10 -11 -10 -5 0 -7 5 -4 10 3 6 8 10 11 10 2 0 4 -4 4
-10z m-60 -35 c0 -8 -4 -15 -10 -15 -5 0 -10 7 -10 15 0 8 5 15 10 15 6 0 10
-7 10 -15z m4238 9 c23 -7 30 -28 11 -40 -14 -9 -59 16 -59 33 0 14 13 16 48
7z m-4200 -16 c-2 -6 -10 -14 -16 -16 -7 -2 -10 2 -6 12 7 18 28 22 22 4z
m-65 -44 c-4 -12 -8 -13 -14 -3 -9 15 -2 32 11 24 5 -3 6 -13 3 -21z m409
-193 c-78 -83 -142 -154 -142 -159 0 -5 6 -14 13 -20 10 -9 23 -6 51 9 21 11
40 18 42 16 3 -2 -2 -17 -11 -33 -19 -37 -19 -67 0 -104 17 -32 44 -45 78 -35
12 4 94 81 182 172 l160 164 33 -41 c42 -50 46 -43 -114 -205 -66 -66 -132
-135 -147 -153 -53 -65 -23 -91 51 -43 61 39 68 39 40 1 -45 -61 -15 -152 52
-158 30 -3 44 8 189 152 86 86 162 156 169 156 14 0 17 -96 3 -102 -16 -6
-162 -143 -177 -166 -8 -12 -19 -45 -24 -74 -6 -29 -20 -62 -32 -75 -21 -22
-27 -23 -197 -23 l-175 0 68 69 c60 60 67 71 57 89 -13 24 -59 62 -75 62 -6 0
-50 -42 -98 -92 l-88 -93 -65 69 -65 70 68 70 c37 39 71 74 77 78 13 10 -13
54 -52 89 -41 35 -44 34 -132 -68 l-64 -74 -39 38 c-22 21 -53 55 -70 76 l-30
38 76 79 c85 87 85 89 27 144 -17 16 -34 26 -38 23 -5 -4 -45 -44 -90 -89 -68
-68 -83 -79 -89 -65 -5 14 14 40 78 105 46 48 105 112 132 141 39 46 50 53 64
44 9 -6 16 -19 14 -29 -14 -80 -14 -83 12 -108 14 -14 31 -26 37 -26 7 0 80
67 163 150 l151 150 34 -35 34 -34 -141 -150z m2078 160 c13 -25 13 -41 -1
-41 -6 0 -30 -13 -54 -30 -53 -36 -59 -37 -73 -5 -11 23 -8 26 46 59 68 41 69
41 82 17z m-2559 -14 c-1 -12 -15 -9 -19 4 -3 6 1 10 8 8 6 -3 11 -8 11 -12z
m49 3 c0 -5 -5 -10 -11 -10 -5 0 -7 5 -4 10 3 6 8 10 11 10 2 0 4 -4 4 -10z
m-70 -51 c0 -6 -4 -7 -10 -4 -5 3 -10 11 -10 16 0 6 5 7 10 4 6 -3 10 -11 10
-16z m-50 -59 c0 -5 -5 -10 -11 -10 -5 0 -7 5 -4 10 3 6 8 10 11 10 2 0 4 -4
4 -10z m-30 -46 c0 -8 -4 -12 -10 -9 -5 3 -10 10 -10 16 0 5 5 9 10 9 6 0 10
-7 10 -16z m-70 -54 c0 -5 -4 -10 -10 -10 -5 0 -10 5 -10 10 0 6 5 10 10 10 6
0 10 -4 10 -10z m6093 -1 c38 -19 57 -51 57 -97 0 -37 -6 -50 -34 -78 -70 -70
-176 -24 -176 76 0 42 15 67 53 90 36 22 68 25 100 9z m808 -173 c74 -17 145
-59 164 -96 19 -36 6 -39 -36 -7 -26 19 -43 22 -112 22 l-82 0 -280 -159
c-154 -87 -301 -172 -328 -188 -26 -15 -50 -28 -53 -28 -3 0 -18 -8 -32 -19
-38 -26 -72 -36 -72 -19 0 7 44 72 98 143 l97 130 205 102 c265 132 316 147
431 119z m-4626 -204 c111 -24 248 -83 342 -146 76 -51 228 -201 280 -276 251
-368 221 -929 -67 -1220 -72 -73 -102 -97 -94 -77 4 11 1 17 -9 17 -8 0 -17
10 -21 23 -5 22 -6 21 -35 -11 -17 -18 -34 -38 -38 -45 -9 -13 -53 -40 -53
-32 0 3 14 19 30 35 17 16 30 32 30 35 0 13 -25 2 -47 -21 -13 -14 -30 -23
-38 -20 -8 3 -29 -7 -47 -22 -18 -15 -28 -21 -24 -13 6 10 5 12 -5 8 -8 -3
-32 -11 -54 -17 -22 -7 -49 -16 -60 -21 -11 -4 -59 -15 -106 -24 -67 -12 -165
-15 -447 -15 l-362 0 0 936 0 937 368 -6 c314 -5 380 -8 457 -25z m1597 18 c2
-3 2 -449 0 -992 l-2 -988 -23 0 c-58 0 -67 9 -67 65 l0 53 -227 -2 -228 -1
-3 938 -2 939 274 -4 c151 -1 276 -5 278 -8z m726 -90 c30 -52 103 -185 162
-295 133 -249 154 -285 161 -285 6 0 132 220 209 365 24 44 72 133 108 199
l65 119 308 -5 c170 -2 311 -7 314 -10 4 -3 -23 -50 -58 -104 -35 -55 -98
-155 -139 -224 -113 -187 -240 -393 -377 -609 -68 -107 -130 -209 -137 -227
-11 -26 -14 -115 -14 -424 l0 -390 -270 0 -270 0 0 395 0 396 -49 82 c-166
281 -219 371 -311 532 -57 99 -154 267 -217 372 -62 106 -113 198 -113 204 0
7 84 10 287 7 l287 -3 54 -95z m2307 -157 c22 2 49 7 60 11 17 7 17 5 -4 -13
-34 -31 -101 -29 -140 5 -43 36 -39 49 7 18 28 -20 46 -25 77 -21z m-5595
-288 l0 -125 -55 0 c-54 0 -55 0 -55 30 0 35 -43 71 -63 51 -8 -8 -7 -11 6
-11 20 0 39 -33 31 -54 -4 -10 -18 -16 -35 -16 -26 0 -29 3 -29 33 0 40 -8 53
-43 66 -32 12 -35 6 -7 -17 27 -22 32 -75 8 -80 -12 -2 -18 3 -18 15 -1 23
-17 43 -52 66 -30 19 -37 13 -13 -13 8 -9 16 -27 17 -40 4 -35 -29 -40 -41 -6
-6 13 -30 36 -54 50 l-44 26 -326 0 -327 0 0 23 c0 12 -3 46 -6 75 l-7 52 557
0 556 0 0 -125z m-448 -157 c21 -23 39 -51 40 -62 4 -67 41 -61 -343 -64
l-346 -2 -7 31 c-3 17 -6 56 -6 85 l0 54 312 0 311 0 39 -42z m3371 -88 c32
-36 36 -87 10 -130 -53 -91 -183 -48 -183 60 0 42 15 67 53 91 42 26 84 18
120 -21z m1482 -59 c-3 -6 -11 -11 -17 -11 -6 0 -6 6 2 15 14 17 26 13 15 -4z
m619 -40 c12 -10 41 -30 65 -44 42 -24 45 -25 88 -10 92 31 208 1 271 -72 74
-83 95 -172 67 -273 -53 -186 -275 -261 -430 -144 -53 40 -90 94 -81 117 4 11
23 15 77 15 57 0 77 -4 102 -22 84 -60 207 4 207 107 0 30 -8 45 -39 76 -32
32 -46 39 -78 39 -40 0 -76 -19 -106 -57 -17 -21 -27 -23 -103 -23 -89 0 -98
6 -70 45 7 11 17 31 21 44 l7 24 -226 -5 c-124 -2 -226 -1 -226 2 0 4 57 34
127 66 70 33 161 76 203 96 88 43 97 44 124 19z m-2029 -328 c4 -27 7 -209 8
-405 l2 -357 -58 -6 c-32 -4 -60 -5 -62 -3 -7 7 -7 733 0 776 l8 42 48 0 48 0
6 -47z m2043 -433 c183 -181 347 -337 364 -346 31 -16 43 -16 169 2 62 8 162
-25 217 -72 143 -122 129 -385 -26 -490 -87 -59 -114 -74 -133 -74 -12 0 -94
72 -212 186 -106 103 -207 202 -226 220 l-35 33 42 45 c47 51 46 50 32 77 -16
29 -40 23 -87 -23 l-43 -42 -35 34 -35 34 55 56 c60 60 66 78 34 98 -19 12
-26 9 -72 -35 -29 -26 -55 -52 -59 -58 -7 -9 -78 51 -78 66 0 4 23 33 52 64
54 59 56 73 15 99 -14 9 -27 1 -70 -42 -29 -28 -58 -52 -64 -52 -6 0 -22 15
-36 33 l-26 34 50 54 c50 55 58 76 37 97 -22 22 -43 13 -93 -38 -27 -27 -55
-50 -61 -50 -7 0 -26 16 -43 35 l-30 35 54 51 c61 57 68 83 29 101 -24 11 -29
9 -81 -45 -60 -63 -63 -63 -104 -5 l-20 28 50 57 c28 31 51 63 51 70 0 7 -11
15 -25 19 -21 5 -36 -3 -83 -44 l-58 -50 -45 34 -44 33 -132 1 -133 0 0 50 0
50 303 0 302 0 333 -330z m-5040 119 l3 -46 -366 -7 c-380 -7 -415 -4 -423 34
-1 9 16 26 40 42 l43 27 350 -2 350 -2 3 -46z m4436 -75 l85 -76 -50 -57 -51
-56 -101 105 c-56 58 -105 106 -109 108 -5 2 -8 9 -8 16 0 6 -13 13 -30 14
-35 3 -41 -15 -7 -20 18 -2 21 -8 19 -30 -3 -22 1 -28 15 -28 15 0 16 -2 3
-10 -8 -5 -32 -10 -54 -10 -30 0 -37 -3 -32 -15 3 -8 1 -15 -4 -15 -6 0 -10
33 -10 75 l0 75 125 0 124 0 85 -76z m-4666 -79 c7 -3 12 -21 12 -45 l0 -40
-238 0 -238 0 -49 31 c-48 31 -49 32 -29 48 18 14 51 16 275 13 139 -2 260 -5
267 -7z m4445 8 c-7 -2 -19 -2 -25 0 -7 3 -2 5 12 5 14 0 19 -2 13 -5z m-2826
-68 c0 -8 -6 -15 -13 -15 -7 0 -14 -6 -17 -12 -2 -7 -8 -10 -12 -6 -6 5 26 42
41 48 0 0 1 -7 1 -15z m3223 -30 l34 -35 -51 -52 -52 -51 -26 31 c-31 37 -46
41 -40 10 4 -21 4 -21 -13 -5 -16 17 -14 21 43 76 33 32 62 59 66 59 3 1 20
-14 39 -33z m-3370 -15 c0 -5 -4 -10 -10 -10 -5 0 -10 5 -10 10 0 6 5 10 10
10 6 0 10 -4 10 -10z m3155 -10 c10 -11 16 -20 13 -20 -3 0 -13 9 -23 20 -10
11 -16 20 -13 20 3 0 13 -9 23 -20z m-3095 -41 c0 -6 -4 -7 -10 -4 -5 3 -10
11 -10 16 0 6 5 7 10 4 6 -3 10 -11 10 -16z m3440 -135 c-44 -45 -66 -58 -76
-42 -4 7 -3 8 4 4 7 -4 12 -4 12 1 0 10 -62 47 -75 45 -5 -2 14 21 43 49 l54
52 36 -36 36 -37 -34 -36z m76 -55 c-14 -11 -24 -25 -20 -30 3 -5 2 -9 -3 -8
-21 4 -34 -2 -27 -13 5 -7 3 -8 -6 -3 -10 6 -3 17 26 42 21 18 43 33 48 33 5
0 -3 -9 -18 -21z m92 -53 c-2 0 -22 -18 -44 -39 -34 -32 -42 -36 -48 -22 -3 9
-2 13 4 10 5 -3 24 9 42 28 18 19 37 33 41 30 5 -3 7 -6 5 -7z m-688 -118 c69
-68 238 -234 376 -370 l251 -247 -55 -58 c-29 -32 -61 -71 -69 -87 l-16 -30
-17 57 c-10 31 -29 76 -44 100 -36 63 -143 157 -223 198 -65 33 -71 34 -183
34 -111 0 -118 -1 -185 -34 -90 -44 -190 -143 -235 -231 -29 -56 -34 -77 -38
-160 -4 -102 12 -189 49 -263 l20 -38 -37 -42 c-21 -23 -84 -91 -141 -152 -86
-91 -106 -108 -120 -99 -45 28 -41 38 65 148 81 84 102 112 102 135 0 36 -22
56 -47 43 -10 -6 -65 -58 -122 -116 -57 -58 -108 -106 -112 -106 -5 0 -16 12
-25 26 l-17 25 125 127 c128 129 148 155 148 191 0 20 -27 41 -53 41 -8 0 -74
-64 -147 -142 -72 -79 -135 -144 -140 -146 -7 -3 -162 151 -168 166 -4 12 128
152 143 152 7 0 20 -11 29 -25 9 -13 29 -31 45 -39 26 -14 30 -14 43 2 33 37
31 42 -58 132 -48 50 -90 90 -93 90 -4 0 -61 -54 -128 -121 -67 -66 -126 -118
-132 -115 -5 4 12 50 40 107 l50 102 -20 21 c-20 21 -20 21 7 57 15 19 51 63
81 97 47 54 58 62 90 62 32 0 46 -11 134 -97 l98 -98 169 172 c96 96 170 179
170 190 0 10 -43 58 -97 110 l-98 92 80 81 c44 44 84 80 90 79 5 0 53 -47 105
-104 52 -57 98 -103 101 -104 4 -1 26 16 50 38 l43 38 -64 67 -64 67 49 49
c27 28 54 50 59 50 6 0 66 -55 136 -122z m-4455 21 c35 -49 54 -68 65 -63 8 3
58 9 110 11 87 5 164 -6 230 -31 11 -5 27 12 55 59 22 36 45 65 52 65 6 0 32
-9 58 -20 52 -22 49 -6 23 -158 -10 -60 -4 -101 9 -54 3 12 8 22 10 22 21 0
133 -72 183 -117 l60 -55 33 15 c86 40 110 47 123 36 8 -6 14 -16 14 -21 0
-13 -102 -56 -161 -69 -27 -6 -49 -15 -49 -20 0 -6 14 -36 31 -69 36 -69 35
-90 -5 -103 -27 -9 -33 -5 -121 84 -62 63 -119 110 -172 142 -86 50 -93 53
-93 36 0 -5 5 -7 10 -4 6 3 10 2 10 -4 0 -5 10 -13 21 -16 17 -6 19 -9 8 -17
-10 -7 -8 -8 8 -3 14 4 29 -2 46 -17 23 -22 24 -25 11 -50 -13 -25 -12 -28 6
-38 15 -8 20 -8 20 1 0 18 11 4 15 -18 1 -10 7 -17 12 -16 5 1 10 -5 10 -13 0
-20 -3 -19 -57 28 -31 26 -46 47 -43 57 4 12 2 13 -4 3 -7 -9 -22 -5 -64 18
-116 64 -285 76 -429 31 -198 -62 -348 -259 -367 -482 -20 -229 166 -467 409
-524 132 -31 285 -10 411 57 136 73 256 263 257 408 0 41 8 54 34 57 17 1 18
-5 13 -70 -7 -95 -38 -184 -93 -268 -104 -157 -259 -244 -469 -264 -121 -11
-288 47 -391 138 -50 44 -117 128 -158 198 -25 44 -28 46 -51 35 -14 -6 -27
-17 -30 -24 -6 -15 71 -155 126 -229 22 -29 39 -60 39 -71 0 -22 -19 -42 -40
-42 -23 0 -127 95 -157 144 -25 39 -26 40 -35 17 -6 -17 -4 -31 7 -47 8 -13
15 -25 15 -28 0 -2 -21 -11 -47 -19 -94 -29 -89 -31 -128 33 -19 32 -35 64
-35 73 0 8 23 35 52 60 l52 44 -27 81 c-15 45 -27 91 -27 102 0 39 -19 58 -85
81 l-65 24 0 60 c0 33 4 66 9 74 5 7 37 18 72 25 l63 11 18 60 c9 33 27 81 39
106 l21 46 -45 64 -45 64 36 52 c21 29 44 53 52 52 8 0 42 -10 75 -22 l60 -22
41 42 c23 23 79 63 124 89 l81 47 -7 76 -6 76 53 26 c30 14 56 26 59 27 3 1
27 -30 55 -69z m3368 -8 c9 -9 9 -14 -2 -20 -9 -6 -10 -11 -2 -15 6 -4 16 -4
21 -1 19 11 40 -15 34 -41 -7 -26 5 -31 24 -12 9 9 12 8 12 -5 0 -9 -4 -17
-10 -17 -5 0 -10 -7 -10 -15 0 -14 2 -14 23 0 23 14 37 12 37 -7 0 -5 -4 -6
-10 -3 -5 3 -10 2 -10 -3 0 -4 -10 -19 -22 -32 l-22 -23 25 5 c13 3 32 9 42
13 12 5 17 3 17 -8 0 -9 -13 -18 -30 -22 -16 -4 -33 -11 -37 -17 -4 -8 0 -9
13 -4 10 4 27 9 37 11 9 2 21 6 26 9 5 3 24 -1 42 -9 32 -14 33 -15 12 -21
-13 -3 -23 -10 -23 -14 0 -4 -9 -10 -20 -13 -11 -3 -20 -10 -20 -16 0 -14 17
-14 25 -1 3 6 15 10 26 10 11 0 22 7 25 15 4 8 14 15 23 14 12 0 11 -3 -6 -16
-13 -8 -23 -22 -23 -31 0 -13 3 -12 20 3 23 21 50 13 50 -15 0 -11 7 -20 15
-20 22 0 18 -13 -9 -33 -20 -15 -23 -25 -19 -53 5 -29 3 -33 -11 -28 -11 4
-16 1 -16 -10 0 -9 -2 -16 -4 -16 -2 0 -13 -3 -23 -7 -11 -5 -7 5 14 27 30 32
34 50 12 50 -5 0 -9 -7 -9 -15 0 -8 -7 -15 -15 -15 -7 0 -18 -7 -23 -16 -5
-10 -12 -12 -15 -7 -4 6 2 18 13 28 24 21 26 35 6 35 -8 0 -17 -9 -21 -19 -3
-11 -12 -22 -20 -25 -18 -7 -86 17 -140 48 -38 23 -386 365 -394 388 -5 16
356 5 372 -11z m-1553 -164 c12 -15 20 -31 18 -36 -4 -10 -184 -207 -215 -235
-27 -23 -29 -36 -8 -36 16 0 20 -12 8 -23 -3 -4 -12 1 -19 10 -11 16 -14 16
-39 -9 -16 -16 -24 -32 -19 -39 5 -9 11 -7 20 6 8 10 17 16 20 12 4 -3 -1 -14
-11 -23 -16 -16 -16 -19 -1 -29 9 -7 16 -16 16 -20 0 -5 -9 0 -20 10 -11 10
-20 14 -21 9 0 -5 -5 2 -10 15 -7 18 -13 21 -21 13 -8 -8 -8 -15 2 -27 7 -8
10 -19 6 -22 -4 -4 -11 -1 -15 6 -5 7 -14 10 -20 7 -6 -4 -9 -12 -6 -17 3 -5
-1 -6 -10 -2 -13 4 -16 1 -13 -13 2 -10 11 -18 21 -18 21 2 13 -12 -16 -28
-19 -10 -20 -9 -10 4 14 16 8 28 -15 28 -8 0 -12 -6 -8 -15 3 -9 0 -15 -8 -15
-7 0 -22 -11 -32 -25 -10 -14 -24 -25 -31 -25 -7 0 -16 -7 -21 -16 -6 -10 -14
-14 -22 -9 -8 5 -3 16 19 36 17 15 31 33 31 38 0 6 7 11 15 11 8 0 15 7 15 15
0 23 -15 18 -40 -15 -13 -16 -29 -30 -36 -30 -7 0 -14 -6 -17 -12 -2 -7 -8
-10 -12 -6 -5 5 4 18 18 31 30 25 35 39 11 30 -9 -3 -19 0 -24 7 -6 9 -12 9
-29 0 -73 -38 -33 12 282 357 107 117 135 142 161 145 42 4 80 -12 106 -45z
m532 36 c14 -13 18 -31 18 -85 l0 -68 65 0 c53 0 68 -4 85 -22 25 -27 26 -59
1 -89 -17 -21 -28 -24 -83 -24 l-63 0 -3 -50 c-4 -77 -9 -91 -43 -105 -27 -11
-33 -11 -57 7 -23 17 -28 29 -32 84 l-5 64 -73 0 c-76 1 -94 9 -106 52 -5 16
1 30 22 54 31 34 68 42 125 25 l27 -8 0 71 c0 58 4 75 20 91 24 24 77 26 102
3z m1173 -23 c3 -5 1 -10 -4 -10 -6 0 -11 5 -11 10 0 6 2 10 4 10 3 0 8 -4 11
-10z m36 -37 c13 -16 12 -17 -3 -4 -10 7 -18 15 -18 17 0 8 8 3 21 -13z m-681
-60 c0 -34 20 -65 83 -128 l47 -47 -46 -77 c-150 -246 -165 -291 -125 -369 11
-20 33 -50 50 -66 17 -17 31 -32 31 -36 0 -3 -30 -11 -66 -18 -37 -7 -88 -22
-115 -33 -48 -21 -118 -88 -151 -145 -10 -16 -47 -74 -83 -129 -72 -109 -86
-146 -73 -187 5 -15 56 -68 114 -119 57 -50 104 -93 104 -95 0 -10 -48 -27
-87 -30 -25 -3 -52 -11 -60 -19 -8 -8 -23 -20 -34 -26 -25 -13 -50 5 -179 133
-52 51 -105 101 -118 110 l-23 16 31 63 c18 35 65 123 105 194 40 72 112 204
160 295 48 91 122 226 165 300 42 74 114 204 161 288 82 149 109 180 109 125z
m815 -123 c-3 -5 -12 -10 -18 -10 -7 0 -6 4 3 10 19 12 23 12 15 0z m-5 -45
c7 -9 11 -17 8 -20 -2 -2 -12 4 -21 15 -9 11 -13 20 -8 20 5 0 14 -7 21 -15z
m-3375 -40 c83 -22 147 -60 206 -122 60 -63 96 -138 111 -229 27 -161 -60
-337 -201 -408 -53 -27 -76 -33 -66 -16 4 6 11 8 16 5 5 -4 9 -1 9 4 0 6 6 11
13 11 8 0 23 8 35 18 11 9 28 22 37 27 10 7 18 30 22 68 3 32 10 60 14 63 5 3
9 10 9 15 0 6 -28 -18 -63 -53 -90 -92 -137 -113 -262 -115 -72 -1 -106 2
-122 13 -30 19 -35 18 -57 -14 -11 -15 -14 -22 -7 -16 7 7 21 9 32 7 17 -5 20
-10 18 -30 0 -5 17 -13 38 -20 26 -8 31 -12 16 -12 -38 -2 -133 42 -179 83
-117 102 -170 252 -139 397 49 236 287 384 520 324z m3365 -45 c0 -5 -2 -10
-4 -10 -3 0 -8 5 -11 10 -3 6 -1 10 4 10 6 0 11 -4 11 -10z m877 -55 c27 -8
69 -28 93 -44 51 -34 110 -106 110 -134 0 -16 -8 -11 -42 25 -63 67 -131 98
-215 98 -83 0 -134 -22 -184 -77 -88 -97 -84 -249 8 -334 47 -44 96 -69 136
-69 23 0 36 -4 32 -10 -10 -15 -87 -12 -144 7 -123 39 -195 185 -157 317 32
108 116 196 213 222 64 17 90 17 150 -1z m-2480 -74 c93 -50 131 -101 153
-204 30 -145 -72 -310 -214 -348 -67 -18 -176 -7 -229 24 -193 114 -219 344
-55 492 65 58 115 75 208 72 63 -3 86 -9 137 -36z m-787 -10 c0 -12 -20 -25
-27 -18 -7 7 6 27 18 27 5 0 9 -4 9 -9z m181 -48 c13 -17 12 -17 -4 -3 -17 12
-20 12 -29 -3 -9 -17 -28 -15 -28 3 0 7 14 14 41 19 4 0 13 -7 20 -16z m3728
-78 c-3 -22 -148 -147 -181 -155 -18 -4 -41 -11 -50 -15 -14 -6 -18 -2 -18 15
0 14 25 48 71 93 39 39 82 86 97 105 l26 34 28 -33 c15 -18 27 -38 27 -44z
m-3789 46 c0 -5 -7 -11 -15 -15 -15 -5 -20 5 -8 17 9 10 23 9 23 -2z m45 -1
c3 -5 1 -10 -4 -10 -6 0 -11 5 -11 10 0 6 2 10 4 10 3 0 8 -4 11 -10z m-84
-33 c-1 -12 -15 -9 -19 4 -3 6 1 10 8 8 6 -3 11 -8 11 -12z m3309 -117 c0 -30
-5 -62 -10 -70 -7 -10 -9 12 -9 69 1 53 4 79 10 70 5 -8 9 -39 9 -69z m-60 -9
c0 -32 -48 -80 -91 -91 -41 -11 -102 0 -114 21 -4 5 5 5 20 -1 15 -6 45 -10
67 -10 34 0 46 6 74 36 19 19 34 42 34 50 0 8 2 14 5 14 3 0 5 -9 5 -19z
m1013 -15 c48 -20 69 -50 74 -103 7 -83 -48 -145 -130 -145 -51 0 -91 18 -126
56 l-24 26 26 24 c19 18 27 35 27 59 0 34 21 61 65 85 27 15 49 15 88 -2z
m-926 -28 c-3 -8 -6 -5 -6 6 -1 11 2 17 5 13 3 -3 4 -12 1 -19z m528 -153
c108 -29 221 -106 260 -178 16 -30 17 -38 6 -51 -22 -26 -60 -19 -102 19 -73
66 -147 92 -290 104 -68 5 -90 4 -93 -6 -8 -19 -114 -63 -133 -56 -11 4 -14 3
-9 -6 5 -7 -12 -32 -41 -64 -26 -29 -63 -80 -80 -113 l-32 -59 -1 75 c0 89 17
133 80 205 49 57 74 74 145 99 28 10 59 22 70 26 39 16 51 18 105 19 31 1 82
-6 115 -14z m-4895 -175 c0 -5 -5 -10 -11 -10 -5 0 -7 5 -4 10 3 6 8 10 11 10
2 0 4 -4 4 -10z m3820 -16 c0 -19 -31 -57 -122 -152 -67 -70 -125 -128 -128
-130 -4 -1 -13 4 -20 13 -11 13 -11 20 1 42 15 28 246 253 260 253 5 0 9 -12
9 -26z m220 -13 c6 -13 10 -144 10 -360 l0 -340 -22 -15 c-12 -9 -26 -16 -30
-16 -5 0 -8 169 -8 375 0 366 0 375 20 375 10 0 24 -9 30 -19z m856 -22 c68
-18 134 -76 174 -153 32 -64 35 -76 34 -155 0 -73 -4 -94 -28 -141 -37 -74
-77 -113 -148 -145 -55 -25 -69 -27 -147 -23 -138 7 -222 63 -278 184 -34 75
-34 184 0 256 71 153 221 220 393 177z m-3644 -81 c23 -42 25 -43 82 -48 57
-5 59 -5 87 29 27 34 29 34 68 23 21 -7 49 -20 60 -30 21 -16 21 -19 6 -61
-18 -51 -18 -54 -6 -46 5 3 32 -18 59 -47 l49 -52 56 16 c63 18 64 18 98 -49
l19 -37 -35 -36 -34 -35 12 -55 12 -55 58 -9 57 -8 0 -59 0 -59 -65 0 c-52 0
-65 -3 -65 -15 0 -9 -12 -39 -27 -68 -15 -29 -28 -58 -29 -65 -1 -8 -6 -21
-10 -30 -4 -9 -8 -24 -8 -32 -1 -9 -9 -14 -23 -13 -14 2 -44 -13 -74 -36 -71
-53 -128 -80 -196 -91 -133 -22 -222 -5 -335 65 -74 45 -74 46 -111 30 -20 -8
-40 -15 -45 -15 -5 0 -25 23 -45 51 -34 49 -35 53 -20 75 8 13 18 22 23 19 4
-2 3 19 -1 47 -5 32 -5 56 1 63 10 12 -47 25 -111 25 -17 0 -29 5 -29 13 0 6
-3 29 -6 49 -6 36 -5 37 44 62 59 30 55 26 75 92 l15 52 -30 37 c-34 41 -32
51 23 118 28 33 28 34 77 24 49 -10 51 -10 93 27 24 20 54 39 66 42 20 5 23
13 23 54 0 48 0 49 43 63 64 23 73 21 99 -25z m2568 -95 c-1 -45 -5 -52 -71
-122 l-70 -74 -26 26 -27 26 75 78 c41 43 81 86 89 95 24 27 30 21 30 -29z
m-3882 -468 c32 -37 31 -107 -3 -140 -44 -45 -117 -28 -150 35 -20 39 -9 85
28 116 39 33 91 28 125 -11z m1882 -249 c0 -2 -8 -10 -17 -17 -16 -13 -17 -12
-4 4 13 16 21 21 21 13z m-45 -55 c-3 -6 -11 -11 -16 -11 -5 0 -4 6 3 14 14
16 24 13 13 -3z"/>
<path d="M5146 8754 c-4 -14 -5 -28 -3 -31 3 -2 8 8 11 23 4 14 5 28 3 31 -3
2 -8 -8 -11 -23z"/>
<path d="M5152 8640 c0 -14 2 -19 5 -12 2 6 2 18 0 25 -3 6 -5 1 -5 -13z"/>
<path d="M5105 8598 c-19 -58 -25 -102 -16 -111 18 -18 25 1 27 64 1 57 -2 72
-11 47z m2 -90 c-3 -8 -6 -5 -6 6 -1 11 2 17 5 13 3 -3 4 -12 1 -19z"/>
<path d="M7530 8560 c0 -5 5 -10 10 -10 6 0 10 5 10 10 0 6 -4 10 -10 10 -5 0
-10 -4 -10 -10z"/>
<path d="M7575 8540 c3 -5 10 -10 16 -10 5 0 9 5 9 10 0 6 -7 10 -16 10 -8 0
-12 -4 -9 -10z"/>
<path d="M7345 8530 c-3 -5 -1 -10 4 -10 6 0 11 5 11 10 0 6 -2 10 -4 10 -3 0
-8 -4 -11 -10z"/>
<path d="M7660 8530 c0 -5 5 -10 11 -10 5 0 7 5 4 10 -3 6 -8 10 -11 10 -2 0
-4 -4 -4 -10z"/>
<path d="M7215 8520 c-3 -5 -1 -10 4 -10 6 0 11 5 11 10 0 6 -2 10 -4 10 -3 0
-8 -4 -11 -10z"/>
<path d="M7456 8521 c-4 -5 -2 -12 3 -15 5 -4 12 -2 15 3 4 5 2 12 -3 15 -5 4
-12 2 -15 -3z"/>
<path d="M7385 8510 c-3 -5 -1 -10 4 -10 6 0 11 5 11 10 0 6 -2 10 -4 10 -3 0
-8 -4 -11 -10z"/>
<path d="M7535 8510 c3 -5 10 -10 16 -10 5 0 9 5 9 10 0 6 -7 10 -16 10 -8 0
-12 -4 -9 -10z"/>
<path d="M7630 8510 c0 -5 5 -10 10 -10 6 0 10 5 10 10 0 6 -4 10 -10 10 -5 0
-10 -4 -10 -10z"/>
<path d="M7775 8510 c3 -5 8 -10 11 -10 2 0 4 5 4 10 0 6 -5 10 -11 10 -5 0
-7 -4 -4 -10z"/>
<path d="M7730 8500 c0 -5 5 -10 10 -10 6 0 10 5 10 10 0 6 -4 10 -10 10 -5 0
-10 -4 -10 -10z"/>
<path d="M7420 8485 c0 -9 5 -15 11 -13 6 2 11 8 11 13 0 5 -5 11 -11 13 -6 2
-11 -4 -11 -13z"/>
<path d="M7500 8485 c0 -8 5 -15 10 -15 6 0 10 7 10 15 0 8 -4 15 -10 15 -5 0
-10 -7 -10 -15z"/>
<path d="M7580 8491 c0 -11 31 -24 39 -16 3 3 -1 10 -9 15 -19 12 -30 12 -30
1z"/>
<path d="M7700 8480 c0 -5 5 -10 11 -10 5 0 7 5 4 10 -3 6 -8 10 -11 10 -2 0
-4 -4 -4 -10z"/>
<path d="M7660 8466 c0 -9 7 -16 16 -16 9 0 14 5 12 12 -6 18 -28 21 -28 4z"/>
<path d="M7795 8470 c3 -5 8 -10 11 -10 2 0 4 5 4 10 0 6 -5 10 -11 10 -5 0
-7 -4 -4 -10z"/>
<path d="M7457 8464 c-8 -8 1 -24 14 -24 5 0 9 7 9 15 0 15 -12 20 -23 9z"/>
<path d="M7552 8457 c-9 -11 -10 -17 -2 -22 15 -9 23 -1 18 21 -3 15 -4 16
-16 1z"/>
<path d="M7750 8460 c0 -5 5 -10 10 -10 6 0 10 5 10 10 0 6 -4 10 -10 10 -5 0
-10 -4 -10 -10z"/>
<path d="M7622 8439 c2 -7 10 -15 17 -17 8 -3 12 1 9 9 -2 7 -10 15 -17 17 -8
3 -12 -1 -9 -9z"/>
<path d="M7715 8440 c-3 -5 1 -10 10 -10 9 0 13 5 10 10 -3 6 -8 10 -10 10 -2
0 -7 -4 -10 -10z"/>
<path d="M7810 8430 c0 -5 5 -10 10 -10 6 0 10 5 10 10 0 6 -4 10 -10 10 -5 0
-10 -4 -10 -10z"/>
<path d="M7680 8415 c0 -8 5 -15 10 -15 6 0 10 7 10 15 0 8 -4 15 -10 15 -5 0
-10 -7 -10 -15z"/>
<path d="M7780 8420 c0 -5 5 -10 10 -10 6 0 10 5 10 10 0 6 -4 10 -10 10 -5 0
-10 -4 -10 -10z"/>
<path d="M7592 8404 c3 -17 21 -21 26 -6 1 5 -4 12 -13 16 -11 4 -15 1 -13
-10z"/>
<path d="M7746 8411 c-4 -5 -2 -12 3 -15 5 -4 12 -2 15 3 4 5 2 12 -3 15 -5 4
-12 2 -15 -3z"/>
<path d="M7650 8394 c0 -8 5 -12 10 -9 6 3 10 10 10 16 0 5 -4 9 -10 9 -5 0
-10 -7 -10 -16z"/>
<path d="M7706 8392 c-3 -6 -1 -14 5 -17 15 -10 25 3 12 16 -7 7 -13 7 -17 1z"/>
<path d="M7830 8390 c0 -5 5 -10 10 -10 6 0 10 5 10 10 0 6 -4 10 -10 10 -5 0
-10 -4 -10 -10z"/>
<path d="M7760 8370 c0 -5 5 -10 10 -10 6 0 10 5 10 10 0 6 -4 10 -10 10 -5 0
-10 -4 -10 -10z"/>
<path d="M7800 8370 c0 -5 5 -10 11 -10 5 0 7 5 4 10 -3 6 -8 10 -11 10 -2 0
-4 -4 -4 -10z"/>
<path d="M7666 8355 c4 -9 11 -14 16 -13 15 5 11 23 -6 26 -11 2 -14 -2 -10
-13z"/>
<path d="M7726 8353 c-11 -11 -6 -23 9 -23 8 0 15 4 15 9 0 13 -16 22 -24 14z"/>
<path d="M7816 8331 c-4 -7 -5 -15 -2 -18 9 -9 19 4 14 18 -4 11 -6 11 -12 0z"/>
<path d="M7762 8318 c6 -18 28 -21 28 -4 0 9 -7 16 -16 16 -9 0 -14 -5 -12
-12z"/>
<path d="M7685 8309 c-4 -6 -5 -13 -2 -16 7 -7 27 6 27 18 0 12 -17 12 -25 -2z"/>
<path d="M8280 8230 c0 -5 5 -10 10 -10 6 0 10 5 10 10 0 6 -4 10 -10 10 -5 0
-10 -4 -10 -10z"/>
<path d="M8328 8219 c-19 -11 -24 -29 -8 -29 5 0 14 9 20 20 12 23 12 23 -12
9z"/>
<path d="M8350 8190 c-20 -12 -5 -24 16 -12 9 5 12 12 7 15 -5 3 -15 2 -23 -3z"/>
<path d="M8240 8180 c0 -5 5 -10 10 -10 6 0 10 5 10 10 0 6 -4 10 -10 10 -5 0
-10 -4 -10 -10z"/>
<path d="M8286 8165 c-17 -17 -21 -35 -8 -35 9 0 35 40 29 46 -3 3 -12 -2 -21
-11z"/>
<path d="M8210 8139 c0 -5 5 -7 10 -4 6 3 10 8 10 11 0 2 -4 4 -10 4 -5 0 -10
-5 -10 -11z"/>
<path d="M8240 8110 c0 -5 5 -10 10 -10 6 0 10 5 10 10 0 6 -4 10 -10 10 -5 0
-10 -4 -10 -10z"/>
<path d="M8170 8100 c0 -5 5 -10 10 -10 6 0 10 5 10 10 0 6 -4 10 -10 10 -5 0
-10 -4 -10 -10z"/>
<path d="M8270 8086 c0 -9 5 -16 10 -16 6 0 10 4 10 9 0 6 -4 13 -10 16 -5 3
-10 -1 -10 -9z"/>
<path d="M8210 8080 c0 -5 5 -10 10 -10 6 0 10 5 10 10 0 6 -4 10 -10 10 -5 0
-10 -4 -10 -10z"/>
<path d="M8130 8069 c0 -5 5 -7 10 -4 6 3 10 8 10 11 0 2 -4 4 -10 4 -5 0 -10
-5 -10 -11z"/>
<path d="M8170 8050 c0 -5 5 -10 10 -10 6 0 10 5 10 10 0 6 -4 10 -10 10 -5 0
-10 -4 -10 -10z"/>
<path d="M8230 8050 c0 -5 7 -10 16 -10 8 0 12 5 9 10 -3 6 -10 10 -16 10 -5
0 -9 -4 -9 -10z"/>
<path d="M8140 8020 c0 -5 5 -10 10 -10 6 0 10 5 10 10 0 6 -4 10 -10 10 -5 0
-10 -4 -10 -10z"/>
<path d="M8200 8020 c0 -5 5 -10 10 -10 6 0 10 5 10 10 0 6 -4 10 -10 10 -5 0
-10 -4 -10 -10z"/>
<path d="M8110 7999 c0 -5 5 -7 10 -4 6 3 10 8 10 11 0 2 -4 4 -10 4 -5 0 -10
-5 -10 -11z"/>
<path d="M8235 8000 c-8 -13 -1 -24 14 -19 6 3 7 10 2 18 -6 10 -10 10 -16 1z"/>
<path d="M8180 7985 c0 -8 5 -15 10 -15 6 0 10 7 10 15 0 8 -4 15 -10 15 -5 0
-10 -7 -10 -15z"/>
<path d="M8080 7970 c0 -5 5 -10 10 -10 6 0 10 5 10 10 0 6 -4 10 -10 10 -5 0
-10 -4 -10 -10z"/>
<path d="M8140 7970 c0 -5 7 -10 15 -10 8 0 15 5 15 10 0 6 -7 10 -15 10 -8 0
-15 -4 -15 -10z"/>
<path d="M8050 7930 c0 -5 5 -10 10 -10 6 0 10 5 10 10 0 6 -4 10 -10 10 -5 0
-10 -4 -10 -10z"/>
<path d="M8120 7930 c0 -5 5 -10 10 -10 6 0 10 5 10 10 0 6 -4 10 -10 10 -5 0
-10 -4 -10 -10z"/>
<path d="M8170 7930 c0 -5 9 -10 21 -10 11 0 17 5 14 10 -3 6 -13 10 -21 10
-8 0 -14 -4 -14 -10z"/>
<path d="M8090 7895 c0 -9 5 -15 11 -13 6 2 11 8 11 13 0 5 -5 11 -11 13 -6 2
-11 -4 -11 -13z"/>
<path d="M8140 7900 c0 -5 5 -10 10 -10 6 0 10 5 10 10 0 6 -4 10 -10 10 -5 0
-10 -4 -10 -10z"/>
<path d="M8030 7890 c0 -5 5 -10 11 -10 5 0 7 5 4 10 -3 6 -8 10 -11 10 -2 0
-4 -4 -4 -10z"/>
<path d="M7990 7860 c0 -5 5 -10 10 -10 6 0 10 5 10 10 0 6 -4 10 -10 10 -5 0
-10 -4 -10 -10z"/>
<path d="M8065 7850 c3 -5 10 -10 16 -10 5 0 9 5 9 10 0 6 -7 10 -16 10 -8 0
-12 -4 -9 -10z"/>
<path d="M7950 7830 c0 -5 5 -10 10 -10 6 0 10 5 10 10 0 6 -4 10 -10 10 -5 0
-10 -4 -10 -10z"/>
<path d="M8022 7828 c6 -18 28 -21 28 -4 0 9 -7 16 -16 16 -9 0 -14 -5 -12
-12z"/>
<path d="M7987 7804 c-8 -8 1 -24 14 -24 5 0 9 7 9 15 0 15 -12 20 -23 9z"/>
<path d="M7540 7512 c0 -23 19 -41 86 -80 42 -25 53 -27 67 -17 16 11 8 19
-63 64 -44 28 -83 51 -85 51 -3 0 -5 -8 -5 -18z"/>
<path d="M7680 7189 c0 -5 5 -7 10 -4 6 3 10 8 10 11 0 2 -4 4 -10 4 -5 0 -10
-5 -10 -11z"/>
<path d="M7615 7120 c-3 -5 -1 -10 4 -10 6 0 11 5 11 10 0 6 -2 10 -4 10 -3 0
-8 -4 -11 -10z"/>
<path d="M7465 7050 c-3 -5 -1 -10 4 -10 6 0 11 5 11 10 0 6 -2 10 -4 10 -3 0
-8 -4 -11 -10z"/>
<path d="M7425 6810 c3 -5 8 -10 11 -10 2 0 4 5 4 10 0 6 -5 10 -11 10 -5 0
-7 -4 -4 -10z"/>
<path d="M7190 6549 c0 -5 5 -7 10 -4 6 3 10 8 10 11 0 2 -4 4 -10 4 -5 0 -10
-5 -10 -11z"/>
<path d="M7290 6545 c-10 -13 -9 -15 9 -15 11 0 21 4 21 9 0 18 -18 21 -30 6z"/>
<path d="M7237 6533 c-4 -3 -7 -11 -7 -17 0 -6 5 -5 12 2 6 6 9 14 7 17 -3 3
-9 2 -12 -2z"/>
<path d="M7266 6494 c-4 -9 -4 -19 -2 -21 8 -8 26 8 26 23 0 19 -16 18 -24 -2z"/>
<path d="M7200 6480 c0 -5 7 -10 15 -10 8 0 15 5 15 10 0 6 -7 10 -15 10 -8 0
-15 -4 -15 -10z"/>
<path d="M4700 7549 c-78 -23 -134 -88 -152 -173 -9 -47 -8 -63 6 -101 46
-119 188 -181 291 -128 82 43 125 114 125 206 0 129 -143 233 -270 196z"/>
<path d="M4167 7432 c-49 -54 31 -113 86 -64 19 16 20 16 14 -1 -5 -13 8 -28
51 -62 63 -50 70 -52 79 -28 4 11 -7 27 -37 52 -24 20 -65 55 -92 79 -53 46
-76 52 -101 24z"/>
<path d="M4981 6304 c0 -11 3 -14 6 -6 3 7 2 16 -1 19 -3 4 -6 -2 -5 -13z"/>
<path d="M2366 7148 c-9 -12 -14 -24 -11 -26 6 -7 24 8 35 29 15 27 -5 25 -24
-3z"/>
<path d="M2990 6910 c0 -13 52 -60 67 -60 19 0 43 12 43 21 0 10 -77 49 -97
49 -7 0 -13 -4 -13 -10z"/>
<path d="M3460 6175 c0 -8 4 -15 10 -15 5 0 7 7 4 15 -4 8 -8 15 -10 15 -2 0
-4 -7 -4 -15z"/>
<path d="M6550 6690 c20 -13 33 -13 25 0 -3 6 -14 10 -23 10 -15 0 -15 -2 -2
-10z"/>
<path d="M6550 6649 c0 -5 -4 -7 -10 -4 -6 3 -7 -1 -4 -9 8 -22 21 -20 27 4 3
11 1 20 -4 20 -5 0 -9 -5 -9 -11z"/>
<path d="M6520 6599 c0 -5 5 -7 10 -4 6 3 10 8 10 11 0 2 -4 4 -10 4 -5 0 -10
-5 -10 -11z"/>
<path d="M6523 6573 c-7 -3 -13 -12 -13 -21 0 -15 2 -15 17 1 18 18 16 27 -4
20z"/>
<path d="M6495 6520 c3 -5 8 -10 11 -10 2 0 4 5 4 10 0 6 -5 10 -11 10 -5 0
-7 -4 -4 -10z"/>
<path d="M6470 6490 c0 -5 5 -10 11 -10 5 0 7 5 4 10 -3 6 -8 10 -11 10 -2 0
-4 -4 -4 -10z"/>
<path d="M6422 6450 c0 -14 2 -19 5 -12 2 6 2 18 0 25 -3 6 -5 1 -5 -13z"/>
<path d="M6385 6430 c3 -5 11 -10 16 -10 6 0 7 5 4 10 -3 6 -11 10 -16 10 -6
0 -7 -4 -4 -10z"/>
<path d="M6380 6390 c0 -5 7 -10 15 -10 8 0 15 5 15 10 0 6 -7 10 -15 10 -8 0
-15 -4 -15 -10z"/>
<path d="M6340 6370 c0 -5 5 -10 10 -10 6 0 10 5 10 10 0 6 -4 10 -10 10 -5 0
-10 -4 -10 -10z"/>
<path d="M6390 6345 c0 -8 5 -15 10 -15 6 0 10 7 10 15 0 8 -4 15 -10 15 -5 0
-10 -7 -10 -15z"/>
<path d="M6360 6340 c0 -5 5 -10 10 -10 6 0 10 5 10 10 0 6 -4 10 -10 10 -5 0
-10 -4 -10 -10z"/>
<path d="M6309 6318 c-10 -18 -9 -20 6 -15 9 4 21 7 26 7 5 0 9 7 9 15 0 22
-28 18 -41 -7z"/>
<path d="M6365 6309 c-10 -15 1 -23 20 -15 9 3 13 10 10 16 -8 13 -22 13 -30
-1z"/>
<path d="M8139 6683 c-58 -36 -78 -126 -39 -176 31 -39 100 -62 143 -48 58 19
82 54 82 118 0 50 -3 57 -37 89 -31 28 -46 34 -80 34 -24 0 -55 -8 -69 -17z"/>
<path d="M1860 6650 c0 -5 5 -10 11 -10 5 0 7 5 4 10 -3 6 -8 10 -11 10 -2 0
-4 -4 -4 -10z"/>
<path d="M1790 6569 c0 -5 5 -7 10 -4 6 3 10 8 10 11 0 2 -4 4 -10 4 -5 0 -10
-5 -10 -11z"/>
<path d="M1831 6564 c0 -11 3 -14 6 -6 3 7 2 16 -1 19 -3 4 -6 -2 -5 -13z"/>
<path d="M1670 6449 c0 -5 5 -7 10 -4 6 3 10 8 10 11 0 2 -4 4 -10 4 -5 0 -10
-5 -10 -11z"/>
<path d="M1635 6420 c-3 -5 -1 -10 4 -10 6 0 11 5 11 10 0 6 -2 10 -4 10 -3 0
-8 -4 -11 -10z"/>
<path d="M3660 4955 l0 -505 64 0 c205 0 376 138 430 347 20 77 21 231 1 306
-56 217 -232 357 -445 357 l-50 0 0 -505z"/>
<path d="M4500 4451 c0 -6 5 -13 10 -16 6 -3 10 1 10 9 0 9 -4 16 -10 16 -5 0
-10 -4 -10 -9z"/>
<path d="M4543 4445 c-9 -25 2 -27 22 -5 17 18 17 20 1 20 -9 0 -19 -7 -23
-15z"/>
<path d="M4510 4389 c0 -5 5 -7 10 -4 6 3 10 8 10 11 0 2 -4 4 -10 4 -5 0 -10
-5 -10 -11z"/>
<path d="M4442 4373 c2 -9 9 -18 16 -19 7 -1 8 0 3 2 -6 3 -7 12 -4 20 3 8 0
14 -7 14 -6 0 -10 -8 -8 -17z"/>
<path d="M4510 4346 c0 -9 5 -16 10 -16 6 0 10 4 10 9 0 6 -4 13 -10 16 -5 3
-10 -1 -10 -9z"/>
<path d="M4390 4321 c0 -6 4 -13 10 -16 6 -3 7 1 4 9 -7 18 -14 21 -14 7z"/>
<path d="M4457 4300 c-12 -12 -15 -20 -8 -25 6 -3 14 1 17 9 3 9 12 16 20 16
8 0 14 5 14 10 0 16 -23 11 -43 -10z"/>
<path d="M4392 4253 c4 -21 39 -24 46 -4 3 10 0 12 -12 8 -9 -4 -16 -2 -16 3
0 6 -5 10 -11 10 -6 0 -9 -8 -7 -17z"/>
<path d="M4310 4250 c0 -5 7 -10 15 -10 8 0 15 5 15 10 0 6 -7 10 -15 10 -8 0
-15 -4 -15 -10z"/>
<path d="M8489 3817 c-148 -79 -141 -292 12 -342 122 -41 247 31 265 152 23
156 -135 264 -277 190z"/>
<path d="M7197 3532 c-21 -23 -21 -41 -1 -70 28 -41 94 -16 94 36 0 47 -61 69
-93 34z"/>
<path d="M5960 3750 c0 -5 5 -10 10 -10 6 0 10 5 10 10 0 6 -4 10 -10 10 -5 0
-10 -4 -10 -10z"/>
<path d="M6070 3749 c0 -5 5 -7 10 -4 6 3 10 8 10 11 0 2 -4 4 -10 4 -5 0 -10
-5 -10 -11z"/>
<path d="M6010 3734 c0 -8 5 -12 10 -9 6 3 10 10 10 16 0 5 -4 9 -10 9 -5 0
-10 -7 -10 -16z"/>
<path d="M5868 3713 c7 -3 16 -2 19 1 4 3 -2 6 -13 5 -11 0 -14 -3 -6 -6z"/>
<path d="M5945 3710 c-3 -5 -1 -10 4 -10 6 0 11 5 11 10 0 6 -2 10 -4 10 -3 0
-8 -4 -11 -10z"/>
<path d="M6077 3704 c-8 -8 1 -24 14 -24 5 0 9 7 9 15 0 15 -12 20 -23 9z"/>
<path d="M6130 3699 c0 -5 5 -7 10 -4 6 3 10 8 10 11 0 2 -4 4 -10 4 -5 0 -10
-5 -10 -11z"/>
<path d="M6025 3690 c3 -5 8 -10 11 -10 2 0 4 5 4 10 0 6 -5 10 -11 10 -5 0
-7 -4 -4 -10z"/>
<path d="M6145 3640 c-3 -5 -1 -10 4 -10 6 0 11 5 11 10 0 6 -2 10 -4 10 -3 0
-8 -4 -11 -10z"/>
<path d="M6145 3560 c-3 -5 1 -10 10 -10 9 0 13 5 10 10 -3 6 -8 10 -10 10 -2
0 -7 -4 -10 -10z"/>
<path d="M6105 3540 c-3 -5 -1 -10 4 -10 6 0 11 5 11 10 0 6 -2 10 -4 10 -3 0
-8 -4 -11 -10z"/>
<path d="M6275 3540 c-8 -13 15 -24 27 -12 6 6 4 11 -6 15 -8 3 -18 2 -21 -3z"/>
<path d="M6241 3521 c-10 -7 -10 -10 -1 -16 6 -4 16 -3 22 3 13 13 -4 23 -21
13z"/>
<path d="M6160 3509 c0 -5 5 -7 10 -4 6 3 10 8 10 11 0 2 -4 4 -10 4 -5 0 -10
-5 -10 -11z"/>
<path d="M6200 3490 c0 -5 4 -10 9 -10 6 0 13 5 16 10 3 6 -1 10 -9 10 -9 0
-16 -4 -16 -10z"/>
<path d="M6160 3470 c-9 -6 -10 -10 -3 -10 6 0 15 5 18 10 8 12 4 12 -15 0z"/>
<path d="M6360 3465 c0 -8 -7 -15 -15 -15 -8 0 -15 -4 -15 -10 0 -5 7 -10 15
-10 8 0 15 5 15 10 0 6 7 10 15 10 8 0 15 7 15 15 0 8 -7 15 -15 15 -8 0 -15
-7 -15 -15z"/>
<path d="M6220 3460 c0 -5 5 -10 10 -10 6 0 10 5 10 10 0 6 -4 10 -10 10 -5 0
-10 -4 -10 -10z"/>
<path d="M6283 3456 c-13 -6 -23 -16 -23 -23 0 -18 19 -16 26 2 4 8 12 15 20
15 8 0 14 5 14 10 0 12 -8 11 -37 -4z"/>
<path d="M6180 3440 c0 -5 7 -10 16 -10 8 0 12 5 9 10 -3 6 -10 10 -16 10 -5
0 -9 -4 -9 -10z"/>
<path d="M6377 3433 c-12 -11 -8 -23 8 -23 8 0 15 7 15 15 0 16 -12 20 -23 8z"/>
<path d="M6307 3423 c-4 -6 4 -18 18 -27 30 -20 35 -20 35 0 0 9 -6 14 -12 11
-7 -2 -18 3 -24 11 -7 10 -13 11 -17 5z"/>
<path d="M6230 3410 c0 -5 5 -10 10 -10 6 0 10 5 10 10 0 6 -4 10 -10 10 -5 0
-10 -4 -10 -10z"/>
<path d="M6190 3389 c0 -5 5 -7 10 -4 6 3 10 8 10 11 0 2 -4 4 -10 4 -5 0 -10
-5 -10 -11z"/>
<path d="M6251 3374 c-21 -24 -5 -28 20 -5 16 14 18 21 8 21 -8 -1 -20 -8 -28
-16z"/>
<path d="M4150 3170 c0 -5 5 -10 10 -10 6 0 10 5 10 10 0 6 -4 10 -10 10 -5 0
-10 -4 -10 -10z"/>
<path d="M5507 3144 c-4 -4 -7 -14 -7 -23 0 -11 3 -12 11 -4 6 6 10 16 7 23
-2 6 -7 8 -11 4z"/>
<path d="M5215 2180 c-3 -5 -1 -10 4 -10 6 0 11 5 11 10 0 6 -2 10 -4 10 -3 0
-8 -4 -11 -10z"/>
<path d="M5016 2171 c-4 -7 -5 -15 -2 -18 9 -9 19 4 14 18 -4 11 -6 11 -12 0z"/>
<path d="M5047 2143 c-4 -3 -7 -11 -7 -17 0 -6 5 -5 12 2 6 6 9 14 7 17 -3 3
-9 2 -12 -2z"/>
<path d="M5137 2133 c-4 -3 -7 -11 -7 -17 0 -6 5 -5 12 2 6 6 9 14 7 17 -3 3
-9 2 -12 -2z"/>
<path d="M5070 2106 c0 -9 5 -16 10 -16 6 0 10 4 10 9 0 6 -4 13 -10 16 -5 3
-10 -1 -10 -9z"/>
<path d="M5220 2110 c0 -5 5 -10 10 -10 6 0 10 5 10 10 0 6 -4 10 -10 10 -5 0
-10 -4 -10 -10z"/>
<path d="M5270 2099 c0 -5 5 -7 10 -4 6 3 10 8 10 11 0 2 -4 4 -10 4 -5 0 -10
-5 -10 -11z"/>
<path d="M5120 2074 c0 -8 5 -12 10 -9 6 4 8 11 5 16 -9 14 -15 11 -15 -7z"/>
<path d="M5160 2080 c0 -5 5 -10 11 -10 5 0 7 5 4 10 -3 6 -8 10 -11 10 -2 0
-4 -4 -4 -10z"/>
<path d="M5200 2070 c0 -5 5 -10 10 -10 6 0 10 5 10 10 0 6 -4 10 -10 10 -5 0
-10 -4 -10 -10z"/>
<path d="M5290 2070 c0 -5 5 -10 11 -10 5 0 7 5 4 10 -3 6 -8 10 -11 10 -2 0
-4 -4 -4 -10z"/>
<path d="M5245 2060 c4 -6 11 -8 16 -5 14 9 11 15 -7 15 -8 0 -12 -5 -9 -10z"/>
<path d="M5158 2028 c5 -5 16 -8 23 -6 8 3 3 7 -10 11 -17 4 -21 3 -13 -5z"/>
<path d="M2880 3161 c-72 -22 -132 -75 -169 -148 -26 -52 -28 -156 -6 -211 38
-90 150 -165 245 -165 195 2 326 210 238 379 -60 114 -197 179 -308 145z"/>
<path d="M3285 2800 c-3 -5 1 -10 10 -10 9 0 13 5 10 10 -3 6 -8 10 -10 10 -2
0 -7 -4 -10 -10z"/>
<path d="M4579 2973 c-65 -62 -66 -135 -3 -197 65 -63 153 -55 210 20 72 94 6
214 -119 214 -41 0 -53 -5 -88 -37z"/>
<path d="M4303 2064 c-58 -21 -137 -95 -157 -145 -23 -58 -22 -157 2 -211 43
-97 167 -168 268 -154 181 24 279 204 204 371 -21 48 -77 108 -122 131 -45 23
-143 27 -195 8z"/>
<path d="M3990 1590 c20 -13 33 -13 25 0 -3 6 -14 10 -23 10 -15 0 -15 -2 -2
-10z"/>
<path d="M6423 9000 c-126 -30 -198 -176 -143 -293 33 -71 118 -127 191 -127
162 0 267 167 194 309 -28 56 -67 87 -132 107 -50 15 -62 16 -110 4z m92 -165
c14 -13 25 -33 25 -43 0 -27 -38 -72 -60 -72 -24 0 -60 46 -60 76 0 27 32 64
55 64 9 0 27 -11 40 -25z"/>
<path d="M1399 7681 c-35 -35 -38 -81 -10 -126 21 -34 268 -331 369 -444 92
-103 147 -121 193 -63 36 46 33 50 -216 379 -191 252 -220 283 -269 283 -28 0
-45 -7 -67 -29z"/>
<path d="M8306 7254 c-43 -42 4 -120 56 -93 13 7 26 17 30 23 12 17 9 61 -4
74 -17 17 -64 15 -82 -4z"/>
<path d="M8575 7165 c-38 -37 -33 -80 12 -104 30 -15 69 -5 93 26 21 27 18 46
-13 81 -27 29 -62 28 -92 -3z"/>
<path d="M8802 6444 c-31 -21 -30 -69 3 -90 29 -19 48 -14 70 20 21 31 13 59
-21 74 -31 15 -25 15 -52 -4z"/>
<path d="M1394 5396 c-47 -21 -86 -78 -92 -135 -12 -125 123 -219 235 -163 96
50 115 166 42 255 -44 53 -121 71 -185 43z"/>
<path d="M8696 5189 c-19 -15 -26 -30 -26 -54 0 -68 95 -101 145 -50 72 71
-38 168 -119 104z"/>
<path d="M1392 4848 c-18 -18 -15 -36 7 -48 21 -11 507 -15 535 -4 21 8 21 50
0 58 -9 3 -131 6 -273 6 -187 0 -260 -3 -269 -12z"/>
<path d="M8800 4840 c-37 -37 -21 -94 33 -113 47 -17 101 48 78 92 -24 43 -78
54 -111 21z"/>
<path d="M1304 4555 c-11 -28 4 -41 66 -60 52 -16 63 -17 70 -5 12 19 -14 48
-57 66 -42 18 -72 18 -79 -1z"/>
<path d="M8815 4375 c-30 -29 -32 -64 -5 -93 27 -28 61 -28 88 1 27 29 28 71
2 97 -27 27 -56 25 -85 -5z"/>
<path d="M8482 4258 c-19 -19 -14 -46 13 -64 24 -16 27 -16 45 1 34 31 19 75
-25 75 -12 0 -26 -5 -33 -12z"/>
<path d="M1357 4248 c-40 -11 -61 -36 -51 -62 9 -22 42 -20 89 7 25 14 40 30
40 42 0 24 -24 28 -78 13z"/>
<path d="M1422 3928 c-17 -17 -15 -55 4 -62 9 -3 100 -6 204 -6 158 0 191 3
204 16 19 19 20 36 4 52 -17 17 -399 17 -416 0z"/>
<path d="M1370 3620 c-11 -11 -20 -29 -20 -40 0 -28 35 -60 64 -60 27 0 56 33
56 62 0 24 -35 58 -60 58 -11 0 -29 -9 -40 -20z"/>
<path d="M8746 3028 c-63 -51 -114 -94 -113 -95 5 -4 122 28 230 64 l109 35
-49 44 c-26 24 -51 43 -55 44 -4 0 -59 -41 -122 -92z"/>
<path d="M1737 2633 c-10 -3 -23 -16 -28 -31 -8 -21 -6 -31 9 -51 24 -33 55
-38 81 -12 46 46 3 110 -62 94z"/>
<path d="M5968 2489 c-24 -13 -23 -52 1 -73 26 -23 52 -17 70 16 14 24 14 28
-3 47 -21 23 -41 26 -68 10z"/>
<path d="M5920 2249 c-93 -24 -168 -69 -232 -138 -61 -66 -95 -133 -114 -220
-40 -190 11 -369 141 -497 98 -97 220 -144 370 -144 232 0 410 142 470 375 44
174 -10 363 -144 496 -135 134 -302 178 -491 128z m184 -152 c17 -19 48 -64
70 -100 36 -62 104 -137 125 -137 5 0 12 35 16 78 l7 77 33 -38 c30 -35 65
-113 81 -179 5 -22 1 -29 -23 -44 -15 -9 -48 -30 -72 -46 -54 -36 -57 -35
-169 68 -44 41 -84 74 -88 74 -7 0 -48 -36 -168 -148 -58 -54 -74 -76 -92
-128 l-23 -63 21 -15 c12 -9 19 -18 17 -21 -3 -3 -25 14 -50 38 -33 32 -51 62
-71 117 -43 118 -51 103 112 213 80 54 152 102 160 107 12 7 13 11 2 22 -9 9
-46 13 -127 13 -63 0 -115 3 -115 6 0 12 47 57 88 84 58 39 108 54 176 55 54
0 61 -3 90 -33z m45 -461 c45 -49 71 -90 71 -116 0 -4 -22 -14 -50 -21 -42
-11 -50 -16 -50 -37 0 -13 5 -33 11 -45 10 -20 10 -21 -4 -7 -9 8 -38 60 -65
115 l-49 101 36 31 c20 18 39 32 42 32 3 1 29 -23 58 -53z m241 -81 c0 -10
-45 -75 -52 -75 -3 0 -8 6 -11 13 -2 6 -3 4 -1 -6 1 -9 -6 -22 -16 -27 -24
-13 -40 -12 -18 0 25 15 11 50 -24 57 -39 8 -30 13 44 28 81 16 78 16 78 10z
m-145 -125 c-27 -12 -43 -12 -25 0 8 5 22 9 30 9 10 0 8 -3 -5 -9z"/>
<path d="M6723 1733 c-7 -2 -13 -17 -13 -33 0 -51 48 -66 76 -25 12 18 11 24
-2 43 -15 21 -35 26 -61 15z"/>
<path d="M2480 1662 c-76 -40 -100 -152 -49 -227 63 -92 211 -86 266 11 28 49
29 86 2 141 -41 85 -137 118 -219 75z"/>
<path d="M3360 1649 c0 -5 5 -7 10 -4 6 3 10 8 10 11 0 2 -4 4 -10 4 -5 0 -10
-5 -10 -11z"/>
<path d="M3300 1589 c0 -5 -5 -7 -12 -3 -7 4 -8 3 -4 -4 10 -16 23 -15 30 3 3
8 1 15 -4 15 -6 0 -10 -5 -10 -11z"/>
<path d="M3253 1550 c-10 -14 -9 -19 2 -23 15 -7 26 14 16 31 -4 7 -11 5 -18
-8z"/>
<path d="M6838 1510 c-42 -12 -94 -47 -112 -75 -40 -60 -37 -157 6 -218 22
-30 108 -77 143 -77 137 0 236 150 176 268 -44 86 -130 127 -213 102z m90
-168 c3 -18 -30 -52 -50 -52 -19 0 -46 40 -41 60 12 46 84 40 91 -8z"/>
<path d="M5294 1351 c-74 -45 -98 -152 -50 -222 61 -90 204 -92 261 -5 44 67
31 161 -30 215 -31 27 -43 31 -93 31 -38 0 -67 -6 -88 -19z m112 -108 c8 -30
-6 -46 -37 -41 -29 4 -36 33 -14 58 21 23 43 16 51 -17z"/>
<path d="M3650 1220 c-11 -11 -20 -27 -20 -35 0 -21 36 -55 58 -55 28 0 62 29
62 54 0 50 -63 73 -100 36z"/>
<path d="M5682 1168 c-7 -7 -12 -24 -12 -38 0 -34 17 -50 52 -50 37 0 57 38
40 75 -13 27 -58 35 -80 13z"/>
</g>
</svg>
