<?xml version="1.0" standalone="no"?>
<!DOCTYPE svg PUBLIC "-//W3C//DTD SVG 20010904//EN"
 "http://www.w3.org/TR/2001/REC-SVG-20010904/DTD/svg10.dtd">
<svg version="1.0" xmlns="http://www.w3.org/2000/svg"
 width="1024.000000pt" height="1024.000000pt" viewBox="0 0 1024.000000 1024.000000"
 preserveAspectRatio="xMidYMid meet">

<g transform="translate(0.000000,1024.000000) scale(0.100000,-0.100000)"
fill="#000000" stroke="none">
<path d="M4990 8180 l0 -501 148 3 147 3 3 255 2 255 128 128 127 129 167 -7
c193 -8 181 -14 182 89 l1 61 -214 0 -213 0 -167 -170 -166 -170 -3 213 -2
212 -70 0 -70 0 0 -500z"/>
<path d="M3710 8205 l0 -75 280 0 280 0 0 -755 0 -755 70 0 70 0 0 830 0 830
-350 0 -350 0 0 -75z"/>
<path d="M6080 7756 l0 -525 -32 -23 c-30 -21 -47 -24 -173 -28 -99 -4 -135
-8 -124 -15 29 -19 49 -60 49 -102 l0 -43 81 0 c79 0 81 -1 127 -39 60 -49
109 -65 186 -59 113 10 202 80 233 187 40 138 -29 274 -163 323 l-34 12 2 176
3 175 155 0 155 0 3 83 3 82 -161 0 -160 0 0 160 0 160 -75 0 -75 0 0 -524z"/>
<path d="M4779 8113 c-13 -16 -12 -17 4 -4 9 7 17 15 17 17 0 8 -8 3 -21 -13z"/>
<path d="M4587 8093 c-3 -4 -4 -338 -4 -740 l2 -733 72 0 73 0 0 723 0 722
-56 0 c-42 0 -59 4 -69 18 -7 10 -15 15 -18 10z"/>
<path d="M3950 7968 c-42 -28 -70 -80 -70 -128 0 -40 29 -93 59 -110 19 -10
21 -20 21 -125 l0 -115 -608 0 -608 0 -74 -75 -74 -75 762 0 762 0 0 192 c0
190 0 192 26 229 66 95 6 215 -113 226 -39 4 -55 0 -83 -19z"/>
<path d="M5650 7744 c-123 -53 -171 -202 -105 -324 24 -44 40 -60 85 -83 48
-25 63 -28 126 -25 84 4 137 33 181 99 32 49 43 144 23 205 -17 50 -85 116
-136 132 -55 16 -131 15 -174 -4z m166 -138 c36 -36 43 -71 24 -120 -12 -31
-65 -66 -102 -66 -56 0 -120 88 -102 142 13 42 62 78 106 78 32 0 47 -7 74
-34z"/>
<path d="M6707 7162 l-557 -557 55 -55 55 -54 67 64 c37 36 290 286 563 557
l495 492 -55 56 c-30 30 -57 55 -60 55 -3 0 -256 -251 -563 -558z"/>
<path d="M5354 7657 c-27 -23 -76 -65 -108 -92 -203 -171 -209 -175 -242 -175
-30 0 -32 -2 -36 -41 -2 -22 -2 -42 1 -45 2 -2 103 -4 223 -4 l218 0 0 200 c0
110 -2 200 -4 200 -2 0 -26 -19 -52 -43z"/>
<path d="M7360 7307 c-91 -89 -345 -339 -564 -555 l-399 -393 48 -49 c27 -28
53 -50 58 -50 8 0 326 305 777 746 96 94 217 210 268 259 50 48 92 93 92 98 0
13 -92 107 -105 107 -5 0 -84 -73 -175 -163z"/>
<path d="M4900 7344 c0 -41 2 -45 22 -42 19 2 23 10 26 46 3 39 1 42 -23 42
-23 0 -25 -3 -25 -46z"/>
<path d="M4907 7224 c-4 -4 -7 -36 -7 -71 0 -59 2 -63 23 -63 21 0 22 3 17 67
-5 61 -16 84 -33 67z"/>
<path d="M4980 7179 c0 -28 -5 -59 -10 -70 -10 -19 -5 -19 215 -19 l225 0 0
70 0 70 -215 0 -215 0 0 -51z"/>
<path d="M4967 7003 c-4 -3 -7 -15 -7 -25 0 -13 -8 -18 -30 -18 l-30 0 0 -175
0 -175 255 0 254 0 3 183 c2 100 1 190 -1 200 -3 16 -22 17 -220 17 -120 0
-221 -3 -224 -7z"/>
<path d="M2785 6881 c-107 -50 -170 -172 -143 -279 42 -172 207 -246 366 -165
l64 32 69 -55 69 -55 0 -81 0 -82 92 -85 c51 -47 117 -110 148 -138 53 -52 56
-53 113 -53 l58 0 -3 88 -3 87 -37 5 c-30 4 -54 21 -123 89 l-85 84 0 108 0
109 -26 0 c-34 0 -59 14 -123 72 -30 26 -61 48 -68 48 -9 0 -13 15 -13 48 -1
89 -60 179 -145 218 -63 30 -152 32 -210 5z m175 -120 c38 -26 62 -80 55 -120
-13 -73 -61 -111 -141 -111 -40 0 -51 5 -80 35 -41 44 -52 91 -30 133 43 84
128 111 196 63z"/>
<path d="M4134 6876 c-6 -26 -34 -44 -34 -23 0 9 -2 9 -8 0 -8 -13 -94 -46
-169 -65 -24 -6 -43 -15 -43 -19 0 -4 -28 -6 -61 -4 -44 2 -70 9 -91 25 l-29
22 15 -30 c21 -40 83 -90 126 -102 81 -23 184 -6 233 38 35 31 67 91 74 137 6
48 -2 62 -13 21z"/>
<path d="M5596 6725 c13 -68 85 -125 158 -125 29 0 116 32 116 43 0 1 -20 1
-45 -1 -28 -3 -45 0 -45 7 0 6 -9 11 -21 11 -14 0 -19 5 -16 14 4 10 -7 13
-50 11 -38 -1 -56 2 -60 12 -3 7 -9 11 -13 8 -5 -3 -13 7 -19 22 l-11 28 6
-30z"/>
<path d="M7730 6718 c-23 -18 -53 -39 -66 -46 -13 -7 -24 -17 -24 -21 0 -5
-12 -12 -27 -17 l-28 -7 30 -7 30 -8 -31 -1 c-18 0 -37 6 -44 14 -8 9 -16 12
-19 6 -6 -9 -26 -14 -49 -12 -7 0 -10 5 -7 11 3 5 0 7 -8 4 -10 -3 -27 11 -48
41 l-33 46 -66 -66 -66 -66 -37 16 c-20 8 -56 15 -81 15 -38 0 -48 -5 -75 -35
-35 -40 -46 -73 -38 -115 6 -27 -6 -41 -168 -197 -96 -92 -185 -170 -197 -173
-21 -5 -23 -12 -26 -93 l-3 -87 42 0 c48 0 41 -6 410 357 184 181 186 183 230
183 41 1 49 6 122 76 78 74 79 75 112 63 63 -23 169 38 200 114 8 20 14 37 12
37 -2 0 -23 -15 -47 -32z"/>
<path d="M3260 6704 c0 -16 53 -75 80 -89 38 -19 119 -19 161 1 30 13 26 14
-16 4 -5 -1 -23 -2 -40 0 -26 1 -27 3 -10 10 16 7 14 9 -15 9 -26 1 -31 -2
-20 -9 17 -11 6 -13 -27 -4 -13 4 -21 10 -18 14 3 4 -9 13 -25 20 -17 7 -30
15 -30 19 0 3 -9 12 -20 19 -11 7 -20 9 -20 6z"/>
<path d="M7919 6231 c-733 -715 -672 -659 -706 -654 -35 6 -88 -18 -103 -46
-5 -11 -10 -38 -10 -61 0 -58 42 -100 100 -100 53 0 84 17 145 80 28 29 149
147 270 263 121 116 349 338 507 493 l287 282 -57 55 -58 55 -375 -367z"/>
<path d="M1903 6538 l-52 -53 112 -115 c103 -105 480 -471 702 -680 49 -47
145 -138 212 -202 122 -118 131 -124 198 -119 43 3 85 49 92 98 4 35 1 45 -27
76 -29 34 -37 37 -84 37 l-51 0 -235 226 c-129 125 -361 352 -516 505 -154
154 -285 279 -290 279 -5 0 -33 -24 -61 -52z"/>
<path d="M3577 6473 c-13 -12 -7 -61 8 -67 11 -4 15 1 15 19 0 14 -4 25 -10
25 -5 0 -7 7 -4 15 6 16 2 20 -9 8z"/>
<path d="M4228 6323 l-3 -138 -35 -5 c-51 -9 -73 -24 -105 -69 l-28 -41 -133
0 -134 0 0 -85 0 -85 145 0 145 0 0 -120 0 -120 -145 0 -145 0 0 -85 0 -85
145 0 145 0 0 -132 0 -133 -42 0 c-24 0 -89 -2 -145 -3 l-103 -2 0 -90 0 -90
103 -2 c56 -1 121 -2 145 -1 l42 1 0 -135 0 -135 -42 2 c-24 1 -89 1 -145 1
l-103 -1 0 -90 0 -90 103 -2 c56 -1 121 -1 145 0 l42 2 0 -110 0 -110 -42 2
c-39 1 -40 2 -10 5 25 3 32 8 28 20 -3 8 -6 21 -6 29 0 8 -4 14 -10 14 -5 0
-10 -9 -10 -20 0 -11 -7 -20 -15 -20 -12 0 -15 16 -17 73 l-2 72 -5 -90 -6
-90 -97 -3 -98 -3 0 -84 0 -84 102 -3 c95 -3 103 -5 104 -23 2 -56 6 -67 36
-101 36 -41 122 -84 167 -84 l31 0 0 -106 0 -107 46 7 c26 3 62 6 80 6 l33 0
3 98 3 97 80 0 80 0 5 -98 c3 -53 8 -97 13 -97 4 0 39 0 77 0 l70 0 0 98 c0
53 4 102 8 107 11 17 143 20 153 3 5 -7 9 -57 9 -110 l0 -98 86 0 86 0 -3 93
c-3 140 -11 127 80 127 93 0 91 3 91 -131 l0 -87 35 -6 c20 -4 56 -4 80 0 l45
6 0 97 c0 53 5 103 10 111 8 13 10 13 10 1 0 -12 3 -12 12 -3 15 15 58 16 58
2 0 -5 20 -10 45 -10 l44 0 3 -102 c3 -118 0 -114 104 -103 l64 7 0 99 0 99
33 1 32 2 -35 7 c-27 6 -16 8 46 9 97 1 94 6 94 -138 l0 -94 38 7 c20 3 56 6
80 6 l42 0 0 100 0 100 40 0 c101 0 186 72 204 173 l7 37 79 0 80 0 0 85 0 85
-79 0 -78 0 -7 61 c-3 34 -6 86 -6 115 l0 54 85 0 85 0 0 90 0 90 -80 0 -81 0
3 133 3 132 78 3 77 3 0 90 0 91 -77 -4 -78 -3 -7 125 c-4 69 -5 131 -3 138 3
8 29 12 85 12 l80 0 0 85 0 85 -80 0 -80 0 -1 68 c-1 77 -16 181 -18 125 -1
-35 -20 -43 -51 -23 -12 7 -16 3 -21 -18 -5 -20 -7 -14 -8 24 l-1 51 77 7 c42
3 100 6 130 6 l53 0 0 85 0 85 -87 0 c-127 0 -156 7 -175 40 -21 36 -60 62
-106 69 l-37 6 -3 138 -3 137 -79 0 -80 0 0 -140 0 -140 -84 0 -84 0 -7 125
c-4 68 -5 131 -1 140 4 13 -7 15 -79 15 l-85 0 0 -140 0 -140 -90 0 -90 0 0
140 0 140 -82 0 -83 0 0 -137 0 -138 -84 0 -85 0 -1 30 c-1 17 -2 78 -3 138
l-2 107 -80 0 -80 0 0 -140 0 -140 -85 0 -85 0 0 140 0 140 -80 0 -79 0 -3
-137 -3 -138 -80 0 -80 0 0 138 0 137 -82 0 -82 0 -3 -137z m1824 -324 l31
-31 -6 -375 c-4 -207 -7 -524 -7 -705 0 -278 -2 -328 -14 -328 -8 0 -17 10
-19 23 -2 13 -6 3 -7 -23 -9 -121 -17 256 -19 790 l-1 595 -292 -3 c-161 -2
-298 -7 -304 -10 -26 -15 -252 -225 -474 -442 -42 -41 -139 -133 -215 -205
-77 -71 -198 -187 -269 -256 l-131 -127 -6 72 c-3 39 -6 -96 -7 -301 l-2 -372
-27 -26 c-54 -49 -53 -67 -53 842 0 891 -1 874 47 902 12 7 314 10 881 11
l864 0 30 -31z m-132 -84 c-7 -9 -15 -13 -19 -10 -3 3 1 10 9 15 21 14 24 12
10 -5z m-1875 -1745 c3 -6 -1 -7 -9 -4 -18 7 -21 14 -7 14 6 0 13 -4 16 -10z
m-9 -35 c1 -8 -2 -13 -7 -9 -5 3 -9 12 -9 21 0 19 13 9 16 -12z m38 -10 c3 -8
1 -15 -3 -15 -5 0 -11 7 -15 15 -3 8 -1 15 3 15 5 0 11 -7 15 -15z m26 -29 c0
-3 -4 -8 -10 -11 -5 -3 -10 -1 -10 4 0 6 5 11 10 11 6 0 10 -2 10 -4z m324
-83 c-5 -5 -12 -12 -16 -18 -4 -6 -8 -2 -8 8 0 9 7 17 17 17 9 0 12 -3 7 -7z"/>
<path d="M3785 6399 c-24 -25 -106 -24 -117 1 -5 13 -7 12 -7 -2 -1 -10 -13
-19 -31 -23 -46 -10 -47 -25 -4 -65 69 -64 162 -62 229 6 34 33 50 67 23 47
-14 -10 -16 -10 -65 2 -28 6 -30 9 -18 22 8 8 15 19 15 24 0 12 -2 11 -25 -12z"/>
<path d="M7680 6207 c-8 -7 -22 -21 -30 -32 -8 -11 0 -7 18 9 29 27 37 37 30
36 -2 0 -10 -6 -18 -13z"/>
<path d="M7415 6130 c3 -22 16 -45 36 -64 27 -24 38 -27 73 -23 46 6 86 44 86
81 0 19 -4 22 -30 18 -16 -2 -30 -8 -30 -12 0 -4 -13 -10 -30 -14 -16 -3 -43
-9 -59 -12 -27 -6 -31 -3 -40 27 l-11 34 5 -35z"/>
<path d="M2640 6127 c0 -31 42 -76 76 -83 37 -7 88 16 98 43 7 17 6 17 -10 1
-16 -15 -18 -15 -37 3 -13 12 -32 18 -54 16 -35 -2 -47 -17 -13 -17 11 0 20
-4 20 -8 0 -5 -10 -8 -22 -7 -13 1 -28 14 -40 36 -11 21 -18 27 -18 16z"/>
<path d="M1856 5934 c-11 -29 -6 -105 9 -134 33 -64 115 -99 187 -79 43 11
108 66 108 91 0 10 -3 9 -10 -2 -9 -13 -11 -13 -20 0 -8 13 -13 13 -30 2 -27
-17 -43 -7 -30 18 16 30 12 34 -8 9 -28 -34 -79 -31 -109 7 -17 22 -23 25 -23
12 0 -10 -5 -18 -10 -18 -6 0 -13 8 -17 18 -12 33 -25 44 -35 30 -6 -8 -8 0
-4 25 5 39 2 47 -8 21z m204 -134 c0 -5 -10 -10 -22 -10 -19 0 -20 2 -8 10 19
13 30 13 30 0z"/>
<path d="M8400 5873 c0 -15 -10 -22 -44 -30 -41 -9 -43 -9 -38 11 5 18 2 17
-19 -6 -36 -41 -72 -46 -103 -14 -15 14 -26 21 -26 16 0 -5 5 -12 10 -15 6 -3
10 -14 10 -23 0 -10 -3 -13 -8 -7 -4 6 -20 12 -36 13 -23 3 -28 1 -23 -12 4
-9 3 -16 -2 -16 -9 0 -26 39 -34 75 -4 18 -5 17 -6 -3 -3 -60 60 -136 123
-147 81 -16 174 41 196 120 7 25 10 48 6 52 -3 3 -6 -3 -6 -14z"/>
<path d="M7304 5859 c-31 -34 -74 -52 -111 -46 -18 3 -33 2 -33 -4 0 -15 73
-10 109 9 19 9 41 27 49 40 18 28 11 29 -14 1z"/>
<path d="M7119 5836 c26 -28 31 -31 31 -17 0 5 -12 17 -27 26 l-28 18 24 -27z"/>
<path d="M2940 5846 c0 -2 8 -10 18 -17 15 -13 16 -12 3 4 -13 16 -21 21 -21
13z"/>
<path d="M3106 5823 c-4 -4 -28 -10 -54 -14 l-47 -6 41 -2 c22 0 49 6 60 14
10 8 16 15 13 15 -3 0 -9 -3 -13 -7z"/>
<path d="M1858 5530 c-13 -20 -17 -66 -21 -242 l-4 -218 174 0 c185 0 231 9
254 51 14 27 32 24 79 -16 l42 -35 619 0 619 0 0 75 0 75 -558 0 c-315 0 -571
4 -590 9 -18 5 -64 38 -102 72 l-70 62 0 68 c0 58 -3 72 -25 96 l-25 28 6 -27
c5 -22 -1 -33 -30 -61 -51 -50 -112 -71 -184 -64 -97 8 -146 45 -161 120 l-7
32 -16 -25z"/>
<path d="M7895 5540 c-4 -6 -11 -8 -16 -4 -5 3 -8 2 -7 -3 1 -4 -6 -20 -15
-34 -20 -30 -50 -39 -145 -42 l-64 -2 6 35 c4 24 3 30 -4 20 -15 -23 -12 -88
6 -121 34 -67 145 -84 203 -30 l28 26 264 2 264 1 0 79 0 78 -257 3 c-169 1
-259 -1 -263 -8z"/>
<path d="M6970 5494 c0 -5 -11 -22 -24 -37 -19 -22 -30 -27 -48 -22 -18 5 -20
4 -8 -4 11 -9 5 -10 -25 -7 -130 16 -143 16 -148 4 -4 -9 -6 -7 -6 3 -1 10
-12 19 -28 22 -26 5 -26 4 -8 -9 10 -8 15 -14 9 -14 -5 0 6 -10 23 -21 51 -33
137 -36 193 -7 42 22 90 81 76 95 -3 4 -6 2 -6 -3z m-120 -92 c0 -5 -16 -9
-35 -9 -19 0 -32 4 -29 9 3 4 18 8 35 8 16 0 29 -4 29 -8z"/>
<path d="M3300 5474 c0 -17 53 -66 86 -80 37 -16 112 -18 133 -5 8 5 -11 8
-50 8 -73 -1 -114 16 -104 41 5 13 3 14 -6 5 -9 -9 -17 -5 -35 14 -13 14 -24
22 -24 17z"/>
<path d="M2650 5458 c0 -19 -34 -50 -45 -41 -4 5 -5 2 -1 -4 5 -9 -3 -13 -28
-13 -25 0 -38 6 -46 20 -6 11 -15 18 -21 15 -5 -4 -9 -1 -9 6 0 7 -3 9 -7 6
-10 -10 35 -54 63 -61 13 -4 37 0 52 8 29 15 60 61 49 73 -4 3 -7 0 -7 -9z"/>
<path d="M6813 5463 c9 -2 23 -2 30 0 6 3 -1 5 -18 5 -16 0 -22 -2 -12 -5z"/>
<path d="M3400 5420 c0 -5 9 -10 20 -10 11 0 20 5 20 10 0 6 -9 10 -20 10 -11
0 -20 -4 -20 -10z"/>
<path d="M3556 5415 c-11 -8 -15 -15 -9 -15 6 0 16 7 23 15 16 19 11 19 -14 0z"/>
<path d="M7528 5222 l-878 -2 0 -75 0 -75 885 0 885 0 0 74 c0 41 -3 76 -7 78
-5 2 -403 2 -885 0z"/>
<path d="M2110 4900 c0 -18 -7 -20 -85 -20 -95 0 -135 -13 -179 -56 -117 -117
-71 -331 83 -383 19 -6 67 -11 107 -11 l73 0 3 -47 3 -48 350 0 350 0 3 293 2
292 -80 0 -80 0 0 -165 0 -165 -35 0 -35 0 0 165 0 165 -70 0 -70 0 0 -165 0
-165 -26 -6 c-14 -4 -29 -3 -34 2 -5 5 -10 61 -12 124 l-3 115 -67 3 -68 3 0
-121 0 -120 -35 0 -36 0 3 165 3 165 -32 0 c-26 0 -33 -4 -33 -20z m-65 -150
c33 -13 59 -71 50 -116 -7 -42 -47 -74 -92 -74 -45 0 -69 14 -88 50 -24 46
-19 87 14 121 31 31 68 37 116 19z"/>
<path d="M7430 4625 l0 -295 355 0 355 0 0 49 0 49 88 4 c109 5 167 34 208
104 59 101 52 190 -21 272 -49 55 -87 70 -196 79 -49 4 -69 10 -69 19 0 12
-64 14 -360 14 l-360 0 0 -295z m643 269 c3 -4 -7 -20 -24 -36 l-30 -30 -249
-2 c-136 0 -251 2 -255 6 -4 4 -5 18 -1 32 l6 26 263 3 c144 1 267 3 273 5 6
1 13 -1 17 -4z m226 -148 c91 -47 50 -186 -55 -186 -36 0 -61 16 -79 50 -29
55 -16 108 33 134 35 19 66 20 101 2z"/>
<path d="M6855 4657 c-24 -13 -96 -27 -90 -17 3 5 -2 10 -10 14 -8 3 -15 0
-15 -5 0 -6 -8 -9 -19 -6 -10 2 -26 0 -36 -6 -13 -7 -16 -6 -11 2 5 7 -1 11
-13 11 -19 0 -20 -2 -9 -22 51 -91 134 -120 226 -78 l43 20 50 -47 c46 -43 49
-49 49 -95 0 -43 4 -54 31 -79 23 -21 41 -29 68 -29 32 0 45 -9 106 -70 37
-38 73 -66 78 -63 6 3 7 2 4 -4 -8 -13 37 -56 48 -46 4 5 5 2 1 -5 -6 -9 106
-127 353 -373 199 -197 365 -359 370 -359 5 0 27 22 50 49 l40 48 -257 255
c-330 329 -473 464 -484 460 -5 -1 -7 1 -4 6 9 15 -59 73 -77 66 -10 -3 -17
-1 -17 6 0 6 5 8 10 5 20 -12 9 14 -13 32 -41 33 -57 64 -51 102 3 20 1 47 -5
61 -8 20 -9 16 -5 -25 5 -50 5 -50 -11 -22 -9 15 -14 31 -11 35 6 10 -9 12
-122 18 -84 5 -92 7 -87 24 9 30 -68 88 -127 96 -50 7 -56 12 -36 32 17 17 6
23 -17 9z m444 -320 c10 -15 21 -25 24 -22 4 3 3 0 -2 -6 -12 -14 -24 -6 -51
30 -16 24 -17 29 -4 27 8 -1 23 -14 33 -29z m76 -66 c3 -5 1 -12 -5 -16 -5 -3
-10 1 -10 9 0 18 6 21 15 7z m101 -109 c-6 -5 -36 23 -36 34 0 4 9 -1 20 -11
11 -10 18 -20 16 -23z"/>
<path d="M3607 4626 c-10 -11 -36 -15 -86 -14 -61 0 -76 -3 -96 -22 -19 -17
-27 -20 -43 -11 -15 8 -21 8 -25 -2 -9 -28 141 -49 186 -26 29 15 66 49 78 72
12 21 6 22 -14 3z"/>
<path d="M7200 4567 c0 -2 15 -14 33 -27 20 -15 27 -17 18 -6 -13 16 -51 41
-51 33z"/>
<path d="M3296 4529 c-17 -15 -28 -31 -25 -34 3 -2 21 11 39 30 40 42 28 45
-14 4z"/>
<path d="M2993 4455 c0 -22 2 -30 4 -17 2 12 2 30 0 40 -3 9 -5 -1 -4 -23z"/>
<path d="M3252 4467 c-2 -22 -6 -27 -24 -26 -13 1 -51 1 -85 1 -56 -2 -63 -4
-63 -22 0 -16 -7 -20 -30 -20 -16 0 -30 5 -30 10 0 6 -15 -6 -32 -27 -18 -21
-41 -44 -51 -51 -11 -9 -16 -21 -12 -33 4 -11 2 -19 -5 -19 -6 0 -8 6 -4 13 4
6 -9 -3 -29 -22 -33 -31 -35 -35 -19 -47 15 -12 15 -12 -4 -8 -33 8 -76 -23
-69 -50 5 -17 4 -18 -4 -6 -9 12 -33 -7 -133 -106 -68 -67 -224 -220 -347
-340 l-223 -219 48 -54 47 -53 461 460 c421 420 464 460 500 465 68 11 122 80
113 148 -3 30 -4 31 -5 6z m-292 -157 c0 -5 -2 -10 -4 -10 -3 0 -8 5 -11 10
-3 6 -1 10 4 10 6 0 11 -4 11 -10z m-54 -55 c-8 -8 -20 -15 -27 -15 -7 0 -4 6
7 15 25 19 40 19 20 0z"/>
<path d="M3175 4057 c-176 -171 -437 -425 -580 -564 l-260 -252 57 -56 57 -56
176 173 177 173 164 5 c90 3 163 2 162 -1 -2 -4 -119 -118 -261 -254 -221
-213 -256 -250 -245 -264 6 -9 30 -35 52 -58 l40 -43 106 103 c58 56 200 195
317 308 l212 206 267 6 c174 4 272 3 285 -3 17 -10 19 -23 19 -149 0 -137 0
-139 -25 -155 -13 -9 -31 -29 -40 -45 -11 -22 -24 -31 -53 -36 -56 -9 -98 -39
-131 -91 -74 -115 -37 -254 83 -310 129 -60 276 8 307 143 12 55 1 106 -37
169 -33 55 -33 56 -17 87 9 18 29 44 44 58 l29 27 0 146 c0 135 2 149 22 176
15 20 23 49 26 87 3 54 1 61 -28 93 -18 19 -27 27 -20 18 11 -17 7 -18 -51
-19 -122 -1 -144 -4 -156 -19 -18 -23 -15 2 4 30 12 20 8 18 -19 -8 l-35 -33
-122 7 -121 7 92 87 c51 47 109 101 128 118 l35 32 -53 50 c-29 28 -58 50 -64
50 -6 0 -89 -76 -183 -170 l-172 -170 -177 0 c-98 0 -176 3 -174 8 2 4 121
123 266 264 238 232 267 257 300 260 l37 3 3 88 3 87 -63 0 -63 0 -320 -313z
m645 -421 c8 -1 -11 -4 -43 -7 -35 -2 -57 0 -57 6 0 9 53 10 100 1z m91 -685
c21 -21 29 -39 29 -64 0 -49 -8 -66 -41 -82 -71 -37 -139 0 -139 75 0 53 42
100 90 100 22 0 41 -9 61 -29z"/>
<path d="M6652 4283 l3 -88 35 -3 c30 -3 58 -27 200 -167 91 -89 209 -204 263
-255 53 -51 97 -97 97 -101 0 -5 -75 -9 -167 -9 l-168 1 -182 175 c-203 194
-185 186 -262 117 l-44 -39 133 -127 133 -127 -116 0 c-99 0 -118 3 -129 18
-20 27 -69 62 -87 62 -9 0 -1 -8 18 -18 19 -9 37 -23 39 -30 3 -11 0 -12 -16
-3 -35 19 -105 10 -164 -20 -29 -15 -22 16 8 40 15 12 22 21 16 21 -5 0 -24
-16 -40 -35 -56 -63 -55 -154 3 -212 30 -30 39 -33 91 -33 43 0 69 6 94 21 32
20 44 21 165 15 71 -3 179 -6 239 -6 l108 0 287 -283 c157 -155 298 -293 314
-307 l27 -24 50 49 c28 27 50 54 50 60 0 6 -112 123 -250 260 -137 136 -250
249 -250 249 0 1 70 -1 155 -4 l154 -5 58 -55 c32 -31 114 -109 182 -175 l124
-118 48 51 c27 28 49 55 49 60 0 6 -120 127 -267 269 -148 142 -405 394 -573
561 l-305 302 -63 0 -63 0 3 -87z"/>
<path d="M1955 4141 c-63 -33 -90 -81 -90 -162 0 -60 3 -71 31 -106 45 -57 87
-75 161 -71 51 3 69 9 100 34 98 78 97 214 -3 291 -49 37 -140 44 -199 14z
m149 -113 c44 -63 -17 -139 -89 -112 -15 6 -45 53 -45 72 0 5 9 21 21 36 27
35 90 37 113 4z"/>
<path d="M8120 4139 c-71 -41 -111 -132 -90 -203 18 -59 44 -91 93 -115 115
-56 250 9 272 131 13 70 -42 165 -112 194 -48 20 -122 17 -163 -7z m134 -104
c70 -64 -13 -164 -92 -109 -33 23 -31 86 4 113 35 27 55 26 88 -4z"/>
<path d="M4595 3618 c-15 -14 -28 -38 -32 -60 -5 -32 -1 -41 25 -68 50 -49
112 -37 139 27 18 45 4 87 -38 108 -39 21 -64 19 -94 -7z"/>
<path d="M5600 3633 c-56 -22 -67 -98 -21 -144 39 -38 74 -38 113 1 26 27 30
36 25 68 -10 60 -64 95 -117 75z"/>
<path d="M5905 3618 c-15 -14 -28 -38 -32 -60 -5 -32 -1 -41 25 -68 39 -38 83
-40 117 -5 36 35 34 88 -4 126 -35 35 -70 37 -106 7z"/>
<path d="M4276 3455 c-3 -93 -6 -446 -6 -782 l0 -613 73 0 72 0 -1 533 c0 292
-1 643 -2 779 l-2 246 -64 4 -63 3 -7 -170z m117 148 c-7 -2 -19 -2 -25 0 -7
3 -2 5 12 5 14 0 19 -2 13 -5z"/>
<path d="M5050 3600 c-159 -30 -277 -119 -343 -258 l-32 -67 -3 -347 -3 -347
48 -3 48 -3 3 -338 2 -338 57 3 57 3 -3 338 -3 338 49 -3 48 -3 3 -337 2 -338
55 0 55 0 0 341 0 340 48 -3 47 -3 3 -338 2 -338 58 3 57 3 1 335 1 335 44 0
44 0 2 -335 1 -335 56 -3 56 -3 2 338 3 338 48 3 48 3 -3 347 -3 347 -33 66
c-54 107 -153 196 -264 237 -65 24 -191 35 -258 22z m195 -276 c65 -34 119
-87 145 -141 37 -80 37 -80 -107 -85 -71 -3 -138 -10 -150 -17 -19 -9 -124
-29 -183 -33 -8 -1 -21 -8 -28 -17 -12 -15 -13 -15 -9 0 3 9 1 22 -5 30 -9 13
-6 -28 9 -135 8 -56 -17 -43 -44 25 -64 157 20 342 177 390 58 17 144 10 195
-17z"/>
<path d="M3386 3310 c-69 -22 -113 -97 -102 -173 l6 -42 -154 -154 c-84 -84
-158 -151 -164 -147 -6 3 -27 -14 -47 -39 l-37 -44 48 -56 c26 -30 52 -55 57
-55 5 0 103 91 219 203 170 164 216 203 244 208 43 7 81 35 112 80 19 27 23
43 19 81 -9 101 -107 168 -201 138z"/>
<path d="M5770 2675 l0 -615 23 0 c12 0 46 -3 75 -6 l52 -7 0 542 0 541 545 0
545 0 0 80 0 80 -620 0 -620 0 0 -615z"/>
<path d="M6099 2977 c-42 -32 -50 -90 -18 -131 42 -54 94 -53 152 2 l27 26 0
-26 c0 -24 4 -26 61 -32 34 -3 213 -6 398 -6 l336 0 113 -107 113 -108 56 57
56 56 -34 41 c-19 22 -41 41 -50 41 -8 0 -54 41 -101 90 l-85 90 -432 0 c-376
0 -431 -2 -431 -15 0 -22 -16 -18 -44 10 -28 28 -88 34 -117 12z"/>
<path d="M6189 2671 c-77 -25 -123 -67 -149 -138 -37 -99 -21 -181 50 -254
137 -142 375 -53 398 148 9 83 -49 183 -131 224 -44 23 -128 33 -168 20z"/>
<path d="M3344 2641 c-105 -48 -132 -173 -57 -262 51 -60 125 -74 200 -38 139
67 123 268 -25 309 -51 14 -71 12 -118 -9z m119 -113 c22 -27 22 -53 -3 -78
-26 -26 -64 -25 -90 2 -27 30 -25 62 7 87 30 24 58 20 86 -11z"/>
<path d="M6795 2646 c-131 -58 -140 -242 -15 -306 75 -38 149 -22 208 44 111
126 -39 330 -193 262z m90 -98 c45 -20 47 -82 4 -107 -55 -31 -111 16 -89 74
8 21 26 35 57 44 1 1 14 -4 28 -11z"/>
<path d="M3900 2538 c-104 -53 -120 -186 -31 -261 86 -72 209 -50 255 47 68
144 -81 288 -224 214z m120 -94 c32 -38 6 -104 -42 -104 -46 0 -75 71 -42 104
20 20 68 21 84 0z"/>
</g>
</svg>
